  0
SECTION
  2
BLOCKS
  0
ENDSEC
  0
SECTION
  2
ENTITIES
  0
LINE
  8
0
 10
80
 20
254
 11
120
 21
254
  0
LINE
  8
0
 10
120
 20
254
 11
120
 21
250
  0
LINE
  8
0
 10
120
 20
250
 11
160
 21
250
  0
LINE
  8
0
 10
160
 20
250
 11
160
 21
254
  0
LINE
  8
0
 10
160
 20
254
 11
196
 21
254
  0
LINE
  8
0
 10
196
 20
254
 11
196
 21
267
  0
LINE
  8
0
 10
196
 20
267
 11
200
 21
267
  0
LINE
  8
0
 10
200
 20
267
 11
200
 21
287
  0
LINE
  8
0
 10
200
 20
287
 11
196
 21
287
  0
LINE
  8
0
 10
196
 20
287
 11
196
 21
300
  0
LINE
  8
0
 10
196
 20
300
 11
4
 21
300
  0
LINE
  8
0
 10
4
 20
300
 11
4
 21
287
  0
LINE
  8
0
 10
4
 20
287
 11
0
 21
287
  0
LINE
  8
0
 10
0
 20
287
 11
0
 21
267
  0
LINE
  8
0
 10
0
 20
267
 11
4
 21
267
  0
LINE
  8
0
 10
4
 20
267
 11
4
 21
254
  0
LINE
  8
0
 10
4
 20
254
 11
40
 21
254
  0
LINE
  8
0
 10
40
 20
254
 11
40
 21
250
  0
LINE
  8
0
 10
40
 20
250
 11
80
 21
250
  0
LINE
  8
0
 10
80
 20
250
 11
80
 21
254
  0
LINE
  8
0
 10
192
 20
241
 11
186.75
 21
241
  0
LINE
  8
0
 10
186.75
 20
241
 11
186.75
 21
239.75
  0
LINE
  8
0
 10
186.75
 20
239.75
 11
184.25
 21
239.75
  0
LINE
  8
0
 10
184.25
 20
239.75
 11
184.25
 21
241
  0
LINE
  8
0
 10
184.25
 20
241
 11
179
 21
241
  0
LINE
  8
0
 10
179
 20
241
 11
179
 21
244
  0
LINE
  8
0
 10
179
 20
244
 11
184.25
 21
244
  0
LINE
  8
0
 10
184.25
 20
244
 11
184.25
 21
245.25
  0
LINE
  8
0
 10
184.25
 20
245.25
 11
186.75
 21
245.25
  0
LINE
  8
0
 10
186.75
 20
245.25
 11
186.75
 21
244
  0
LINE
  8
0
 10
186.75
 20
244
 11
192
 21
244
  0
LINE
  8
0
 10
192
 20
244
 11
192
 21
248
  0
LINE
  8
0
 10
192
 20
248
 11
0
 21
248
  0
LINE
  8
0
 10
0
 20
248
 11
0
 21
244
  0
LINE
  8
0
 10
0
 20
244
 11
5.25
 21
244
  0
LINE
  8
0
 10
5.25
 20
244
 11
5.25
 21
245.25
  0
LINE
  8
0
 10
5.25
 20
245.25
 11
7.75
 21
245.25
  0
LINE
  8
0
 10
7.75
 20
245.25
 11
7.75
 21
244
  0
LINE
  8
0
 10
7.75
 20
244
 11
13
 21
244
  0
LINE
  8
0
 10
13
 20
244
 11
13
 21
241
  0
LINE
  8
0
 10
13
 20
241
 11
7.75
 21
241
  0
LINE
  8
0
 10
7.75
 20
241
 11
7.75
 21
239.75
  0
LINE
  8
0
 10
7.75
 20
239.75
 11
5.25
 21
239.75
  0
LINE
  8
0
 10
5.25
 20
239.75
 11
5.25
 21
241
  0
LINE
  8
0
 10
5.25
 20
241
 11
0
 21
241
  0
LINE
  8
0
 10
0
 20
241
 11
0
 21
202
  0
LINE
  8
0
 10
0
 20
202
 11
192
 21
202
  0
LINE
  8
0
 10
192
 20
202
 11
192
 21
241
  0
LINE
  8
0
 10
53
 20
211.5
 11
52.8429
 21
211.502
  0
LINE
  8
0
 10
52.8429
 20
211.502
 11
52.686
 21
211.51
  0
LINE
  8
0
 10
52.686
 20
211.51
 11
52.5294
 21
211.522
  0
LINE
  8
0
 10
52.5294
 20
211.522
 11
52.3733
 21
211.539
  0
LINE
  8
0
 10
52.3733
 20
211.539
 11
52.2178
 21
211.562
  0
LINE
  8
0
 10
52.2178
 20
211.562
 11
52.0631
 21
211.589
  0
LINE
  8
0
 10
52.0631
 20
211.589
 11
51.9093
 21
211.62
  0
LINE
  8
0
 10
51.9093
 20
211.62
 11
51.7565
 21
211.657
  0
LINE
  8
0
 10
51.7565
 20
211.657
 11
51.605
 21
211.699
  0
LINE
  8
0
 10
51.605
 20
211.699
 11
51.4549
 21
211.745
  0
LINE
  8
0
 10
51.4549
 20
211.745
 11
51.3063
 21
211.796
  0
LINE
  8
0
 10
51.3063
 20
211.796
 11
51.1594
 21
211.851
  0
LINE
  8
0
 10
51.1594
 20
211.851
 11
51.0143
 21
211.911
  0
LINE
  8
0
 10
51.0143
 20
211.911
 11
50.8711
 21
211.976
  0
LINE
  8
0
 10
50.8711
 20
211.976
 11
50.73
 21
212.045
  0
LINE
  8
0
 10
50.73
 20
212.045
 11
50.5912
 21
212.118
  0
LINE
  8
0
 10
50.5912
 20
212.118
 11
50.4548
 21
212.196
  0
LINE
  8
0
 10
50.4548
 20
212.196
 11
50.3209
 21
212.278
  0
LINE
  8
0
 10
50.3209
 20
212.278
 11
50.1896
 21
212.365
  0
LINE
  8
0
 10
50.1896
 20
212.365
 11
50.0611
 21
212.455
  0
LINE
  8
0
 10
50.0611
 20
212.455
 11
49.9355
 21
212.549
  0
LINE
  8
0
 10
49.9355
 20
212.549
 11
49.8129
 21
212.647
  0
LINE
  8
0
 10
49.8129
 20
212.647
 11
49.6934
 21
212.749
  0
LINE
  8
0
 10
49.6934
 20
212.749
 11
49.5773
 21
212.855
  0
LINE
  8
0
 10
49.5773
 20
212.855
 11
49.4645
 21
212.964
  0
LINE
  8
0
 10
49.4645
 20
212.964
 11
49.3551
 21
213.077
  0
LINE
  8
0
 10
49.3551
 20
213.077
 11
49.2494
 21
213.193
  0
LINE
  8
0
 10
49.2494
 20
213.193
 11
49.1474
 21
213.313
  0
LINE
  8
0
 10
49.1474
 20
213.313
 11
49.0492
 21
213.435
  0
LINE
  8
0
 10
49.0492
 20
213.435
 11
48.9549
 21
213.561
  0
LINE
  8
0
 10
48.9549
 20
213.561
 11
48.8646
 21
213.69
  0
LINE
  8
0
 10
48.8646
 20
213.69
 11
48.7784
 21
213.821
  0
LINE
  8
0
 10
48.7784
 20
213.821
 11
48.6963
 21
213.955
  0
LINE
  8
0
 10
48.6963
 20
213.955
 11
48.6185
 21
214.091
  0
LINE
  8
0
 10
48.6185
 20
214.091
 11
48.545
 21
214.23
  0
LINE
  8
0
 10
48.545
 20
214.23
 11
48.4759
 21
214.371
  0
LINE
  8
0
 10
48.4759
 20
214.371
 11
48.4112
 21
214.514
  0
LINE
  8
0
 10
48.4112
 20
214.514
 11
48.3511
 21
214.659
  0
LINE
  8
0
 10
48.3511
 20
214.659
 11
48.2956
 21
214.806
  0
LINE
  8
0
 10
48.2956
 20
214.806
 11
48.2447
 21
214.955
  0
LINE
  8
0
 10
48.2447
 20
214.955
 11
48.1985
 21
215.105
  0
LINE
  8
0
 10
48.1985
 20
215.105
 11
48.1571
 21
215.257
  0
LINE
  8
0
 10
48.1571
 20
215.257
 11
48.1204
 21
215.409
  0
LINE
  8
0
 10
48.1204
 20
215.409
 11
48.0886
 21
215.563
  0
LINE
  8
0
 10
48.0886
 20
215.563
 11
48.0616
 21
215.718
  0
LINE
  8
0
 10
48.0616
 20
215.718
 11
48.0394
 21
215.873
  0
LINE
  8
0
 10
48.0394
 20
215.873
 11
48.0222
 21
216.029
  0
LINE
  8
0
 10
48.0222
 20
216.029
 11
48.0099
 21
216.186
  0
LINE
  8
0
 10
48.0099
 20
216.186
 11
48.0025
 21
216.343
  0
LINE
  8
0
 10
48.0025
 20
216.343
 11
48
 21
216.5
  0
LINE
  8
0
 10
48
 20
216.5
 11
48
 21
233.5
  0
LINE
  8
0
 10
48
 20
233.5
 11
48.0025
 21
233.657
  0
LINE
  8
0
 10
48.0025
 20
233.657
 11
48.0099
 21
233.814
  0
LINE
  8
0
 10
48.0099
 20
233.814
 11
48.0222
 21
233.971
  0
LINE
  8
0
 10
48.0222
 20
233.971
 11
48.0394
 21
234.127
  0
LINE
  8
0
 10
48.0394
 20
234.127
 11
48.0616
 21
234.282
  0
LINE
  8
0
 10
48.0616
 20
234.282
 11
48.0886
 21
234.437
  0
LINE
  8
0
 10
48.0886
 20
234.437
 11
48.1204
 21
234.591
  0
LINE
  8
0
 10
48.1204
 20
234.591
 11
48.1571
 21
234.743
  0
LINE
  8
0
 10
48.1571
 20
234.743
 11
48.1985
 21
234.895
  0
LINE
  8
0
 10
48.1985
 20
234.895
 11
48.2447
 21
235.045
  0
LINE
  8
0
 10
48.2447
 20
235.045
 11
48.2956
 21
235.194
  0
LINE
  8
0
 10
48.2956
 20
235.194
 11
48.3511
 21
235.341
  0
LINE
  8
0
 10
48.3511
 20
235.341
 11
48.4112
 21
235.486
  0
LINE
  8
0
 10
48.4112
 20
235.486
 11
48.4759
 21
235.629
  0
LINE
  8
0
 10
48.4759
 20
235.629
 11
48.545
 21
235.77
  0
LINE
  8
0
 10
48.545
 20
235.77
 11
48.6185
 21
235.909
  0
LINE
  8
0
 10
48.6185
 20
235.909
 11
48.6963
 21
236.045
  0
LINE
  8
0
 10
48.6963
 20
236.045
 11
48.7784
 21
236.179
  0
LINE
  8
0
 10
48.7784
 20
236.179
 11
48.8646
 21
236.31
  0
LINE
  8
0
 10
48.8646
 20
236.31
 11
48.9549
 21
236.439
  0
LINE
  8
0
 10
48.9549
 20
236.439
 11
49.0492
 21
236.565
  0
LINE
  8
0
 10
49.0492
 20
236.565
 11
49.1474
 21
236.687
  0
LINE
  8
0
 10
49.1474
 20
236.687
 11
49.2494
 21
236.807
  0
LINE
  8
0
 10
49.2494
 20
236.807
 11
49.3551
 21
236.923
  0
LINE
  8
0
 10
49.3551
 20
236.923
 11
49.4645
 21
237.036
  0
LINE
  8
0
 10
49.4645
 20
237.036
 11
49.5773
 21
237.145
  0
LINE
  8
0
 10
49.5773
 20
237.145
 11
49.6934
 21
237.251
  0
LINE
  8
0
 10
49.6934
 20
237.251
 11
49.8129
 21
237.353
  0
LINE
  8
0
 10
49.8129
 20
237.353
 11
49.9355
 21
237.451
  0
LINE
  8
0
 10
49.9355
 20
237.451
 11
50.0611
 21
237.545
  0
LINE
  8
0
 10
50.0611
 20
237.545
 11
50.1896
 21
237.635
  0
LINE
  8
0
 10
50.1896
 20
237.635
 11
50.3209
 21
237.722
  0
LINE
  8
0
 10
50.3209
 20
237.722
 11
50.4548
 21
237.804
  0
LINE
  8
0
 10
50.4548
 20
237.804
 11
50.5912
 21
237.882
  0
LINE
  8
0
 10
50.5912
 20
237.882
 11
50.73
 21
237.955
  0
LINE
  8
0
 10
50.73
 20
237.955
 11
50.8711
 21
238.024
  0
LINE
  8
0
 10
50.8711
 20
238.024
 11
51.0143
 21
238.089
  0
LINE
  8
0
 10
51.0143
 20
238.089
 11
51.1594
 21
238.149
  0
LINE
  8
0
 10
51.1594
 20
238.149
 11
51.3063
 21
238.204
  0
LINE
  8
0
 10
51.3063
 20
238.204
 11
51.4549
 21
238.255
  0
LINE
  8
0
 10
51.4549
 20
238.255
 11
51.605
 21
238.301
  0
LINE
  8
0
 10
51.605
 20
238.301
 11
51.7565
 21
238.343
  0
LINE
  8
0
 10
51.7565
 20
238.343
 11
51.9093
 21
238.38
  0
LINE
  8
0
 10
51.9093
 20
238.38
 11
52.0631
 21
238.411
  0
LINE
  8
0
 10
52.0631
 20
238.411
 11
52.2178
 21
238.438
  0
LINE
  8
0
 10
52.2178
 20
238.438
 11
52.3733
 21
238.461
  0
LINE
  8
0
 10
52.3733
 20
238.461
 11
52.5294
 21
238.478
  0
LINE
  8
0
 10
52.5294
 20
238.478
 11
52.686
 21
238.49
  0
LINE
  8
0
 10
52.686
 20
238.49
 11
52.8429
 21
238.498
  0
LINE
  8
0
 10
52.8429
 20
238.498
 11
53
 21
238.5
  0
LINE
  8
0
 10
53
 20
238.5
 11
139
 21
238.5
  0
LINE
  8
0
 10
139
 20
238.5
 11
139.157
 21
238.498
  0
LINE
  8
0
 10
139.157
 20
238.498
 11
139.314
 21
238.49
  0
LINE
  8
0
 10
139.314
 20
238.49
 11
139.471
 21
238.478
  0
LINE
  8
0
 10
139.471
 20
238.478
 11
139.627
 21
238.461
  0
LINE
  8
0
 10
139.627
 20
238.461
 11
139.782
 21
238.438
  0
LINE
  8
0
 10
139.782
 20
238.438
 11
139.937
 21
238.411
  0
LINE
  8
0
 10
139.937
 20
238.411
 11
140.091
 21
238.38
  0
LINE
  8
0
 10
140.091
 20
238.38
 11
140.243
 21
238.343
  0
LINE
  8
0
 10
140.243
 20
238.343
 11
140.395
 21
238.301
  0
LINE
  8
0
 10
140.395
 20
238.301
 11
140.545
 21
238.255
  0
LINE
  8
0
 10
140.545
 20
238.255
 11
140.694
 21
238.204
  0
LINE
  8
0
 10
140.694
 20
238.204
 11
140.841
 21
238.149
  0
LINE
  8
0
 10
140.841
 20
238.149
 11
140.986
 21
238.089
  0
LINE
  8
0
 10
140.986
 20
238.089
 11
141.129
 21
238.024
  0
LINE
  8
0
 10
141.129
 20
238.024
 11
141.27
 21
237.955
  0
LINE
  8
0
 10
141.27
 20
237.955
 11
141.409
 21
237.882
  0
LINE
  8
0
 10
141.409
 20
237.882
 11
141.545
 21
237.804
  0
LINE
  8
0
 10
141.545
 20
237.804
 11
141.679
 21
237.722
  0
LINE
  8
0
 10
141.679
 20
237.722
 11
141.81
 21
237.635
  0
LINE
  8
0
 10
141.81
 20
237.635
 11
141.939
 21
237.545
  0
LINE
  8
0
 10
141.939
 20
237.545
 11
142.065
 21
237.451
  0
LINE
  8
0
 10
142.065
 20
237.451
 11
142.187
 21
237.353
  0
LINE
  8
0
 10
142.187
 20
237.353
 11
142.307
 21
237.251
  0
LINE
  8
0
 10
142.307
 20
237.251
 11
142.423
 21
237.145
  0
LINE
  8
0
 10
142.423
 20
237.145
 11
142.536
 21
237.036
  0
LINE
  8
0
 10
142.536
 20
237.036
 11
142.645
 21
236.923
  0
LINE
  8
0
 10
142.645
 20
236.923
 11
142.751
 21
236.807
  0
LINE
  8
0
 10
142.751
 20
236.807
 11
142.853
 21
236.687
  0
LINE
  8
0
 10
142.853
 20
236.687
 11
142.951
 21
236.565
  0
LINE
  8
0
 10
142.951
 20
236.565
 11
143.045
 21
236.439
  0
LINE
  8
0
 10
143.045
 20
236.439
 11
143.135
 21
236.31
  0
LINE
  8
0
 10
143.135
 20
236.31
 11
143.222
 21
236.179
  0
LINE
  8
0
 10
143.222
 20
236.179
 11
143.304
 21
236.045
  0
LINE
  8
0
 10
143.304
 20
236.045
 11
143.382
 21
235.909
  0
LINE
  8
0
 10
143.382
 20
235.909
 11
143.455
 21
235.77
  0
LINE
  8
0
 10
143.455
 20
235.77
 11
143.524
 21
235.629
  0
LINE
  8
0
 10
143.524
 20
235.629
 11
143.589
 21
235.486
  0
LINE
  8
0
 10
143.589
 20
235.486
 11
143.649
 21
235.341
  0
LINE
  8
0
 10
143.649
 20
235.341
 11
143.704
 21
235.194
  0
LINE
  8
0
 10
143.704
 20
235.194
 11
143.755
 21
235.045
  0
LINE
  8
0
 10
143.755
 20
235.045
 11
143.801
 21
234.895
  0
LINE
  8
0
 10
143.801
 20
234.895
 11
143.843
 21
234.743
  0
LINE
  8
0
 10
143.843
 20
234.743
 11
143.88
 21
234.591
  0
LINE
  8
0
 10
143.88
 20
234.591
 11
143.911
 21
234.437
  0
LINE
  8
0
 10
143.911
 20
234.437
 11
143.938
 21
234.282
  0
LINE
  8
0
 10
143.938
 20
234.282
 11
143.961
 21
234.127
  0
LINE
  8
0
 10
143.961
 20
234.127
 11
143.978
 21
233.971
  0
LINE
  8
0
 10
143.978
 20
233.971
 11
143.99
 21
233.814
  0
LINE
  8
0
 10
143.99
 20
233.814
 11
143.998
 21
233.657
  0
LINE
  8
0
 10
143.998
 20
233.657
 11
144
 21
233.5
  0
LINE
  8
0
 10
144
 20
233.5
 11
144
 21
216.5
  0
LINE
  8
0
 10
144
 20
216.5
 11
143.998
 21
216.343
  0
LINE
  8
0
 10
143.998
 20
216.343
 11
143.99
 21
216.186
  0
LINE
  8
0
 10
143.99
 20
216.186
 11
143.978
 21
216.029
  0
LINE
  8
0
 10
143.978
 20
216.029
 11
143.961
 21
215.873
  0
LINE
  8
0
 10
143.961
 20
215.873
 11
143.938
 21
215.718
  0
LINE
  8
0
 10
143.938
 20
215.718
 11
143.911
 21
215.563
  0
LINE
  8
0
 10
143.911
 20
215.563
 11
143.88
 21
215.409
  0
LINE
  8
0
 10
143.88
 20
215.409
 11
143.843
 21
215.257
  0
LINE
  8
0
 10
143.843
 20
215.257
 11
143.801
 21
215.105
  0
LINE
  8
0
 10
143.801
 20
215.105
 11
143.755
 21
214.955
  0
LINE
  8
0
 10
143.755
 20
214.955
 11
143.704
 21
214.806
  0
LINE
  8
0
 10
143.704
 20
214.806
 11
143.649
 21
214.659
  0
LINE
  8
0
 10
143.649
 20
214.659
 11
143.589
 21
214.514
  0
LINE
  8
0
 10
143.589
 20
214.514
 11
143.524
 21
214.371
  0
LINE
  8
0
 10
143.524
 20
214.371
 11
143.455
 21
214.23
  0
LINE
  8
0
 10
143.455
 20
214.23
 11
143.382
 21
214.091
  0
LINE
  8
0
 10
143.382
 20
214.091
 11
143.304
 21
213.955
  0
LINE
  8
0
 10
143.304
 20
213.955
 11
143.222
 21
213.821
  0
LINE
  8
0
 10
143.222
 20
213.821
 11
143.135
 21
213.69
  0
LINE
  8
0
 10
143.135
 20
213.69
 11
143.045
 21
213.561
  0
LINE
  8
0
 10
143.045
 20
213.561
 11
142.951
 21
213.435
  0
LINE
  8
0
 10
142.951
 20
213.435
 11
142.853
 21
213.313
  0
LINE
  8
0
 10
142.853
 20
213.313
 11
142.751
 21
213.193
  0
LINE
  8
0
 10
142.751
 20
213.193
 11
142.645
 21
213.077
  0
LINE
  8
0
 10
142.645
 20
213.077
 11
142.536
 21
212.964
  0
LINE
  8
0
 10
142.536
 20
212.964
 11
142.423
 21
212.855
  0
LINE
  8
0
 10
142.423
 20
212.855
 11
142.307
 21
212.749
  0
LINE
  8
0
 10
142.307
 20
212.749
 11
142.187
 21
212.647
  0
LINE
  8
0
 10
142.187
 20
212.647
 11
142.065
 21
212.549
  0
LINE
  8
0
 10
142.065
 20
212.549
 11
141.939
 21
212.455
  0
LINE
  8
0
 10
141.939
 20
212.455
 11
141.81
 21
212.365
  0
LINE
  8
0
 10
141.81
 20
212.365
 11
141.679
 21
212.278
  0
LINE
  8
0
 10
141.679
 20
212.278
 11
141.545
 21
212.196
  0
LINE
  8
0
 10
141.545
 20
212.196
 11
141.409
 21
212.118
  0
LINE
  8
0
 10
141.409
 20
212.118
 11
141.27
 21
212.045
  0
LINE
  8
0
 10
141.27
 20
212.045
 11
141.129
 21
211.976
  0
LINE
  8
0
 10
141.129
 20
211.976
 11
140.986
 21
211.911
  0
LINE
  8
0
 10
140.986
 20
211.911
 11
140.841
 21
211.851
  0
LINE
  8
0
 10
140.841
 20
211.851
 11
140.694
 21
211.796
  0
LINE
  8
0
 10
140.694
 20
211.796
 11
140.545
 21
211.745
  0
LINE
  8
0
 10
140.545
 20
211.745
 11
140.395
 21
211.699
  0
LINE
  8
0
 10
140.395
 20
211.699
 11
140.243
 21
211.657
  0
LINE
  8
0
 10
140.243
 20
211.657
 11
140.091
 21
211.62
  0
LINE
  8
0
 10
140.091
 20
211.62
 11
139.937
 21
211.589
  0
LINE
  8
0
 10
139.937
 20
211.589
 11
139.782
 21
211.562
  0
LINE
  8
0
 10
139.782
 20
211.562
 11
139.627
 21
211.539
  0
LINE
  8
0
 10
139.627
 20
211.539
 11
139.471
 21
211.522
  0
LINE
  8
0
 10
139.471
 20
211.522
 11
139.314
 21
211.51
  0
LINE
  8
0
 10
139.314
 20
211.51
 11
139.157
 21
211.502
  0
LINE
  8
0
 10
139.157
 20
211.502
 11
139
 21
211.5
  0
LINE
  8
0
 10
139
 20
211.5
 11
53
 21
211.5
  0
LINE
  8
0
 10
302.973
 20
32.6235
 11
303.055
 21
32.7182
  0
LINE
  8
0
 10
303.055
 20
32.7182
 11
303.135
 21
32.8154
  0
LINE
  8
0
 10
303.135
 20
32.8154
 11
303.211
 21
32.9151
  0
LINE
  8
0
 10
303.211
 20
32.9151
 11
303.285
 21
33.0172
  0
LINE
  8
0
 10
303.285
 20
33.0172
 11
303.355
 21
33.1214
  0
LINE
  8
0
 10
303.355
 20
33.1214
 11
303.421
 21
33.2279
  0
LINE
  8
0
 10
303.421
 20
33.2279
 11
303.485
 21
33.3364
  0
LINE
  8
0
 10
303.485
 20
33.3364
 11
303.545
 21
33.4468
  0
LINE
  8
0
 10
303.545
 20
33.4468
 11
303.601
 21
33.5591
  0
LINE
  8
0
 10
303.601
 20
33.5591
 11
303.654
 21
33.673
  0
LINE
  8
0
 10
303.654
 20
33.673
 11
303.703
 21
33.7886
  0
LINE
  8
0
 10
303.703
 20
33.7886
 11
303.749
 21
33.9057
  0
LINE
  8
0
 10
303.749
 20
33.9057
 11
303.791
 21
34.0242
  0
LINE
  8
0
 10
303.791
 20
34.0242
 11
303.829
 21
34.1439
  0
LINE
  8
0
 10
303.829
 20
34.1439
 11
303.864
 21
34.2647
  0
LINE
  8
0
 10
303.864
 20
34.2647
 11
303.894
 21
34.3866
  0
LINE
  8
0
 10
303.894
 20
34.3866
 11
303.921
 21
34.5094
  0
LINE
  8
0
 10
303.921
 20
34.5094
 11
303.944
 21
34.6329
  0
LINE
  8
0
 10
303.944
 20
34.6329
 11
303.963
 21
34.7571
  0
LINE
  8
0
 10
303.963
 20
34.7571
 11
303.978
 21
34.8819
  0
LINE
  8
0
 10
303.978
 20
34.8819
 11
303.989
 21
35.007
  0
LINE
  8
0
 10
303.989
 20
35.007
 11
303.996
 21
35.1325
  0
LINE
  8
0
 10
303.996
 20
35.1325
 11
304
 21
35.2581
  0
LINE
  8
0
 10
304
 20
35.2581
 11
304
 21
35.3
  0
LINE
  8
0
 10
304
 20
35.3
 11
304
 21
35.3
  0
LINE
  8
0
 10
304
 20
35.3
 11
304
 21
55.3
  0
LINE
  8
0
 10
304
 20
55.3
 11
300
 21
55.3
  0
LINE
  8
0
 10
300
 20
55.3
 11
300
 21
75.3
  0
LINE
  8
0
 10
300
 20
75.3
 11
304
 21
75.3
  0
LINE
  8
0
 10
304
 20
75.3
 11
304
 21
95.3
  0
LINE
  8
0
 10
304
 20
95.3
 11
300
 21
95.3
  0
LINE
  8
0
 10
300
 20
95.3
 11
300
 21
115.3
  0
LINE
  8
0
 10
300
 20
115.3
 11
304
 21
115.3
  0
LINE
  8
0
 10
304
 20
115.3
 11
304
 21
135.3
  0
LINE
  8
0
 10
304
 20
135.3
 11
300
 21
135.3
  0
LINE
  8
0
 10
300
 20
135.3
 11
300
 21
155.3
  0
LINE
  8
0
 10
300
 20
155.3
 11
304
 21
155.3
  0
LINE
  8
0
 10
304
 20
155.3
 11
304
 21
175.3
  0
LINE
  8
0
 10
304
 20
175.3
 11
300
 21
175.3
  0
LINE
  8
0
 10
300
 20
175.3
 11
300
 21
195.3
  0
LINE
  8
0
 10
300
 20
195.3
 11
304
 21
195.3
  0
LINE
  8
0
 10
304
 20
195.3
 11
304
 21
215.3
  0
LINE
  8
0
 10
304
 20
215.3
 11
300
 21
215.3
  0
LINE
  8
0
 10
300
 20
215.3
 11
300
 21
235.3
  0
LINE
  8
0
 10
300
 20
235.3
 11
287
 21
235.3
  0
LINE
  8
0
 10
287
 20
235.3
 11
287
 21
231.3
  0
LINE
  8
0
 10
287
 20
231.3
 11
267
 21
231.3
  0
LINE
  8
0
 10
267
 20
231.3
 11
267
 21
235.3
  0
LINE
  8
0
 10
267
 20
235.3
 11
254
 21
235.3
  0
LINE
  8
0
 10
254
 20
235.3
 11
254
 21
35.3
  0
LINE
  8
0
 10
254
 20
35.3
 11
254.023
 21
33.8551
  0
LINE
  8
0
 10
254.023
 20
33.8551
 11
254.091
 21
32.4116
  0
LINE
  8
0
 10
254.091
 20
32.4116
 11
254.204
 21
30.971
  0
LINE
  8
0
 10
254.204
 20
30.971
 11
254.363
 21
29.5347
  0
LINE
  8
0
 10
254.363
 20
29.5347
 11
254.566
 21
28.104
  0
LINE
  8
0
 10
254.566
 20
28.104
 11
254.815
 21
26.6805
  0
LINE
  8
0
 10
254.815
 20
26.6805
 11
255.108
 21
25.2654
  0
LINE
  8
0
 10
255.108
 20
25.2654
 11
255.445
 21
23.8603
  0
LINE
  8
0
 10
255.445
 20
23.8603
 11
255.826
 21
22.4664
  0
LINE
  8
0
 10
255.826
 20
22.4664
 11
256.251
 21
21.0852
  0
LINE
  8
0
 10
256.251
 20
21.0852
 11
256.719
 21
19.718
  0
LINE
  8
0
 10
256.719
 20
19.718
 11
257.23
 21
18.3663
  0
LINE
  8
0
 10
257.23
 20
18.3663
 11
257.783
 21
17.0312
  0
LINE
  8
0
 10
257.783
 20
17.0312
 11
258.378
 21
15.7141
  0
LINE
  8
0
 10
258.378
 20
15.7141
 11
259.014
 21
14.4164
  0
LINE
  8
0
 10
259.014
 20
14.4164
 11
259.69
 21
13.1393
  0
LINE
  8
0
 10
259.69
 20
13.1393
 11
260.406
 21
11.8841
  0
LINE
  8
0
 10
260.406
 20
11.8841
 11
261.161
 21
10.652
  0
LINE
  8
0
 10
261.161
 20
10.652
 11
261.954
 21
9.44415
  0
LINE
  8
0
 10
261.954
 20
9.44415
 11
262.785
 21
8.26187
  0
LINE
  8
0
 10
262.785
 20
8.26187
 11
263.653
 21
7.10628
  0
LINE
  8
0
 10
263.653
 20
7.10628
 11
264.556
 21
5.97849
  0
LINE
  8
0
 10
264.556
 20
5.97849
 11
265.495
 21
4.87965
  0
LINE
  8
0
 10
265.495
 20
4.87965
 11
266.467
 21
3.81082
  0
LINE
  8
0
 10
266.467
 20
3.81082
 11
267.473
 21
2.77309
  0
LINE
  8
0
 10
267.473
 20
2.77309
 11
268.511
 21
1.76744
  0
LINE
  8
0
 10
268.511
 20
1.76744
 11
269.223
 21
1.11909
  0
LINE
  8
0
 10
269.223
 20
1.11909
 11
269.22
 21
1.11533
  0
LINE
  8
0
 10
269.22
 20
1.11533
 11
272.193
 21
-1.56117
  0
LINE
  8
0
 10
272.193
 20
-1.56117
 11
302.973
 21
32.6235
  0
LINE
  8
0
 10
272.837
 20
3.70395
 11
272.79
 21
3.70665
  0
LINE
  8
0
 10
272.79
 20
3.70665
 11
272.743
 21
3.71085
  0
LINE
  8
0
 10
272.743
 20
3.71085
 11
272.697
 21
3.71651
  0
LINE
  8
0
 10
272.697
 20
3.71651
 11
272.65
 21
3.72363
  0
LINE
  8
0
 10
272.65
 20
3.72363
 11
272.604
 21
3.73222
  0
LINE
  8
0
 10
272.604
 20
3.73222
 11
272.558
 21
3.74226
  0
LINE
  8
0
 10
272.558
 20
3.74226
 11
272.512
 21
3.75374
  0
LINE
  8
0
 10
272.512
 20
3.75374
 11
272.467
 21
3.76665
  0
LINE
  8
0
 10
272.467
 20
3.76665
 11
272.422
 21
3.78098
  0
LINE
  8
0
 10
272.422
 20
3.78098
 11
272.377
 21
3.79671
  0
LINE
  8
0
 10
272.377
 20
3.79671
 11
272.333
 21
3.81383
  0
LINE
  8
0
 10
272.333
 20
3.81383
 11
272.29
 21
3.83231
  0
LINE
  8
0
 10
272.29
 20
3.83231
 11
272.247
 21
3.85214
  0
LINE
  8
0
 10
272.247
 20
3.85214
 11
272.205
 21
3.87332
  0
LINE
  8
0
 10
272.205
 20
3.87332
 11
272.164
 21
3.89581
  0
LINE
  8
0
 10
272.164
 20
3.89581
 11
272.123
 21
3.91959
  0
LINE
  8
0
 10
272.123
 20
3.91959
 11
272.083
 21
3.94463
  0
LINE
  8
0
 10
272.083
 20
3.94463
 11
272.044
 21
3.9709
  0
LINE
  8
0
 10
272.044
 20
3.9709
 11
272.006
 21
3.9984
  0
LINE
  8
0
 10
272.006
 20
3.9984
 11
271.968
 21
4.02708
  0
LINE
  8
0
 10
271.968
 20
4.02708
 11
271.932
 21
4.05693
  0
LINE
  8
0
 10
271.932
 20
4.05693
 11
271.897
 21
4.08791
  0
LINE
  8
0
 10
271.897
 20
4.08791
 11
271.862
 21
4.12
  0
LINE
  8
0
 10
271.862
 20
4.12
 11
271.828
 21
4.15314
  0
LINE
  8
0
 10
271.828
 20
4.15314
 11
271.808
 21
4.17445
  0
LINE
  8
0
 10
271.808
 20
4.17445
 11
271.249
 21
4.68332
  0
LINE
  8
0
 10
271.249
 20
4.68332
 11
270.302
 21
5.60152
  0
LINE
  8
0
 10
270.302
 20
5.60152
 11
269.383
 21
6.54901
  0
LINE
  8
0
 10
269.383
 20
6.54901
 11
268.495
 21
7.5249
  0
LINE
  8
0
 10
268.495
 20
7.5249
 11
267.638
 21
8.52818
  0
LINE
  8
0
 10
267.638
 20
8.52818
 11
266.813
 21
9.55789
  0
LINE
  8
0
 10
266.813
 20
9.55789
 11
266.021
 21
10.613
  0
LINE
  8
0
 10
266.021
 20
10.613
 11
265.263
 21
11.6925
  0
LINE
  8
0
 10
265.263
 20
11.6925
 11
264.538
 21
12.7953
  0
LINE
  8
0
 10
264.538
 20
12.7953
 11
263.849
 21
13.9203
  0
LINE
  8
0
 10
263.849
 20
13.9203
 11
263.195
 21
15.0663
  0
LINE
  8
0
 10
263.195
 20
15.0663
 11
262.578
 21
16.2324
  0
LINE
  8
0
 10
262.578
 20
16.2324
 11
261.997
 21
17.4173
  0
LINE
  8
0
 10
261.997
 20
17.4173
 11
261.454
 21
18.6198
  0
LINE
  8
0
 10
261.454
 20
18.6198
 11
260.949
 21
19.8388
  0
LINE
  8
0
 10
260.949
 20
19.8388
 11
260.483
 21
21.073
  0
LINE
  8
0
 10
260.483
 20
21.073
 11
260.056
 21
22.3213
  0
LINE
  8
0
 10
260.056
 20
22.3213
 11
259.668
 21
23.5824
  0
LINE
  8
0
 10
259.668
 20
23.5824
 11
259.32
 21
24.855
  0
LINE
  8
0
 10
259.32
 20
24.855
 11
259.012
 21
26.138
  0
LINE
  8
0
 10
259.012
 20
26.138
 11
258.744
 21
27.43
  0
LINE
  8
0
 10
258.744
 20
27.43
 11
258.517
 21
28.7298
  0
LINE
  8
0
 10
258.517
 20
28.7298
 11
258.331
 21
30.036
  0
LINE
  8
0
 10
258.331
 20
30.036
 11
258.186
 21
31.3474
  0
LINE
  8
0
 10
258.186
 20
31.3474
 11
258.083
 21
32.6628
  0
LINE
  8
0
 10
258.083
 20
32.6628
 11
258.067
 21
32.9943
  0
LINE
  8
0
 10
258.067
 20
32.9943
 11
258.065
 21
33.008
  0
LINE
  8
0
 10
258.065
 20
33.008
 11
258.061
 21
33.0549
  0
LINE
  8
0
 10
258.061
 20
33.0549
 11
258.058
 21
33.1019
  0
LINE
  8
0
 10
258.058
 20
33.1019
 11
258.056
 21
33.149
  0
LINE
  8
0
 10
258.056
 20
33.149
 11
258.056
 21
33.1961
  0
LINE
  8
0
 10
258.056
 20
33.1961
 11
258.057
 21
33.2432
  0
LINE
  8
0
 10
258.057
 20
33.2432
 11
258.06
 21
33.2903
  0
LINE
  8
0
 10
258.06
 20
33.2903
 11
258.064
 21
33.3372
  0
LINE
  8
0
 10
258.064
 20
33.3372
 11
258.069
 21
33.384
  0
LINE
  8
0
 10
258.069
 20
33.384
 11
258.077
 21
33.4305
  0
LINE
  8
0
 10
258.077
 20
33.4305
 11
258.085
 21
33.4769
  0
LINE
  8
0
 10
258.085
 20
33.4769
 11
258.095
 21
33.5229
  0
LINE
  8
0
 10
258.095
 20
33.5229
 11
258.107
 21
33.5686
  0
LINE
  8
0
 10
258.107
 20
33.5686
 11
258.12
 21
33.6139
  0
LINE
  8
0
 10
258.12
 20
33.6139
 11
258.134
 21
33.6588
  0
LINE
  8
0
 10
258.134
 20
33.6588
 11
258.15
 21
33.7032
  0
LINE
  8
0
 10
258.15
 20
33.7032
 11
258.167
 21
33.7471
  0
LINE
  8
0
 10
258.167
 20
33.7471
 11
258.185
 21
33.7905
  0
LINE
  8
0
 10
258.185
 20
33.7905
 11
258.205
 21
33.8332
  0
LINE
  8
0
 10
258.205
 20
33.8332
 11
258.226
 21
33.8753
  0
LINE
  8
0
 10
258.226
 20
33.8753
 11
258.249
 21
33.9167
  0
LINE
  8
0
 10
258.249
 20
33.9167
 11
258.272
 21
33.9574
  0
LINE
  8
0
 10
258.272
 20
33.9574
 11
258.297
 21
33.9973
  0
LINE
  8
0
 10
258.297
 20
33.9973
 11
258.324
 21
34.0365
  0
LINE
  8
0
 10
258.324
 20
34.0365
 11
258.351
 21
34.0747
  0
LINE
  8
0
 10
258.351
 20
34.0747
 11
258.38
 21
34.1121
  0
LINE
  8
0
 10
258.38
 20
34.1121
 11
258.41
 21
34.1486
  0
LINE
  8
0
 10
258.41
 20
34.1486
 11
258.441
 21
34.1841
  0
LINE
  8
0
 10
258.441
 20
34.1841
 11
258.473
 21
34.2186
  0
LINE
  8
0
 10
258.473
 20
34.2186
 11
258.506
 21
34.2521
  0
LINE
  8
0
 10
258.506
 20
34.2521
 11
258.54
 21
34.2845
  0
LINE
  8
0
 10
258.54
 20
34.2845
 11
258.575
 21
34.3159
  0
LINE
  8
0
 10
258.575
 20
34.3159
 11
258.612
 21
34.3461
  0
LINE
  8
0
 10
258.612
 20
34.3461
 11
258.649
 21
34.3752
  0
LINE
  8
0
 10
258.649
 20
34.3752
 11
258.687
 21
34.4031
  0
LINE
  8
0
 10
258.687
 20
34.4031
 11
258.725
 21
34.4298
  0
LINE
  8
0
 10
258.725
 20
34.4298
 11
258.765
 21
34.4552
  0
LINE
  8
0
 10
258.765
 20
34.4552
 11
258.806
 21
34.4794
  0
LINE
  8
0
 10
258.806
 20
34.4794
 11
258.847
 21
34.5023
  0
LINE
  8
0
 10
258.847
 20
34.5023
 11
258.889
 21
34.524
  0
LINE
  8
0
 10
258.889
 20
34.524
 11
258.931
 21
34.5442
  0
LINE
  8
0
 10
258.931
 20
34.5442
 11
258.974
 21
34.5632
  0
LINE
  8
0
 10
258.974
 20
34.5632
 11
259.018
 21
34.5808
  0
LINE
  8
0
 10
259.018
 20
34.5808
 11
259.062
 21
34.597
  0
LINE
  8
0
 10
259.062
 20
34.597
 11
259.107
 21
34.6118
  0
LINE
  8
0
 10
259.107
 20
34.6118
 11
259.152
 21
34.6251
  0
LINE
  8
0
 10
259.152
 20
34.6251
 11
259.198
 21
34.6371
  0
LINE
  8
0
 10
259.198
 20
34.6371
 11
259.244
 21
34.6476
  0
LINE
  8
0
 10
259.244
 20
34.6476
 11
259.29
 21
34.6567
  0
LINE
  8
0
 10
259.29
 20
34.6567
 11
259.336
 21
34.6643
  0
LINE
  8
0
 10
259.336
 20
34.6643
 11
259.383
 21
34.6704
  0
LINE
  8
0
 10
259.383
 20
34.6704
 11
259.43
 21
34.6751
  0
LINE
  8
0
 10
259.43
 20
34.6751
 11
259.477
 21
34.6783
  0
LINE
  8
0
 10
259.477
 20
34.6783
 11
259.524
 21
34.6801
  0
LINE
  8
0
 10
259.524
 20
34.6801
 11
259.571
 21
34.6803
  0
LINE
  8
0
 10
259.571
 20
34.6803
 11
259.618
 21
34.6791
  0
LINE
  8
0
 10
259.618
 20
34.6791
 11
259.665
 21
34.6764
  0
LINE
  8
0
 10
259.665
 20
34.6764
 11
259.712
 21
34.6722
  0
LINE
  8
0
 10
259.712
 20
34.6722
 11
259.759
 21
34.6665
  0
LINE
  8
0
 10
259.759
 20
34.6665
 11
259.806
 21
34.6594
  0
LINE
  8
0
 10
259.806
 20
34.6594
 11
259.852
 21
34.6508
  0
LINE
  8
0
 10
259.852
 20
34.6508
 11
259.898
 21
34.6408
  0
LINE
  8
0
 10
259.898
 20
34.6408
 11
259.944
 21
34.6293
  0
LINE
  8
0
 10
259.944
 20
34.6293
 11
259.989
 21
34.6164
  0
LINE
  8
0
 10
259.989
 20
34.6164
 11
260.034
 21
34.602
  0
LINE
  8
0
 10
260.034
 20
34.602
 11
260.078
 21
34.5863
  0
LINE
  8
0
 10
260.078
 20
34.5863
 11
260.122
 21
34.5692
  0
LINE
  8
0
 10
260.122
 20
34.5692
 11
260.166
 21
34.5507
  0
LINE
  8
0
 10
260.166
 20
34.5507
 11
260.208
 21
34.5309
  0
LINE
  8
0
 10
260.208
 20
34.5309
 11
260.25
 21
34.5097
  0
LINE
  8
0
 10
260.25
 20
34.5097
 11
260.292
 21
34.4872
  0
LINE
  8
0
 10
260.292
 20
34.4872
 11
260.333
 21
34.4634
  0
LINE
  8
0
 10
260.333
 20
34.4634
 11
260.372
 21
34.4384
  0
LINE
  8
0
 10
260.372
 20
34.4384
 11
260.412
 21
34.4121
  0
LINE
  8
0
 10
260.412
 20
34.4121
 11
260.45
 21
34.3846
  0
LINE
  8
0
 10
260.45
 20
34.3846
 11
260.487
 21
34.3559
  0
LINE
  8
0
 10
260.487
 20
34.3559
 11
260.524
 21
34.3261
  0
LINE
  8
0
 10
260.524
 20
34.3261
 11
260.559
 21
34.2951
  0
LINE
  8
0
 10
260.559
 20
34.2951
 11
260.594
 21
34.263
  0
LINE
  8
0
 10
260.594
 20
34.263
 11
260.627
 21
34.2299
  0
LINE
  8
0
 10
260.627
 20
34.2299
 11
260.66
 21
34.1957
  0
LINE
  8
0
 10
260.66
 20
34.1957
 11
260.691
 21
34.1605
  0
LINE
  8
0
 10
260.691
 20
34.1605
 11
260.721
 21
34.1244
  0
LINE
  8
0
 10
260.721
 20
34.1244
 11
260.75
 21
34.0873
  0
LINE
  8
0
 10
260.75
 20
34.0873
 11
260.778
 21
34.0493
  0
LINE
  8
0
 10
260.778
 20
34.0493
 11
260.805
 21
34.0105
  0
LINE
  8
0
 10
260.805
 20
34.0105
 11
260.83
 21
33.9708
  0
LINE
  8
0
 10
260.83
 20
33.9708
 11
260.855
 21
33.9304
  0
LINE
  8
0
 10
260.855
 20
33.9304
 11
260.877
 21
33.8892
  0
LINE
  8
0
 10
260.877
 20
33.8892
 11
260.899
 21
33.8473
  0
LINE
  8
0
 10
260.899
 20
33.8473
 11
260.919
 21
33.8048
  0
LINE
  8
0
 10
260.919
 20
33.8048
 11
260.938
 21
33.7617
  0
LINE
  8
0
 10
260.938
 20
33.7617
 11
260.956
 21
33.7179
  0
LINE
  8
0
 10
260.956
 20
33.7179
 11
260.972
 21
33.6737
  0
LINE
  8
0
 10
260.972
 20
33.6737
 11
260.987
 21
33.629
  0
LINE
  8
0
 10
260.987
 20
33.629
 11
261
 21
33.5838
  0
LINE
  8
0
 10
261
 20
33.5838
 11
261.012
 21
33.5382
  0
LINE
  8
0
 10
261.012
 20
33.5382
 11
261.023
 21
33.4922
  0
LINE
  8
0
 10
261.023
 20
33.4922
 11
261.032
 21
33.446
  0
LINE
  8
0
 10
261.032
 20
33.446
 11
261.039
 21
33.3995
  0
LINE
  8
0
 10
261.039
 20
33.3995
 11
261.046
 21
33.3528
  0
LINE
  8
0
 10
261.046
 20
33.3528
 11
261.05
 21
33.3059
  0
LINE
  8
0
 10
261.05
 20
33.3059
 11
261.053
 21
33.2589
  0
LINE
  8
0
 10
261.053
 20
33.2589
 11
261.058
 21
33.2591
  0
LINE
  8
0
 10
261.058
 20
33.2591
 11
261.077
 21
32.8512
  0
LINE
  8
0
 10
261.077
 20
32.8512
 11
261.173
 21
31.6298
  0
LINE
  8
0
 10
261.173
 20
31.6298
 11
261.308
 21
30.412
  0
LINE
  8
0
 10
261.308
 20
30.412
 11
261.48
 21
29.1991
  0
LINE
  8
0
 10
261.48
 20
29.1991
 11
261.691
 21
27.9921
  0
LINE
  8
0
 10
261.691
 20
27.9921
 11
261.939
 21
26.7924
  0
LINE
  8
0
 10
261.939
 20
26.7924
 11
262.225
 21
25.6011
  0
LINE
  8
0
 10
262.225
 20
25.6011
 11
262.549
 21
24.4193
  0
LINE
  8
0
 10
262.549
 20
24.4193
 11
262.909
 21
23.2483
  0
LINE
  8
0
 10
262.909
 20
23.2483
 11
263.306
 21
22.0892
  0
LINE
  8
0
 10
263.306
 20
22.0892
 11
263.739
 21
20.9431
  0
LINE
  8
0
 10
263.739
 20
20.9431
 11
264.208
 21
19.8112
  0
LINE
  8
0
 10
264.208
 20
19.8112
 11
264.712
 21
18.6946
  0
LINE
  8
0
 10
264.712
 20
18.6946
 11
265.251
 21
17.5944
  0
LINE
  8
0
 10
265.251
 20
17.5944
 11
265.824
 21
16.5116
  0
LINE
  8
0
 10
265.824
 20
16.5116
 11
266.431
 21
15.4474
  0
LINE
  8
0
 10
266.431
 20
15.4474
 11
267.071
 21
14.4028
  0
LINE
  8
0
 10
267.071
 20
14.4028
 11
267.744
 21
13.3787
  0
LINE
  8
0
 10
267.744
 20
13.3787
 11
268.448
 21
12.3764
  0
LINE
  8
0
 10
268.448
 20
12.3764
 11
269.184
 21
11.3966
  0
LINE
  8
0
 10
269.184
 20
11.3966
 11
269.95
 21
10.4405
  0
LINE
  8
0
 10
269.95
 20
10.4405
 11
270.746
 21
9.50883
  0
LINE
  8
0
 10
270.746
 20
9.50883
 11
271.57
 21
8.60266
  0
LINE
  8
0
 10
271.57
 20
8.60266
 11
272.423
 21
7.72282
  0
LINE
  8
0
 10
272.423
 20
7.72282
 11
273.303
 21
6.87022
  0
LINE
  8
0
 10
273.303
 20
6.87022
 11
273.907
 21
6.32054
  0
LINE
  8
0
 10
273.907
 20
6.32054
 11
273.904
 21
6.31735
  0
LINE
  8
0
 10
273.904
 20
6.31735
 11
273.938
 21
6.28526
  0
LINE
  8
0
 10
273.938
 20
6.28526
 11
273.972
 21
6.25212
  0
LINE
  8
0
 10
273.972
 20
6.25212
 11
274.004
 21
6.21794
  0
LINE
  8
0
 10
274.004
 20
6.21794
 11
274.036
 21
6.18275
  0
LINE
  8
0
 10
274.036
 20
6.18275
 11
274.066
 21
6.14661
  0
LINE
  8
0
 10
274.066
 20
6.14661
 11
274.095
 21
6.10953
  0
LINE
  8
0
 10
274.095
 20
6.10953
 11
274.123
 21
6.07155
  0
LINE
  8
0
 10
274.123
 20
6.07155
 11
274.15
 21
6.03271
  0
LINE
  8
0
 10
274.15
 20
6.03271
 11
274.175
 21
5.99306
  0
LINE
  8
0
 10
274.175
 20
5.99306
 11
274.199
 21
5.95262
  0
LINE
  8
0
 10
274.199
 20
5.95262
 11
274.222
 21
5.91145
  0
LINE
  8
0
 10
274.222
 20
5.91145
 11
274.244
 21
5.86958
  0
LINE
  8
0
 10
274.244
 20
5.86958
 11
274.264
 21
5.82706
  0
LINE
  8
0
 10
274.264
 20
5.82706
 11
274.283
 21
5.78391
  0
LINE
  8
0
 10
274.283
 20
5.78391
 11
274.301
 21
5.74017
  0
LINE
  8
0
 10
274.301
 20
5.74017
 11
274.317
 21
5.69592
  0
LINE
  8
0
 10
274.317
 20
5.69592
 11
274.332
 21
5.65118
  0
LINE
  8
0
 10
274.332
 20
5.65118
 11
274.345
 21
5.606
  0
LINE
  8
0
 10
274.345
 20
5.606
 11
274.357
 21
5.56042
  0
LINE
  8
0
 10
274.357
 20
5.56042
 11
274.367
 21
5.5145
  0
LINE
  8
0
 10
274.367
 20
5.5145
 11
274.376
 21
5.46826
  0
LINE
  8
0
 10
274.376
 20
5.46826
 11
274.384
 21
5.42175
  0
LINE
  8
0
 10
274.384
 20
5.42175
 11
274.39
 21
5.37503
  0
LINE
  8
0
 10
274.39
 20
5.37503
 11
274.395
 21
5.32814
  0
LINE
  8
0
 10
274.395
 20
5.32814
 11
274.398
 21
5.28113
  0
LINE
  8
0
 10
274.398
 20
5.28113
 11
274.4
 21
5.23404
  0
LINE
  8
0
 10
274.4
 20
5.23404
 11
274.4
 21
5.18692
  0
LINE
  8
0
 10
274.4
 20
5.18692
 11
274.399
 21
5.13982
  0
LINE
  8
0
 10
274.399
 20
5.13982
 11
274.396
 21
5.09277
  0
LINE
  8
0
 10
274.396
 20
5.09277
 11
274.392
 21
5.04584
  0
LINE
  8
0
 10
274.392
 20
5.04584
 11
274.386
 21
4.99905
  0
LINE
  8
0
 10
274.386
 20
4.99905
 11
274.379
 21
4.95247
  0
LINE
  8
0
 10
274.379
 20
4.95247
 11
274.371
 21
4.90614
  0
LINE
  8
0
 10
274.371
 20
4.90614
 11
274.361
 21
4.86011
  0
LINE
  8
0
 10
274.361
 20
4.86011
 11
274.349
 21
4.81439
  0
LINE
  8
0
 10
274.349
 20
4.81439
 11
274.336
 21
4.76907
  0
LINE
  8
0
 10
274.336
 20
4.76907
 11
274.322
 21
4.72418
  0
LINE
  8
0
 10
274.322
 20
4.72418
 11
274.306
 21
4.67976
  0
LINE
  8
0
 10
274.306
 20
4.67976
 11
274.289
 21
4.63586
  0
LINE
  8
0
 10
274.289
 20
4.63586
 11
274.271
 21
4.59253
  0
LINE
  8
0
 10
274.271
 20
4.59253
 11
274.251
 21
4.54977
  0
LINE
  8
0
 10
274.251
 20
4.54977
 11
274.23
 21
4.50769
  0
LINE
  8
0
 10
274.23
 20
4.50769
 11
274.207
 21
4.46628
  0
LINE
  8
0
 10
274.207
 20
4.46628
 11
274.183
 21
4.42558
  0
LINE
  8
0
 10
274.183
 20
4.42558
 11
274.158
 21
4.38567
  0
LINE
  8
0
 10
274.158
 20
4.38567
 11
274.132
 21
4.34656
  0
LINE
  8
0
 10
274.132
 20
4.34656
 11
274.104
 21
4.30829
  0
LINE
  8
0
 10
274.104
 20
4.30829
 11
274.076
 21
4.2709
  0
LINE
  8
0
 10
274.076
 20
4.2709
 11
274.046
 21
4.23444
  0
LINE
  8
0
 10
274.046
 20
4.23444
 11
274.015
 21
4.19893
  0
LINE
  8
0
 10
274.015
 20
4.19893
 11
273.983
 21
4.16441
  0
LINE
  8
0
 10
273.983
 20
4.16441
 11
273.95
 21
4.13092
  0
LINE
  8
0
 10
273.95
 20
4.13092
 11
273.916
 21
4.09848
  0
LINE
  8
0
 10
273.916
 20
4.09848
 11
273.88
 21
4.06714
  0
LINE
  8
0
 10
273.88
 20
4.06714
 11
273.844
 21
4.03691
  0
LINE
  8
0
 10
273.844
 20
4.03691
 11
273.807
 21
4.00783
  0
LINE
  8
0
 10
273.807
 20
4.00783
 11
273.769
 21
3.97993
  0
LINE
  8
0
 10
273.769
 20
3.97993
 11
273.73
 21
3.95325
  0
LINE
  8
0
 10
273.73
 20
3.95325
 11
273.691
 21
3.9278
  0
LINE
  8
0
 10
273.691
 20
3.9278
 11
273.65
 21
3.90359
  0
LINE
  8
0
 10
273.65
 20
3.90359
 11
273.609
 21
3.88068
  0
LINE
  8
0
 10
273.609
 20
3.88068
 11
273.567
 21
3.85905
  0
LINE
  8
0
 10
273.567
 20
3.85905
 11
273.525
 21
3.83878
  0
LINE
  8
0
 10
273.525
 20
3.83878
 11
273.481
 21
3.81984
  0
LINE
  8
0
 10
273.481
 20
3.81984
 11
273.438
 21
3.80226
  0
LINE
  8
0
 10
273.438
 20
3.80226
 11
273.394
 21
3.78606
  0
LINE
  8
0
 10
273.394
 20
3.78606
 11
273.349
 21
3.77127
  0
LINE
  8
0
 10
273.349
 20
3.77127
 11
273.304
 21
3.75789
  0
LINE
  8
0
 10
273.304
 20
3.75789
 11
273.258
 21
3.74593
  0
LINE
  8
0
 10
273.258
 20
3.74593
 11
273.212
 21
3.73541
  0
LINE
  8
0
 10
273.212
 20
3.73541
 11
273.166
 21
3.72633
  0
LINE
  8
0
 10
273.166
 20
3.72633
 11
273.119
 21
3.71872
  0
LINE
  8
0
 10
273.119
 20
3.71872
 11
273.073
 21
3.71257
  0
LINE
  8
0
 10
273.073
 20
3.71257
 11
273.026
 21
3.70789
  0
LINE
  8
0
 10
273.026
 20
3.70789
 11
272.979
 21
3.70468
  0
LINE
  8
0
 10
272.979
 20
3.70468
 11
272.932
 21
3.70296
  0
LINE
  8
0
 10
272.932
 20
3.70296
 11
272.884
 21
3.70271
  0
LINE
  8
0
 10
272.884
 20
3.70271
 11
272.837
 21
3.70395
  0
LINE
  8
0
 10
250.973
 20
32.6235
 11
251.055
 21
32.7182
  0
LINE
  8
0
 10
251.055
 20
32.7182
 11
251.135
 21
32.8154
  0
LINE
  8
0
 10
251.135
 20
32.8154
 11
251.211
 21
32.9151
  0
LINE
  8
0
 10
251.211
 20
32.9151
 11
251.285
 21
33.0172
  0
LINE
  8
0
 10
251.285
 20
33.0172
 11
251.355
 21
33.1214
  0
LINE
  8
0
 10
251.355
 20
33.1214
 11
251.421
 21
33.2279
  0
LINE
  8
0
 10
251.421
 20
33.2279
 11
251.485
 21
33.3364
  0
LINE
  8
0
 10
251.485
 20
33.3364
 11
251.545
 21
33.4468
  0
LINE
  8
0
 10
251.545
 20
33.4468
 11
251.601
 21
33.5591
  0
LINE
  8
0
 10
251.601
 20
33.5591
 11
251.654
 21
33.673
  0
LINE
  8
0
 10
251.654
 20
33.673
 11
251.703
 21
33.7886
  0
LINE
  8
0
 10
251.703
 20
33.7886
 11
251.749
 21
33.9057
  0
LINE
  8
0
 10
251.749
 20
33.9057
 11
251.791
 21
34.0242
  0
LINE
  8
0
 10
251.791
 20
34.0242
 11
251.829
 21
34.1439
  0
LINE
  8
0
 10
251.829
 20
34.1439
 11
251.864
 21
34.2647
  0
LINE
  8
0
 10
251.864
 20
34.2647
 11
251.894
 21
34.3866
  0
LINE
  8
0
 10
251.894
 20
34.3866
 11
251.921
 21
34.5094
  0
LINE
  8
0
 10
251.921
 20
34.5094
 11
251.944
 21
34.6329
  0
LINE
  8
0
 10
251.944
 20
34.6329
 11
251.963
 21
34.7571
  0
LINE
  8
0
 10
251.963
 20
34.7571
 11
251.978
 21
34.8819
  0
LINE
  8
0
 10
251.978
 20
34.8819
 11
251.989
 21
35.007
  0
LINE
  8
0
 10
251.989
 20
35.007
 11
251.996
 21
35.1325
  0
LINE
  8
0
 10
251.996
 20
35.1325
 11
252
 21
35.2581
  0
LINE
  8
0
 10
252
 20
35.2581
 11
252
 21
35.3
  0
LINE
  8
0
 10
252
 20
35.3
 11
252
 21
35.3
  0
LINE
  8
0
 10
252
 20
35.3
 11
252
 21
55.3
  0
LINE
  8
0
 10
252
 20
55.3
 11
248
 21
55.3
  0
LINE
  8
0
 10
248
 20
55.3
 11
248
 21
75.3
  0
LINE
  8
0
 10
248
 20
75.3
 11
252
 21
75.3
  0
LINE
  8
0
 10
252
 20
75.3
 11
252
 21
95.3
  0
LINE
  8
0
 10
252
 20
95.3
 11
248
 21
95.3
  0
LINE
  8
0
 10
248
 20
95.3
 11
248
 21
115.3
  0
LINE
  8
0
 10
248
 20
115.3
 11
252
 21
115.3
  0
LINE
  8
0
 10
252
 20
115.3
 11
252
 21
135.3
  0
LINE
  8
0
 10
252
 20
135.3
 11
248
 21
135.3
  0
LINE
  8
0
 10
248
 20
135.3
 11
248
 21
155.3
  0
LINE
  8
0
 10
248
 20
155.3
 11
252
 21
155.3
  0
LINE
  8
0
 10
252
 20
155.3
 11
252
 21
175.3
  0
LINE
  8
0
 10
252
 20
175.3
 11
248
 21
175.3
  0
LINE
  8
0
 10
248
 20
175.3
 11
248
 21
195.3
  0
LINE
  8
0
 10
248
 20
195.3
 11
252
 21
195.3
  0
LINE
  8
0
 10
252
 20
195.3
 11
252
 21
215.3
  0
LINE
  8
0
 10
252
 20
215.3
 11
248
 21
215.3
  0
LINE
  8
0
 10
248
 20
215.3
 11
248
 21
235.3
  0
LINE
  8
0
 10
248
 20
235.3
 11
235
 21
235.3
  0
LINE
  8
0
 10
235
 20
235.3
 11
235
 21
231.3
  0
LINE
  8
0
 10
235
 20
231.3
 11
215
 21
231.3
  0
LINE
  8
0
 10
215
 20
231.3
 11
215
 21
235.3
  0
LINE
  8
0
 10
215
 20
235.3
 11
202
 21
235.3
  0
LINE
  8
0
 10
202
 20
235.3
 11
202
 21
35.3
  0
LINE
  8
0
 10
202
 20
35.3
 11
202.023
 21
33.8551
  0
LINE
  8
0
 10
202.023
 20
33.8551
 11
202.091
 21
32.4116
  0
LINE
  8
0
 10
202.091
 20
32.4116
 11
202.204
 21
30.971
  0
LINE
  8
0
 10
202.204
 20
30.971
 11
202.363
 21
29.5347
  0
LINE
  8
0
 10
202.363
 20
29.5347
 11
202.566
 21
28.104
  0
LINE
  8
0
 10
202.566
 20
28.104
 11
202.815
 21
26.6805
  0
LINE
  8
0
 10
202.815
 20
26.6805
 11
203.108
 21
25.2654
  0
LINE
  8
0
 10
203.108
 20
25.2654
 11
203.445
 21
23.8603
  0
LINE
  8
0
 10
203.445
 20
23.8603
 11
203.826
 21
22.4664
  0
LINE
  8
0
 10
203.826
 20
22.4664
 11
204.251
 21
21.0852
  0
LINE
  8
0
 10
204.251
 20
21.0852
 11
204.719
 21
19.718
  0
LINE
  8
0
 10
204.719
 20
19.718
 11
205.23
 21
18.3663
  0
LINE
  8
0
 10
205.23
 20
18.3663
 11
205.783
 21
17.0312
  0
LINE
  8
0
 10
205.783
 20
17.0312
 11
206.378
 21
15.7141
  0
LINE
  8
0
 10
206.378
 20
15.7141
 11
207.014
 21
14.4164
  0
LINE
  8
0
 10
207.014
 20
14.4164
 11
207.69
 21
13.1393
  0
LINE
  8
0
 10
207.69
 20
13.1393
 11
208.406
 21
11.8841
  0
LINE
  8
0
 10
208.406
 20
11.8841
 11
209.161
 21
10.652
  0
LINE
  8
0
 10
209.161
 20
10.652
 11
209.954
 21
9.44415
  0
LINE
  8
0
 10
209.954
 20
9.44415
 11
210.785
 21
8.26187
  0
LINE
  8
0
 10
210.785
 20
8.26187
 11
211.653
 21
7.10628
  0
LINE
  8
0
 10
211.653
 20
7.10628
 11
212.556
 21
5.97849
  0
LINE
  8
0
 10
212.556
 20
5.97849
 11
213.495
 21
4.87965
  0
LINE
  8
0
 10
213.495
 20
4.87965
 11
214.467
 21
3.81082
  0
LINE
  8
0
 10
214.467
 20
3.81082
 11
215.473
 21
2.77309
  0
LINE
  8
0
 10
215.473
 20
2.77309
 11
216.511
 21
1.76744
  0
LINE
  8
0
 10
216.511
 20
1.76744
 11
217.223
 21
1.11909
  0
LINE
  8
0
 10
217.223
 20
1.11909
 11
217.22
 21
1.11533
  0
LINE
  8
0
 10
217.22
 20
1.11533
 11
220.193
 21
-1.56117
  0
LINE
  8
0
 10
220.193
 20
-1.56117
 11
250.973
 21
32.6235
  0
LINE
  8
0
 10
220.837
 20
3.70395
 11
220.79
 21
3.70665
  0
LINE
  8
0
 10
220.79
 20
3.70665
 11
220.743
 21
3.71085
  0
LINE
  8
0
 10
220.743
 20
3.71085
 11
220.697
 21
3.71651
  0
LINE
  8
0
 10
220.697
 20
3.71651
 11
220.65
 21
3.72363
  0
LINE
  8
0
 10
220.65
 20
3.72363
 11
220.604
 21
3.73222
  0
LINE
  8
0
 10
220.604
 20
3.73222
 11
220.558
 21
3.74226
  0
LINE
  8
0
 10
220.558
 20
3.74226
 11
220.512
 21
3.75374
  0
LINE
  8
0
 10
220.512
 20
3.75374
 11
220.467
 21
3.76665
  0
LINE
  8
0
 10
220.467
 20
3.76665
 11
220.422
 21
3.78098
  0
LINE
  8
0
 10
220.422
 20
3.78098
 11
220.377
 21
3.79671
  0
LINE
  8
0
 10
220.377
 20
3.79671
 11
220.333
 21
3.81383
  0
LINE
  8
0
 10
220.333
 20
3.81383
 11
220.29
 21
3.83231
  0
LINE
  8
0
 10
220.29
 20
3.83231
 11
220.247
 21
3.85214
  0
LINE
  8
0
 10
220.247
 20
3.85214
 11
220.205
 21
3.87332
  0
LINE
  8
0
 10
220.205
 20
3.87332
 11
220.164
 21
3.89581
  0
LINE
  8
0
 10
220.164
 20
3.89581
 11
220.123
 21
3.91959
  0
LINE
  8
0
 10
220.123
 20
3.91959
 11
220.083
 21
3.94463
  0
LINE
  8
0
 10
220.083
 20
3.94463
 11
220.044
 21
3.9709
  0
LINE
  8
0
 10
220.044
 20
3.9709
 11
220.006
 21
3.9984
  0
LINE
  8
0
 10
220.006
 20
3.9984
 11
219.968
 21
4.02708
  0
LINE
  8
0
 10
219.968
 20
4.02708
 11
219.932
 21
4.05693
  0
LINE
  8
0
 10
219.932
 20
4.05693
 11
219.897
 21
4.08791
  0
LINE
  8
0
 10
219.897
 20
4.08791
 11
219.862
 21
4.12
  0
LINE
  8
0
 10
219.862
 20
4.12
 11
219.829
 21
4.15314
  0
LINE
  8
0
 10
219.829
 20
4.15314
 11
219.808
 21
4.17445
  0
LINE
  8
0
 10
219.808
 20
4.17445
 11
219.249
 21
4.68332
  0
LINE
  8
0
 10
219.249
 20
4.68332
 11
218.302
 21
5.60152
  0
LINE
  8
0
 10
218.302
 20
5.60152
 11
217.383
 21
6.54901
  0
LINE
  8
0
 10
217.383
 20
6.54901
 11
216.495
 21
7.5249
  0
LINE
  8
0
 10
216.495
 20
7.5249
 11
215.638
 21
8.52818
  0
LINE
  8
0
 10
215.638
 20
8.52818
 11
214.813
 21
9.55789
  0
LINE
  8
0
 10
214.813
 20
9.55789
 11
214.021
 21
10.613
  0
LINE
  8
0
 10
214.021
 20
10.613
 11
213.263
 21
11.6925
  0
LINE
  8
0
 10
213.263
 20
11.6925
 11
212.538
 21
12.7953
  0
LINE
  8
0
 10
212.538
 20
12.7953
 11
211.849
 21
13.9203
  0
LINE
  8
0
 10
211.849
 20
13.9203
 11
211.195
 21
15.0663
  0
LINE
  8
0
 10
211.195
 20
15.0663
 11
210.578
 21
16.2324
  0
LINE
  8
0
 10
210.578
 20
16.2324
 11
209.997
 21
17.4173
  0
LINE
  8
0
 10
209.997
 20
17.4173
 11
209.454
 21
18.6198
  0
LINE
  8
0
 10
209.454
 20
18.6198
 11
208.949
 21
19.8388
  0
LINE
  8
0
 10
208.949
 20
19.8388
 11
208.483
 21
21.073
  0
LINE
  8
0
 10
208.483
 20
21.073
 11
208.056
 21
22.3213
  0
LINE
  8
0
 10
208.056
 20
22.3213
 11
207.668
 21
23.5824
  0
LINE
  8
0
 10
207.668
 20
23.5824
 11
207.32
 21
24.855
  0
LINE
  8
0
 10
207.32
 20
24.855
 11
207.012
 21
26.138
  0
LINE
  8
0
 10
207.012
 20
26.138
 11
206.744
 21
27.43
  0
LINE
  8
0
 10
206.744
 20
27.43
 11
206.517
 21
28.7298
  0
LINE
  8
0
 10
206.517
 20
28.7298
 11
206.331
 21
30.036
  0
LINE
  8
0
 10
206.331
 20
30.036
 11
206.186
 21
31.3474
  0
LINE
  8
0
 10
206.186
 20
31.3474
 11
206.083
 21
32.6628
  0
LINE
  8
0
 10
206.083
 20
32.6628
 11
206.067
 21
32.9943
  0
LINE
  8
0
 10
206.067
 20
32.9943
 11
206.065
 21
33.008
  0
LINE
  8
0
 10
206.065
 20
33.008
 11
206.061
 21
33.0549
  0
LINE
  8
0
 10
206.061
 20
33.0549
 11
206.058
 21
33.1019
  0
LINE
  8
0
 10
206.058
 20
33.1019
 11
206.056
 21
33.149
  0
LINE
  8
0
 10
206.056
 20
33.149
 11
206.056
 21
33.1961
  0
LINE
  8
0
 10
206.056
 20
33.1961
 11
206.057
 21
33.2432
  0
LINE
  8
0
 10
206.057
 20
33.2432
 11
206.06
 21
33.2903
  0
LINE
  8
0
 10
206.06
 20
33.2903
 11
206.064
 21
33.3372
  0
LINE
  8
0
 10
206.064
 20
33.3372
 11
206.069
 21
33.384
  0
LINE
  8
0
 10
206.069
 20
33.384
 11
206.077
 21
33.4305
  0
LINE
  8
0
 10
206.077
 20
33.4305
 11
206.085
 21
33.4769
  0
LINE
  8
0
 10
206.085
 20
33.4769
 11
206.095
 21
33.5229
  0
LINE
  8
0
 10
206.095
 20
33.5229
 11
206.107
 21
33.5686
  0
LINE
  8
0
 10
206.107
 20
33.5686
 11
206.12
 21
33.6139
  0
LINE
  8
0
 10
206.12
 20
33.6139
 11
206.134
 21
33.6588
  0
LINE
  8
0
 10
206.134
 20
33.6588
 11
206.15
 21
33.7032
  0
LINE
  8
0
 10
206.15
 20
33.7032
 11
206.167
 21
33.7471
  0
LINE
  8
0
 10
206.167
 20
33.7471
 11
206.185
 21
33.7905
  0
LINE
  8
0
 10
206.185
 20
33.7905
 11
206.205
 21
33.8332
  0
LINE
  8
0
 10
206.205
 20
33.8332
 11
206.226
 21
33.8753
  0
LINE
  8
0
 10
206.226
 20
33.8753
 11
206.249
 21
33.9167
  0
LINE
  8
0
 10
206.249
 20
33.9167
 11
206.272
 21
33.9574
  0
LINE
  8
0
 10
206.272
 20
33.9574
 11
206.298
 21
33.9973
  0
LINE
  8
0
 10
206.298
 20
33.9973
 11
206.324
 21
34.0365
  0
LINE
  8
0
 10
206.324
 20
34.0365
 11
206.351
 21
34.0747
  0
LINE
  8
0
 10
206.351
 20
34.0747
 11
206.38
 21
34.1121
  0
LINE
  8
0
 10
206.38
 20
34.1121
 11
206.41
 21
34.1486
  0
LINE
  8
0
 10
206.41
 20
34.1486
 11
206.441
 21
34.1841
  0
LINE
  8
0
 10
206.441
 20
34.1841
 11
206.473
 21
34.2186
  0
LINE
  8
0
 10
206.473
 20
34.2186
 11
206.506
 21
34.2521
  0
LINE
  8
0
 10
206.506
 20
34.2521
 11
206.54
 21
34.2845
  0
LINE
  8
0
 10
206.54
 20
34.2845
 11
206.575
 21
34.3159
  0
LINE
  8
0
 10
206.575
 20
34.3159
 11
206.612
 21
34.3461
  0
LINE
  8
0
 10
206.612
 20
34.3461
 11
206.649
 21
34.3752
  0
LINE
  8
0
 10
206.649
 20
34.3752
 11
206.687
 21
34.4031
  0
LINE
  8
0
 10
206.687
 20
34.4031
 11
206.725
 21
34.4298
  0
LINE
  8
0
 10
206.725
 20
34.4298
 11
206.765
 21
34.4552
  0
LINE
  8
0
 10
206.765
 20
34.4552
 11
206.806
 21
34.4794
  0
LINE
  8
0
 10
206.806
 20
34.4794
 11
206.847
 21
34.5023
  0
LINE
  8
0
 10
206.847
 20
34.5023
 11
206.889
 21
34.524
  0
LINE
  8
0
 10
206.889
 20
34.524
 11
206.931
 21
34.5442
  0
LINE
  8
0
 10
206.931
 20
34.5442
 11
206.974
 21
34.5632
  0
LINE
  8
0
 10
206.974
 20
34.5632
 11
207.018
 21
34.5808
  0
LINE
  8
0
 10
207.018
 20
34.5808
 11
207.062
 21
34.597
  0
LINE
  8
0
 10
207.062
 20
34.597
 11
207.107
 21
34.6118
  0
LINE
  8
0
 10
207.107
 20
34.6118
 11
207.152
 21
34.6251
  0
LINE
  8
0
 10
207.152
 20
34.6251
 11
207.198
 21
34.6371
  0
LINE
  8
0
 10
207.198
 20
34.6371
 11
207.244
 21
34.6476
  0
LINE
  8
0
 10
207.244
 20
34.6476
 11
207.29
 21
34.6567
  0
LINE
  8
0
 10
207.29
 20
34.6567
 11
207.336
 21
34.6643
  0
LINE
  8
0
 10
207.336
 20
34.6643
 11
207.383
 21
34.6704
  0
LINE
  8
0
 10
207.383
 20
34.6704
 11
207.43
 21
34.6751
  0
LINE
  8
0
 10
207.43
 20
34.6751
 11
207.477
 21
34.6783
  0
LINE
  8
0
 10
207.477
 20
34.6783
 11
207.524
 21
34.6801
  0
LINE
  8
0
 10
207.524
 20
34.6801
 11
207.571
 21
34.6803
  0
LINE
  8
0
 10
207.571
 20
34.6803
 11
207.618
 21
34.6791
  0
LINE
  8
0
 10
207.618
 20
34.6791
 11
207.665
 21
34.6764
  0
LINE
  8
0
 10
207.665
 20
34.6764
 11
207.712
 21
34.6722
  0
LINE
  8
0
 10
207.712
 20
34.6722
 11
207.759
 21
34.6665
  0
LINE
  8
0
 10
207.759
 20
34.6665
 11
207.806
 21
34.6594
  0
LINE
  8
0
 10
207.806
 20
34.6594
 11
207.852
 21
34.6508
  0
LINE
  8
0
 10
207.852
 20
34.6508
 11
207.898
 21
34.6408
  0
LINE
  8
0
 10
207.898
 20
34.6408
 11
207.944
 21
34.6293
  0
LINE
  8
0
 10
207.944
 20
34.6293
 11
207.989
 21
34.6164
  0
LINE
  8
0
 10
207.989
 20
34.6164
 11
208.034
 21
34.602
  0
LINE
  8
0
 10
208.034
 20
34.602
 11
208.078
 21
34.5863
  0
LINE
  8
0
 10
208.078
 20
34.5863
 11
208.122
 21
34.5692
  0
LINE
  8
0
 10
208.122
 20
34.5692
 11
208.166
 21
34.5507
  0
LINE
  8
0
 10
208.166
 20
34.5507
 11
208.208
 21
34.5309
  0
LINE
  8
0
 10
208.208
 20
34.5309
 11
208.25
 21
34.5097
  0
LINE
  8
0
 10
208.25
 20
34.5097
 11
208.292
 21
34.4872
  0
LINE
  8
0
 10
208.292
 20
34.4872
 11
208.333
 21
34.4634
  0
LINE
  8
0
 10
208.333
 20
34.4634
 11
208.372
 21
34.4384
  0
LINE
  8
0
 10
208.372
 20
34.4384
 11
208.412
 21
34.4121
  0
LINE
  8
0
 10
208.412
 20
34.4121
 11
208.45
 21
34.3846
  0
LINE
  8
0
 10
208.45
 20
34.3846
 11
208.487
 21
34.3559
  0
LINE
  8
0
 10
208.487
 20
34.3559
 11
208.524
 21
34.3261
  0
LINE
  8
0
 10
208.524
 20
34.3261
 11
208.559
 21
34.2951
  0
LINE
  8
0
 10
208.559
 20
34.2951
 11
208.594
 21
34.263
  0
LINE
  8
0
 10
208.594
 20
34.263
 11
208.627
 21
34.2299
  0
LINE
  8
0
 10
208.627
 20
34.2299
 11
208.66
 21
34.1957
  0
LINE
  8
0
 10
208.66
 20
34.1957
 11
208.691
 21
34.1605
  0
LINE
  8
0
 10
208.691
 20
34.1605
 11
208.721
 21
34.1244
  0
LINE
  8
0
 10
208.721
 20
34.1244
 11
208.75
 21
34.0873
  0
LINE
  8
0
 10
208.75
 20
34.0873
 11
208.778
 21
34.0493
  0
LINE
  8
0
 10
208.778
 20
34.0493
 11
208.805
 21
34.0105
  0
LINE
  8
0
 10
208.805
 20
34.0105
 11
208.83
 21
33.9708
  0
LINE
  8
0
 10
208.83
 20
33.9708
 11
208.855
 21
33.9304
  0
LINE
  8
0
 10
208.855
 20
33.9304
 11
208.877
 21
33.8892
  0
LINE
  8
0
 10
208.877
 20
33.8892
 11
208.899
 21
33.8473
  0
LINE
  8
0
 10
208.899
 20
33.8473
 11
208.919
 21
33.8048
  0
LINE
  8
0
 10
208.919
 20
33.8048
 11
208.938
 21
33.7617
  0
LINE
  8
0
 10
208.938
 20
33.7617
 11
208.956
 21
33.7179
  0
LINE
  8
0
 10
208.956
 20
33.7179
 11
208.972
 21
33.6737
  0
LINE
  8
0
 10
208.972
 20
33.6737
 11
208.987
 21
33.629
  0
LINE
  8
0
 10
208.987
 20
33.629
 11
209
 21
33.5838
  0
LINE
  8
0
 10
209
 20
33.5838
 11
209.012
 21
33.5382
  0
LINE
  8
0
 10
209.012
 20
33.5382
 11
209.023
 21
33.4922
  0
LINE
  8
0
 10
209.023
 20
33.4922
 11
209.032
 21
33.446
  0
LINE
  8
0
 10
209.032
 20
33.446
 11
209.039
 21
33.3995
  0
LINE
  8
0
 10
209.039
 20
33.3995
 11
209.046
 21
33.3528
  0
LINE
  8
0
 10
209.046
 20
33.3528
 11
209.05
 21
33.3059
  0
LINE
  8
0
 10
209.05
 20
33.3059
 11
209.053
 21
33.2589
  0
LINE
  8
0
 10
209.053
 20
33.2589
 11
209.058
 21
33.2591
  0
LINE
  8
0
 10
209.058
 20
33.2591
 11
209.077
 21
32.8512
  0
LINE
  8
0
 10
209.077
 20
32.8512
 11
209.173
 21
31.6298
  0
LINE
  8
0
 10
209.173
 20
31.6298
 11
209.308
 21
30.412
  0
LINE
  8
0
 10
209.308
 20
30.412
 11
209.48
 21
29.1991
  0
LINE
  8
0
 10
209.48
 20
29.1991
 11
209.691
 21
27.9921
  0
LINE
  8
0
 10
209.691
 20
27.9921
 11
209.939
 21
26.7924
  0
LINE
  8
0
 10
209.939
 20
26.7924
 11
210.225
 21
25.6011
  0
LINE
  8
0
 10
210.225
 20
25.6011
 11
210.549
 21
24.4193
  0
LINE
  8
0
 10
210.549
 20
24.4193
 11
210.909
 21
23.2483
  0
LINE
  8
0
 10
210.909
 20
23.2483
 11
211.306
 21
22.0892
  0
LINE
  8
0
 10
211.306
 20
22.0892
 11
211.739
 21
20.9431
  0
LINE
  8
0
 10
211.739
 20
20.9431
 11
212.208
 21
19.8112
  0
LINE
  8
0
 10
212.208
 20
19.8112
 11
212.712
 21
18.6946
  0
LINE
  8
0
 10
212.712
 20
18.6946
 11
213.251
 21
17.5944
  0
LINE
  8
0
 10
213.251
 20
17.5944
 11
213.824
 21
16.5116
  0
LINE
  8
0
 10
213.824
 20
16.5116
 11
214.431
 21
15.4474
  0
LINE
  8
0
 10
214.431
 20
15.4474
 11
215.071
 21
14.4028
  0
LINE
  8
0
 10
215.071
 20
14.4028
 11
215.744
 21
13.3787
  0
LINE
  8
0
 10
215.744
 20
13.3787
 11
216.448
 21
12.3764
  0
LINE
  8
0
 10
216.448
 20
12.3764
 11
217.184
 21
11.3966
  0
LINE
  8
0
 10
217.184
 20
11.3966
 11
217.95
 21
10.4405
  0
LINE
  8
0
 10
217.95
 20
10.4405
 11
218.746
 21
9.50883
  0
LINE
  8
0
 10
218.746
 20
9.50883
 11
219.57
 21
8.60266
  0
LINE
  8
0
 10
219.57
 20
8.60266
 11
220.423
 21
7.72282
  0
LINE
  8
0
 10
220.423
 20
7.72282
 11
221.303
 21
6.87022
  0
LINE
  8
0
 10
221.303
 20
6.87022
 11
221.907
 21
6.32054
  0
LINE
  8
0
 10
221.907
 20
6.32054
 11
221.904
 21
6.31735
  0
LINE
  8
0
 10
221.904
 20
6.31735
 11
221.938
 21
6.28526
  0
LINE
  8
0
 10
221.938
 20
6.28526
 11
221.972
 21
6.25212
  0
LINE
  8
0
 10
221.972
 20
6.25212
 11
222.004
 21
6.21794
  0
LINE
  8
0
 10
222.004
 20
6.21794
 11
222.036
 21
6.18275
  0
LINE
  8
0
 10
222.036
 20
6.18275
 11
222.066
 21
6.14661
  0
LINE
  8
0
 10
222.066
 20
6.14661
 11
222.095
 21
6.10953
  0
LINE
  8
0
 10
222.095
 20
6.10953
 11
222.123
 21
6.07155
  0
LINE
  8
0
 10
222.123
 20
6.07155
 11
222.15
 21
6.03271
  0
LINE
  8
0
 10
222.15
 20
6.03271
 11
222.175
 21
5.99306
  0
LINE
  8
0
 10
222.175
 20
5.99306
 11
222.199
 21
5.95262
  0
LINE
  8
0
 10
222.199
 20
5.95262
 11
222.222
 21
5.91145
  0
LINE
  8
0
 10
222.222
 20
5.91145
 11
222.244
 21
5.86958
  0
LINE
  8
0
 10
222.244
 20
5.86958
 11
222.264
 21
5.82706
  0
LINE
  8
0
 10
222.264
 20
5.82706
 11
222.283
 21
5.78391
  0
LINE
  8
0
 10
222.283
 20
5.78391
 11
222.301
 21
5.74017
  0
LINE
  8
0
 10
222.301
 20
5.74017
 11
222.317
 21
5.69592
  0
LINE
  8
0
 10
222.317
 20
5.69592
 11
222.332
 21
5.65118
  0
LINE
  8
0
 10
222.332
 20
5.65118
 11
222.345
 21
5.606
  0
LINE
  8
0
 10
222.345
 20
5.606
 11
222.357
 21
5.56042
  0
LINE
  8
0
 10
222.357
 20
5.56042
 11
222.367
 21
5.5145
  0
LINE
  8
0
 10
222.367
 20
5.5145
 11
222.377
 21
5.46826
  0
LINE
  8
0
 10
222.377
 20
5.46826
 11
222.384
 21
5.42175
  0
LINE
  8
0
 10
222.384
 20
5.42175
 11
222.39
 21
5.37503
  0
LINE
  8
0
 10
222.39
 20
5.37503
 11
222.395
 21
5.32814
  0
LINE
  8
0
 10
222.395
 20
5.32814
 11
222.398
 21
5.28113
  0
LINE
  8
0
 10
222.398
 20
5.28113
 11
222.4
 21
5.23404
  0
LINE
  8
0
 10
222.4
 20
5.23404
 11
222.4
 21
5.18692
  0
LINE
  8
0
 10
222.4
 20
5.18692
 11
222.399
 21
5.13982
  0
LINE
  8
0
 10
222.399
 20
5.13982
 11
222.396
 21
5.09277
  0
LINE
  8
0
 10
222.396
 20
5.09277
 11
222.392
 21
5.04584
  0
LINE
  8
0
 10
222.392
 20
5.04584
 11
222.386
 21
4.99905
  0
LINE
  8
0
 10
222.386
 20
4.99905
 11
222.379
 21
4.95247
  0
LINE
  8
0
 10
222.379
 20
4.95247
 11
222.371
 21
4.90614
  0
LINE
  8
0
 10
222.371
 20
4.90614
 11
222.361
 21
4.86011
  0
LINE
  8
0
 10
222.361
 20
4.86011
 11
222.349
 21
4.81439
  0
LINE
  8
0
 10
222.349
 20
4.81439
 11
222.336
 21
4.76907
  0
LINE
  8
0
 10
222.336
 20
4.76907
 11
222.322
 21
4.72418
  0
LINE
  8
0
 10
222.322
 20
4.72418
 11
222.306
 21
4.67976
  0
LINE
  8
0
 10
222.306
 20
4.67976
 11
222.289
 21
4.63586
  0
LINE
  8
0
 10
222.289
 20
4.63586
 11
222.271
 21
4.59253
  0
LINE
  8
0
 10
222.271
 20
4.59253
 11
222.251
 21
4.54977
  0
LINE
  8
0
 10
222.251
 20
4.54977
 11
222.23
 21
4.50769
  0
LINE
  8
0
 10
222.23
 20
4.50769
 11
222.207
 21
4.46628
  0
LINE
  8
0
 10
222.207
 20
4.46628
 11
222.183
 21
4.42558
  0
LINE
  8
0
 10
222.183
 20
4.42558
 11
222.158
 21
4.38567
  0
LINE
  8
0
 10
222.158
 20
4.38567
 11
222.132
 21
4.34656
  0
LINE
  8
0
 10
222.132
 20
4.34656
 11
222.104
 21
4.30829
  0
LINE
  8
0
 10
222.104
 20
4.30829
 11
222.076
 21
4.2709
  0
LINE
  8
0
 10
222.076
 20
4.2709
 11
222.046
 21
4.23444
  0
LINE
  8
0
 10
222.046
 20
4.23444
 11
222.015
 21
4.19893
  0
LINE
  8
0
 10
222.015
 20
4.19893
 11
221.983
 21
4.16441
  0
LINE
  8
0
 10
221.983
 20
4.16441
 11
221.95
 21
4.13092
  0
LINE
  8
0
 10
221.95
 20
4.13092
 11
221.916
 21
4.09848
  0
LINE
  8
0
 10
221.916
 20
4.09848
 11
221.88
 21
4.06714
  0
LINE
  8
0
 10
221.88
 20
4.06714
 11
221.844
 21
4.03691
  0
LINE
  8
0
 10
221.844
 20
4.03691
 11
221.807
 21
4.00783
  0
LINE
  8
0
 10
221.807
 20
4.00783
 11
221.769
 21
3.97993
  0
LINE
  8
0
 10
221.769
 20
3.97993
 11
221.73
 21
3.95325
  0
LINE
  8
0
 10
221.73
 20
3.95325
 11
221.691
 21
3.9278
  0
LINE
  8
0
 10
221.691
 20
3.9278
 11
221.65
 21
3.90359
  0
LINE
  8
0
 10
221.65
 20
3.90359
 11
221.609
 21
3.88068
  0
LINE
  8
0
 10
221.609
 20
3.88068
 11
221.567
 21
3.85905
  0
LINE
  8
0
 10
221.567
 20
3.85905
 11
221.525
 21
3.83878
  0
LINE
  8
0
 10
221.525
 20
3.83878
 11
221.481
 21
3.81984
  0
LINE
  8
0
 10
221.481
 20
3.81984
 11
221.438
 21
3.80226
  0
LINE
  8
0
 10
221.438
 20
3.80226
 11
221.394
 21
3.78606
  0
LINE
  8
0
 10
221.394
 20
3.78606
 11
221.349
 21
3.77127
  0
LINE
  8
0
 10
221.349
 20
3.77127
 11
221.304
 21
3.75789
  0
LINE
  8
0
 10
221.304
 20
3.75789
 11
221.258
 21
3.74593
  0
LINE
  8
0
 10
221.258
 20
3.74593
 11
221.212
 21
3.73541
  0
LINE
  8
0
 10
221.212
 20
3.73541
 11
221.166
 21
3.72633
  0
LINE
  8
0
 10
221.166
 20
3.72633
 11
221.119
 21
3.71872
  0
LINE
  8
0
 10
221.119
 20
3.71872
 11
221.073
 21
3.71257
  0
LINE
  8
0
 10
221.073
 20
3.71257
 11
221.026
 21
3.70789
  0
LINE
  8
0
 10
221.026
 20
3.70789
 11
220.979
 21
3.70468
  0
LINE
  8
0
 10
220.979
 20
3.70468
 11
220.932
 21
3.70296
  0
LINE
  8
0
 10
220.932
 20
3.70296
 11
220.885
 21
3.70271
  0
LINE
  8
0
 10
220.885
 20
3.70271
 11
220.837
 21
3.70395
  0
LINE
  8
0
 10
196
 20
20
 11
200
 21
20
  0
LINE
  8
0
 10
200
 20
20
 11
200
 21
40
  0
LINE
  8
0
 10
200
 20
40
 11
196
 21
40
  0
LINE
  8
0
 10
196
 20
40
 11
196
 21
60
  0
LINE
  8
0
 10
196
 20
60
 11
200
 21
60
  0
LINE
  8
0
 10
200
 20
60
 11
200
 21
80
  0
LINE
  8
0
 10
200
 20
80
 11
196
 21
80
  0
LINE
  8
0
 10
196
 20
80
 11
196
 21
100
  0
LINE
  8
0
 10
196
 20
100
 11
200
 21
100
  0
LINE
  8
0
 10
200
 20
100
 11
200
 21
120
  0
LINE
  8
0
 10
200
 20
120
 11
196
 21
120
  0
LINE
  8
0
 10
196
 20
120
 11
196
 21
140
  0
LINE
  8
0
 10
196
 20
140
 11
200
 21
140
  0
LINE
  8
0
 10
200
 20
140
 11
200
 21
160
  0
LINE
  8
0
 10
200
 20
160
 11
196
 21
160
  0
LINE
  8
0
 10
196
 20
160
 11
196
 21
180
  0
LINE
  8
0
 10
196
 20
180
 11
200
 21
180
  0
LINE
  8
0
 10
200
 20
180
 11
200
 21
200
  0
LINE
  8
0
 10
200
 20
200
 11
160
 21
200
  0
LINE
  8
0
 10
160
 20
200
 11
160
 21
196
  0
LINE
  8
0
 10
160
 20
196
 11
120
 21
196
  0
LINE
  8
0
 10
120
 20
196
 11
120
 21
200
  0
LINE
  8
0
 10
120
 20
200
 11
80
 21
200
  0
LINE
  8
0
 10
80
 20
200
 11
80
 21
196
  0
LINE
  8
0
 10
80
 20
196
 11
40
 21
196
  0
LINE
  8
0
 10
40
 20
196
 11
40
 21
200
  0
LINE
  8
0
 10
40
 20
200
 11
0
 21
200
  0
LINE
  8
0
 10
0
 20
200
 11
0
 21
180
  0
LINE
  8
0
 10
0
 20
180
 11
4
 21
180
  0
LINE
  8
0
 10
4
 20
180
 11
4
 21
160
  0
LINE
  8
0
 10
4
 20
160
 11
0
 21
160
  0
LINE
  8
0
 10
0
 20
160
 11
0
 21
140
  0
LINE
  8
0
 10
0
 20
140
 11
4
 21
140
  0
LINE
  8
0
 10
4
 20
140
 11
4
 21
120
  0
LINE
  8
0
 10
4
 20
120
 11
0
 21
120
  0
LINE
  8
0
 10
0
 20
120
 11
0
 21
100
  0
LINE
  8
0
 10
0
 20
100
 11
4
 21
100
  0
LINE
  8
0
 10
4
 20
100
 11
4
 21
80
  0
LINE
  8
0
 10
4
 20
80
 11
0
 21
80
  0
LINE
  8
0
 10
0
 20
80
 11
0
 21
60
  0
LINE
  8
0
 10
0
 20
60
 11
4
 21
60
  0
LINE
  8
0
 10
4
 20
60
 11
4
 21
40
  0
LINE
  8
0
 10
4
 20
40
 11
0
 21
40
  0
LINE
  8
0
 10
0
 20
40
 11
0
 21
20
  0
LINE
  8
0
 10
0
 20
20
 11
4
 21
20
  0
LINE
  8
0
 10
4
 20
20
 11
4
 21
0
  0
LINE
  8
0
 10
4
 20
0
 11
196
 21
0
  0
LINE
  8
0
 10
196
 20
0
 11
196
 21
20
  0
LINE
  8
0
 10
99.8429
 20
95.0025
 11
99.6861
 21
95.0099
  0
LINE
  8
0
 10
99.6861
 20
95.0099
 11
99.5294
 21
95.0222
  0
LINE
  8
0
 10
99.5294
 20
95.0222
 11
99.3733
 21
95.0394
  0
LINE
  8
0
 10
99.3733
 20
95.0394
 11
99.2178
 21
95.0616
  0
LINE
  8
0
 10
99.2178
 20
95.0616
 11
99.0631
 21
95.0886
  0
LINE
  8
0
 10
99.0631
 20
95.0886
 11
98.9093
 21
95.1204
  0
LINE
  8
0
 10
98.9093
 20
95.1204
 11
98.7565
 21
95.1571
  0
LINE
  8
0
 10
98.7565
 20
95.1571
 11
98.605
 21
95.1985
  0
LINE
  8
0
 10
98.605
 20
95.1985
 11
98.4549
 21
95.2447
  0
LINE
  8
0
 10
98.4549
 20
95.2447
 11
98.3063
 21
95.2956
  0
LINE
  8
0
 10
98.3063
 20
95.2956
 11
98.1594
 21
95.3511
  0
LINE
  8
0
 10
98.1594
 20
95.3511
 11
98.0143
 21
95.4112
  0
LINE
  8
0
 10
98.0143
 20
95.4112
 11
97.8711
 21
95.4759
  0
LINE
  8
0
 10
97.8711
 20
95.4759
 11
97.73
 21
95.545
  0
LINE
  8
0
 10
97.73
 20
95.545
 11
97.5912
 21
95.6185
  0
LINE
  8
0
 10
97.5912
 20
95.6185
 11
97.4548
 21
95.6963
  0
LINE
  8
0
 10
97.4548
 20
95.6963
 11
97.3209
 21
95.7784
  0
LINE
  8
0
 10
97.3209
 20
95.7784
 11
97.1896
 21
95.8646
  0
LINE
  8
0
 10
97.1896
 20
95.8646
 11
97.0611
 21
95.9549
  0
LINE
  8
0
 10
97.0611
 20
95.9549
 11
96.9355
 21
96.0492
  0
LINE
  8
0
 10
96.9355
 20
96.0492
 11
96.8129
 21
96.1474
  0
LINE
  8
0
 10
96.8129
 20
96.1474
 11
96.6934
 21
96.2494
  0
LINE
  8
0
 10
96.6934
 20
96.2494
 11
96.5773
 21
96.3551
  0
LINE
  8
0
 10
96.5773
 20
96.3551
 11
96.4645
 21
96.4645
  0
LINE
  8
0
 10
96.4645
 20
96.4645
 11
96.3551
 21
96.5773
  0
LINE
  8
0
 10
96.3551
 20
96.5773
 11
96.2494
 21
96.6934
  0
LINE
  8
0
 10
96.2494
 20
96.6934
 11
96.1474
 21
96.8129
  0
LINE
  8
0
 10
96.1474
 20
96.8129
 11
96.0492
 21
96.9355
  0
LINE
  8
0
 10
96.0492
 20
96.9355
 11
95.9549
 21
97.0611
  0
LINE
  8
0
 10
95.9549
 20
97.0611
 11
95.8646
 21
97.1896
  0
LINE
  8
0
 10
95.8646
 20
97.1896
 11
95.7784
 21
97.3209
  0
LINE
  8
0
 10
95.7784
 20
97.3209
 11
95.6963
 21
97.4548
  0
LINE
  8
0
 10
95.6963
 20
97.4548
 11
95.6185
 21
97.5912
  0
LINE
  8
0
 10
95.6185
 20
97.5912
 11
95.545
 21
97.73
  0
LINE
  8
0
 10
95.545
 20
97.73
 11
95.4759
 21
97.8711
  0
LINE
  8
0
 10
95.4759
 20
97.8711
 11
95.4112
 21
98.0143
  0
LINE
  8
0
 10
95.4112
 20
98.0143
 11
95.3511
 21
98.1594
  0
LINE
  8
0
 10
95.3511
 20
98.1594
 11
95.2956
 21
98.3063
  0
LINE
  8
0
 10
95.2956
 20
98.3063
 11
95.2447
 21
98.4549
  0
LINE
  8
0
 10
95.2447
 20
98.4549
 11
95.1985
 21
98.605
  0
LINE
  8
0
 10
95.1985
 20
98.605
 11
95.1571
 21
98.7565
  0
LINE
  8
0
 10
95.1571
 20
98.7565
 11
95.1204
 21
98.9093
  0
LINE
  8
0
 10
95.1204
 20
98.9093
 11
95.0886
 21
99.0631
  0
LINE
  8
0
 10
95.0886
 20
99.0631
 11
95.0616
 21
99.2178
  0
LINE
  8
0
 10
95.0616
 20
99.2178
 11
95.0394
 21
99.3733
  0
LINE
  8
0
 10
95.0394
 20
99.3733
 11
95.0222
 21
99.5294
  0
LINE
  8
0
 10
95.0222
 20
99.5294
 11
95.0099
 21
99.6861
  0
LINE
  8
0
 10
95.0099
 20
99.6861
 11
95.0025
 21
99.8429
  0
LINE
  8
0
 10
95.0025
 20
99.8429
 11
95
 21
100
  0
LINE
  8
0
 10
95
 20
100
 11
95.0025
 21
100.157
  0
LINE
  8
0
 10
95.0025
 20
100.157
 11
95.0099
 21
100.314
  0
LINE
  8
0
 10
95.0099
 20
100.314
 11
95.0222
 21
100.471
  0
LINE
  8
0
 10
95.0222
 20
100.471
 11
95.0394
 21
100.627
  0
LINE
  8
0
 10
95.0394
 20
100.627
 11
95.0616
 21
100.782
  0
LINE
  8
0
 10
95.0616
 20
100.782
 11
95.0886
 21
100.937
  0
LINE
  8
0
 10
95.0886
 20
100.937
 11
95.1204
 21
101.091
  0
LINE
  8
0
 10
95.1204
 20
101.091
 11
95.1571
 21
101.243
  0
LINE
  8
0
 10
95.1571
 20
101.243
 11
95.1985
 21
101.395
  0
LINE
  8
0
 10
95.1985
 20
101.395
 11
95.2447
 21
101.545
  0
LINE
  8
0
 10
95.2447
 20
101.545
 11
95.2956
 21
101.694
  0
LINE
  8
0
 10
95.2956
 20
101.694
 11
95.3511
 21
101.841
  0
LINE
  8
0
 10
95.3511
 20
101.841
 11
95.4112
 21
101.986
  0
LINE
  8
0
 10
95.4112
 20
101.986
 11
95.4759
 21
102.129
  0
LINE
  8
0
 10
95.4759
 20
102.129
 11
95.545
 21
102.27
  0
LINE
  8
0
 10
95.545
 20
102.27
 11
95.6185
 21
102.409
  0
LINE
  8
0
 10
95.6185
 20
102.409
 11
95.6963
 21
102.545
  0
LINE
  8
0
 10
95.6963
 20
102.545
 11
95.7784
 21
102.679
  0
LINE
  8
0
 10
95.7784
 20
102.679
 11
95.8646
 21
102.81
  0
LINE
  8
0
 10
95.8646
 20
102.81
 11
95.9549
 21
102.939
  0
LINE
  8
0
 10
95.9549
 20
102.939
 11
96.0492
 21
103.065
  0
LINE
  8
0
 10
96.0492
 20
103.065
 11
96.1474
 21
103.187
  0
LINE
  8
0
 10
96.1474
 20
103.187
 11
96.2494
 21
103.307
  0
LINE
  8
0
 10
96.2494
 20
103.307
 11
96.3551
 21
103.423
  0
LINE
  8
0
 10
96.3551
 20
103.423
 11
96.4645
 21
103.536
  0
LINE
  8
0
 10
96.4645
 20
103.536
 11
96.5773
 21
103.645
  0
LINE
  8
0
 10
96.5773
 20
103.645
 11
96.6934
 21
103.751
  0
LINE
  8
0
 10
96.6934
 20
103.751
 11
96.8129
 21
103.853
  0
LINE
  8
0
 10
96.8129
 20
103.853
 11
96.9355
 21
103.951
  0
LINE
  8
0
 10
96.9355
 20
103.951
 11
97.0611
 21
104.045
  0
LINE
  8
0
 10
97.0611
 20
104.045
 11
97.1896
 21
104.135
  0
LINE
  8
0
 10
97.1896
 20
104.135
 11
97.3209
 21
104.222
  0
LINE
  8
0
 10
97.3209
 20
104.222
 11
97.4548
 21
104.304
  0
LINE
  8
0
 10
97.4548
 20
104.304
 11
97.5912
 21
104.382
  0
LINE
  8
0
 10
97.5912
 20
104.382
 11
97.73
 21
104.455
  0
LINE
  8
0
 10
97.73
 20
104.455
 11
97.8711
 21
104.524
  0
LINE
  8
0
 10
97.8711
 20
104.524
 11
98.0143
 21
104.589
  0
LINE
  8
0
 10
98.0143
 20
104.589
 11
98.1594
 21
104.649
  0
LINE
  8
0
 10
98.1594
 20
104.649
 11
98.3063
 21
104.704
  0
LINE
  8
0
 10
98.3063
 20
104.704
 11
98.4549
 21
104.755
  0
LINE
  8
0
 10
98.4549
 20
104.755
 11
98.605
 21
104.801
  0
LINE
  8
0
 10
98.605
 20
104.801
 11
98.7565
 21
104.843
  0
LINE
  8
0
 10
98.7565
 20
104.843
 11
98.9093
 21
104.88
  0
LINE
  8
0
 10
98.9093
 20
104.88
 11
99.0631
 21
104.911
  0
LINE
  8
0
 10
99.0631
 20
104.911
 11
99.2178
 21
104.938
  0
LINE
  8
0
 10
99.2178
 20
104.938
 11
99.3733
 21
104.961
  0
LINE
  8
0
 10
99.3733
 20
104.961
 11
99.5294
 21
104.978
  0
LINE
  8
0
 10
99.5294
 20
104.978
 11
99.6861
 21
104.99
  0
LINE
  8
0
 10
99.6861
 20
104.99
 11
99.8429
 21
104.998
  0
LINE
  8
0
 10
99.8429
 20
104.998
 11
100
 21
105
  0
LINE
  8
0
 10
100
 20
105
 11
100.157
 21
104.998
  0
LINE
  8
0
 10
100.157
 20
104.998
 11
100.314
 21
104.99
  0
LINE
  8
0
 10
100.314
 20
104.99
 11
100.471
 21
104.978
  0
LINE
  8
0
 10
100.471
 20
104.978
 11
100.627
 21
104.961
  0
LINE
  8
0
 10
100.627
 20
104.961
 11
100.782
 21
104.938
  0
LINE
  8
0
 10
100.782
 20
104.938
 11
100.937
 21
104.911
  0
LINE
  8
0
 10
100.937
 20
104.911
 11
101.091
 21
104.88
  0
LINE
  8
0
 10
101.091
 20
104.88
 11
101.243
 21
104.843
  0
LINE
  8
0
 10
101.243
 20
104.843
 11
101.395
 21
104.801
  0
LINE
  8
0
 10
101.395
 20
104.801
 11
101.545
 21
104.755
  0
LINE
  8
0
 10
101.545
 20
104.755
 11
101.694
 21
104.704
  0
LINE
  8
0
 10
101.694
 20
104.704
 11
101.841
 21
104.649
  0
LINE
  8
0
 10
101.841
 20
104.649
 11
101.986
 21
104.589
  0
LINE
  8
0
 10
101.986
 20
104.589
 11
102.129
 21
104.524
  0
LINE
  8
0
 10
102.129
 20
104.524
 11
102.27
 21
104.455
  0
LINE
  8
0
 10
102.27
 20
104.455
 11
102.409
 21
104.382
  0
LINE
  8
0
 10
102.409
 20
104.382
 11
102.545
 21
104.304
  0
LINE
  8
0
 10
102.545
 20
104.304
 11
102.679
 21
104.222
  0
LINE
  8
0
 10
102.679
 20
104.222
 11
102.81
 21
104.135
  0
LINE
  8
0
 10
102.81
 20
104.135
 11
102.939
 21
104.045
  0
LINE
  8
0
 10
102.939
 20
104.045
 11
103.065
 21
103.951
  0
LINE
  8
0
 10
103.065
 20
103.951
 11
103.187
 21
103.853
  0
LINE
  8
0
 10
103.187
 20
103.853
 11
103.307
 21
103.751
  0
LINE
  8
0
 10
103.307
 20
103.751
 11
103.423
 21
103.645
  0
LINE
  8
0
 10
103.423
 20
103.645
 11
103.536
 21
103.536
  0
LINE
  8
0
 10
103.536
 20
103.536
 11
103.645
 21
103.423
  0
LINE
  8
0
 10
103.645
 20
103.423
 11
103.751
 21
103.307
  0
LINE
  8
0
 10
103.751
 20
103.307
 11
103.853
 21
103.187
  0
LINE
  8
0
 10
103.853
 20
103.187
 11
103.951
 21
103.065
  0
LINE
  8
0
 10
103.951
 20
103.065
 11
104.045
 21
102.939
  0
LINE
  8
0
 10
104.045
 20
102.939
 11
104.135
 21
102.81
  0
LINE
  8
0
 10
104.135
 20
102.81
 11
104.222
 21
102.679
  0
LINE
  8
0
 10
104.222
 20
102.679
 11
104.304
 21
102.545
  0
LINE
  8
0
 10
104.304
 20
102.545
 11
104.382
 21
102.409
  0
LINE
  8
0
 10
104.382
 20
102.409
 11
104.455
 21
102.27
  0
LINE
  8
0
 10
104.455
 20
102.27
 11
104.524
 21
102.129
  0
LINE
  8
0
 10
104.524
 20
102.129
 11
104.589
 21
101.986
  0
LINE
  8
0
 10
104.589
 20
101.986
 11
104.649
 21
101.841
  0
LINE
  8
0
 10
104.649
 20
101.841
 11
104.704
 21
101.694
  0
LINE
  8
0
 10
104.704
 20
101.694
 11
104.755
 21
101.545
  0
LINE
  8
0
 10
104.755
 20
101.545
 11
104.801
 21
101.395
  0
LINE
  8
0
 10
104.801
 20
101.395
 11
104.843
 21
101.243
  0
LINE
  8
0
 10
104.843
 20
101.243
 11
104.88
 21
101.091
  0
LINE
  8
0
 10
104.88
 20
101.091
 11
104.911
 21
100.937
  0
LINE
  8
0
 10
104.911
 20
100.937
 11
104.938
 21
100.782
  0
LINE
  8
0
 10
104.938
 20
100.782
 11
104.961
 21
100.627
  0
LINE
  8
0
 10
104.961
 20
100.627
 11
104.978
 21
100.471
  0
LINE
  8
0
 10
104.978
 20
100.471
 11
104.99
 21
100.314
  0
LINE
  8
0
 10
104.99
 20
100.314
 11
104.998
 21
100.157
  0
LINE
  8
0
 10
104.998
 20
100.157
 11
105
 21
100
  0
LINE
  8
0
 10
105
 20
100
 11
104.998
 21
99.8429
  0
LINE
  8
0
 10
104.998
 20
99.8429
 11
104.99
 21
99.6861
  0
LINE
  8
0
 10
104.99
 20
99.6861
 11
104.978
 21
99.5294
  0
LINE
  8
0
 10
104.978
 20
99.5294
 11
104.961
 21
99.3733
  0
LINE
  8
0
 10
104.961
 20
99.3733
 11
104.938
 21
99.2178
  0
LINE
  8
0
 10
104.938
 20
99.2178
 11
104.911
 21
99.0631
  0
LINE
  8
0
 10
104.911
 20
99.0631
 11
104.88
 21
98.9093
  0
LINE
  8
0
 10
104.88
 20
98.9093
 11
104.843
 21
98.7565
  0
LINE
  8
0
 10
104.843
 20
98.7565
 11
104.801
 21
98.605
  0
LINE
  8
0
 10
104.801
 20
98.605
 11
104.755
 21
98.4549
  0
LINE
  8
0
 10
104.755
 20
98.4549
 11
104.704
 21
98.3063
  0
LINE
  8
0
 10
104.704
 20
98.3063
 11
104.649
 21
98.1594
  0
LINE
  8
0
 10
104.649
 20
98.1594
 11
104.589
 21
98.0143
  0
LINE
  8
0
 10
104.589
 20
98.0143
 11
104.524
 21
97.8711
  0
LINE
  8
0
 10
104.524
 20
97.8711
 11
104.455
 21
97.73
  0
LINE
  8
0
 10
104.455
 20
97.73
 11
104.382
 21
97.5912
  0
LINE
  8
0
 10
104.382
 20
97.5912
 11
104.304
 21
97.4548
  0
LINE
  8
0
 10
104.304
 20
97.4548
 11
104.222
 21
97.3209
  0
LINE
  8
0
 10
104.222
 20
97.3209
 11
104.135
 21
97.1896
  0
LINE
  8
0
 10
104.135
 20
97.1896
 11
104.045
 21
97.0611
  0
LINE
  8
0
 10
104.045
 20
97.0611
 11
103.951
 21
96.9355
  0
LINE
  8
0
 10
103.951
 20
96.9355
 11
103.853
 21
96.8129
  0
LINE
  8
0
 10
103.853
 20
96.8129
 11
103.751
 21
96.6934
  0
LINE
  8
0
 10
103.751
 20
96.6934
 11
103.645
 21
96.5773
  0
LINE
  8
0
 10
103.645
 20
96.5773
 11
103.536
 21
96.4645
  0
LINE
  8
0
 10
103.536
 20
96.4645
 11
103.423
 21
96.3551
  0
LINE
  8
0
 10
103.423
 20
96.3551
 11
103.307
 21
96.2494
  0
LINE
  8
0
 10
103.307
 20
96.2494
 11
103.187
 21
96.1474
  0
LINE
  8
0
 10
103.187
 20
96.1474
 11
103.065
 21
96.0492
  0
LINE
  8
0
 10
103.065
 20
96.0492
 11
102.939
 21
95.9549
  0
LINE
  8
0
 10
102.939
 20
95.9549
 11
102.81
 21
95.8646
  0
LINE
  8
0
 10
102.81
 20
95.8646
 11
102.679
 21
95.7784
  0
LINE
  8
0
 10
102.679
 20
95.7784
 11
102.545
 21
95.6963
  0
LINE
  8
0
 10
102.545
 20
95.6963
 11
102.409
 21
95.6185
  0
LINE
  8
0
 10
102.409
 20
95.6185
 11
102.27
 21
95.545
  0
LINE
  8
0
 10
102.27
 20
95.545
 11
102.129
 21
95.4759
  0
LINE
  8
0
 10
102.129
 20
95.4759
 11
101.986
 21
95.4112
  0
LINE
  8
0
 10
101.986
 20
95.4112
 11
101.841
 21
95.3511
  0
LINE
  8
0
 10
101.841
 20
95.3511
 11
101.694
 21
95.2956
  0
LINE
  8
0
 10
101.694
 20
95.2956
 11
101.545
 21
95.2447
  0
LINE
  8
0
 10
101.545
 20
95.2447
 11
101.395
 21
95.1985
  0
LINE
  8
0
 10
101.395
 20
95.1985
 11
101.243
 21
95.1571
  0
LINE
  8
0
 10
101.243
 20
95.1571
 11
101.091
 21
95.1204
  0
LINE
  8
0
 10
101.091
 20
95.1204
 11
100.937
 21
95.0886
  0
LINE
  8
0
 10
100.937
 20
95.0886
 11
100.782
 21
95.0616
  0
LINE
  8
0
 10
100.782
 20
95.0616
 11
100.627
 21
95.0394
  0
LINE
  8
0
 10
100.627
 20
95.0394
 11
100.471
 21
95.0222
  0
LINE
  8
0
 10
100.471
 20
95.0222
 11
100.314
 21
95.0099
  0
LINE
  8
0
 10
100.314
 20
95.0099
 11
100.157
 21
95.0025
  0
LINE
  8
0
 10
100.157
 20
95.0025
 11
100
 21
95
  0
LINE
  8
0
 10
100
 20
95
 11
99.8429
 21
95.0025
  0
ENDSEC
  0
SECTION
  2
OBJECTS
  0
DICTIONARY
  0
ENDSEC
  0
EOF
