  0
SECTION
  2
BLOCKS
  0
ENDSEC
  0
SECTION
  2
ENTITIES
  0
LINE
  8
0
 10
160
 20
256
 11
160
 21
260
  0
LINE
  8
0
 10
160
 20
260
 11
196
 21
260
  0
LINE
  8
0
 10
196
 20
260
 11
196
 21
273
  0
LINE
  8
0
 10
196
 20
273
 11
200
 21
273
  0
LINE
  8
0
 10
200
 20
273
 11
200
 21
293
  0
LINE
  8
0
 10
200
 20
293
 11
196
 21
293
  0
LINE
  8
0
 10
196
 20
293
 11
196
 21
306
  0
LINE
  8
0
 10
196
 20
306
 11
4
 21
306
  0
LINE
  8
0
 10
4
 20
306
 11
4
 21
293
  0
LINE
  8
0
 10
4
 20
293
 11
0
 21
293
  0
LINE
  8
0
 10
0
 20
293
 11
0
 21
273
  0
LINE
  8
0
 10
0
 20
273
 11
4
 21
273
  0
LINE
  8
0
 10
4
 20
273
 11
4
 21
260
  0
LINE
  8
0
 10
4
 20
260
 11
40
 21
260
  0
LINE
  8
0
 10
40
 20
260
 11
40
 21
256
  0
LINE
  8
0
 10
40
 20
256
 11
80
 21
256
  0
LINE
  8
0
 10
80
 20
256
 11
80
 21
260
  0
LINE
  8
0
 10
80
 20
260
 11
120
 21
260
  0
LINE
  8
0
 10
120
 20
260
 11
120
 21
256
  0
LINE
  8
0
 10
120
 20
256
 11
160
 21
256
  0
LINE
  8
0
 10
192
 20
206.5
 11
186.75
 21
206.5
  0
LINE
  8
0
 10
186.75
 20
206.5
 11
186.75
 21
205.25
  0
LINE
  8
0
 10
186.75
 20
205.25
 11
184.25
 21
205.25
  0
LINE
  8
0
 10
184.25
 20
205.25
 11
184.25
 21
206.5
  0
LINE
  8
0
 10
184.25
 20
206.5
 11
179
 21
206.5
  0
LINE
  8
0
 10
179
 20
206.5
 11
179
 21
209.5
  0
LINE
  8
0
 10
179
 20
209.5
 11
184.25
 21
209.5
  0
LINE
  8
0
 10
184.25
 20
209.5
 11
184.25
 21
210.75
  0
LINE
  8
0
 10
184.25
 20
210.75
 11
186.75
 21
210.75
  0
LINE
  8
0
 10
186.75
 20
210.75
 11
186.75
 21
209.5
  0
LINE
  8
0
 10
186.75
 20
209.5
 11
192
 21
209.5
  0
LINE
  8
0
 10
192
 20
209.5
 11
192
 21
247
  0
LINE
  8
0
 10
192
 20
247
 11
186.75
 21
247
  0
LINE
  8
0
 10
186.75
 20
247
 11
186.75
 21
245.75
  0
LINE
  8
0
 10
186.75
 20
245.75
 11
184.25
 21
245.75
  0
LINE
  8
0
 10
184.25
 20
245.75
 11
184.25
 21
247
  0
LINE
  8
0
 10
184.25
 20
247
 11
179
 21
247
  0
LINE
  8
0
 10
179
 20
247
 11
179
 21
250
  0
LINE
  8
0
 10
179
 20
250
 11
184.25
 21
250
  0
LINE
  8
0
 10
184.25
 20
250
 11
184.25
 21
251.25
  0
LINE
  8
0
 10
184.25
 20
251.25
 11
186.75
 21
251.25
  0
LINE
  8
0
 10
186.75
 20
251.25
 11
186.75
 21
250
  0
LINE
  8
0
 10
186.75
 20
250
 11
192
 21
250
  0
LINE
  8
0
 10
192
 20
250
 11
192
 21
254
  0
LINE
  8
0
 10
192
 20
254
 11
0
 21
254
  0
LINE
  8
0
 10
0
 20
254
 11
0
 21
250
  0
LINE
  8
0
 10
0
 20
250
 11
5.25
 21
250
  0
LINE
  8
0
 10
5.25
 20
250
 11
5.25
 21
251.25
  0
LINE
  8
0
 10
5.25
 20
251.25
 11
7.75
 21
251.25
  0
LINE
  8
0
 10
7.75
 20
251.25
 11
7.75
 21
250
  0
LINE
  8
0
 10
7.75
 20
250
 11
13
 21
250
  0
LINE
  8
0
 10
13
 20
250
 11
13
 21
247
  0
LINE
  8
0
 10
13
 20
247
 11
7.75
 21
247
  0
LINE
  8
0
 10
7.75
 20
247
 11
7.75
 21
245.75
  0
LINE
  8
0
 10
7.75
 20
245.75
 11
5.25
 21
245.75
  0
LINE
  8
0
 10
5.25
 20
245.75
 11
5.25
 21
247
  0
LINE
  8
0
 10
5.25
 20
247
 11
0
 21
247
  0
LINE
  8
0
 10
0
 20
247
 11
0
 21
209.5
  0
LINE
  8
0
 10
0
 20
209.5
 11
5.25
 21
209.5
  0
LINE
  8
0
 10
5.25
 20
209.5
 11
5.25
 21
210.75
  0
LINE
  8
0
 10
5.25
 20
210.75
 11
7.75
 21
210.75
  0
LINE
  8
0
 10
7.75
 20
210.75
 11
7.75
 21
209.5
  0
LINE
  8
0
 10
7.75
 20
209.5
 11
13
 21
209.5
  0
LINE
  8
0
 10
13
 20
209.5
 11
13
 21
206.5
  0
LINE
  8
0
 10
13
 20
206.5
 11
7.75
 21
206.5
  0
LINE
  8
0
 10
7.75
 20
206.5
 11
7.75
 21
205.25
  0
LINE
  8
0
 10
7.75
 20
205.25
 11
5.25
 21
205.25
  0
LINE
  8
0
 10
5.25
 20
205.25
 11
5.25
 21
206.5
  0
LINE
  8
0
 10
5.25
 20
206.5
 11
0
 21
206.5
  0
LINE
  8
0
 10
0
 20
206.5
 11
0
 21
202.5
  0
LINE
  8
0
 10
0
 20
202.5
 11
192
 21
202.5
  0
LINE
  8
0
 10
192
 20
202.5
 11
192
 21
206.5
  0
LINE
  8
0
 10
53
 20
217.5
 11
52.8429
 21
217.502
  0
LINE
  8
0
 10
52.8429
 20
217.502
 11
52.686
 21
217.51
  0
LINE
  8
0
 10
52.686
 20
217.51
 11
52.5294
 21
217.522
  0
LINE
  8
0
 10
52.5294
 20
217.522
 11
52.3733
 21
217.539
  0
LINE
  8
0
 10
52.3733
 20
217.539
 11
52.2178
 21
217.562
  0
LINE
  8
0
 10
52.2178
 20
217.562
 11
52.0631
 21
217.589
  0
LINE
  8
0
 10
52.0631
 20
217.589
 11
51.9093
 21
217.62
  0
LINE
  8
0
 10
51.9093
 20
217.62
 11
51.7565
 21
217.657
  0
LINE
  8
0
 10
51.7565
 20
217.657
 11
51.605
 21
217.699
  0
LINE
  8
0
 10
51.605
 20
217.699
 11
51.4549
 21
217.745
  0
LINE
  8
0
 10
51.4549
 20
217.745
 11
51.3063
 21
217.796
  0
LINE
  8
0
 10
51.3063
 20
217.796
 11
51.1594
 21
217.851
  0
LINE
  8
0
 10
51.1594
 20
217.851
 11
51.0143
 21
217.911
  0
LINE
  8
0
 10
51.0143
 20
217.911
 11
50.8711
 21
217.976
  0
LINE
  8
0
 10
50.8711
 20
217.976
 11
50.73
 21
218.045
  0
LINE
  8
0
 10
50.73
 20
218.045
 11
50.5912
 21
218.118
  0
LINE
  8
0
 10
50.5912
 20
218.118
 11
50.4548
 21
218.196
  0
LINE
  8
0
 10
50.4548
 20
218.196
 11
50.3209
 21
218.278
  0
LINE
  8
0
 10
50.3209
 20
218.278
 11
50.1896
 21
218.365
  0
LINE
  8
0
 10
50.1896
 20
218.365
 11
50.0611
 21
218.455
  0
LINE
  8
0
 10
50.0611
 20
218.455
 11
49.9355
 21
218.549
  0
LINE
  8
0
 10
49.9355
 20
218.549
 11
49.8129
 21
218.647
  0
LINE
  8
0
 10
49.8129
 20
218.647
 11
49.6934
 21
218.749
  0
LINE
  8
0
 10
49.6934
 20
218.749
 11
49.5773
 21
218.855
  0
LINE
  8
0
 10
49.5773
 20
218.855
 11
49.4645
 21
218.964
  0
LINE
  8
0
 10
49.4645
 20
218.964
 11
49.3551
 21
219.077
  0
LINE
  8
0
 10
49.3551
 20
219.077
 11
49.2494
 21
219.193
  0
LINE
  8
0
 10
49.2494
 20
219.193
 11
49.1474
 21
219.313
  0
LINE
  8
0
 10
49.1474
 20
219.313
 11
49.0492
 21
219.435
  0
LINE
  8
0
 10
49.0492
 20
219.435
 11
48.9549
 21
219.561
  0
LINE
  8
0
 10
48.9549
 20
219.561
 11
48.8646
 21
219.69
  0
LINE
  8
0
 10
48.8646
 20
219.69
 11
48.7784
 21
219.821
  0
LINE
  8
0
 10
48.7784
 20
219.821
 11
48.6963
 21
219.955
  0
LINE
  8
0
 10
48.6963
 20
219.955
 11
48.6185
 21
220.091
  0
LINE
  8
0
 10
48.6185
 20
220.091
 11
48.545
 21
220.23
  0
LINE
  8
0
 10
48.545
 20
220.23
 11
48.4759
 21
220.371
  0
LINE
  8
0
 10
48.4759
 20
220.371
 11
48.4112
 21
220.514
  0
LINE
  8
0
 10
48.4112
 20
220.514
 11
48.3511
 21
220.659
  0
LINE
  8
0
 10
48.3511
 20
220.659
 11
48.2956
 21
220.806
  0
LINE
  8
0
 10
48.2956
 20
220.806
 11
48.2447
 21
220.955
  0
LINE
  8
0
 10
48.2447
 20
220.955
 11
48.1985
 21
221.105
  0
LINE
  8
0
 10
48.1985
 20
221.105
 11
48.1571
 21
221.257
  0
LINE
  8
0
 10
48.1571
 20
221.257
 11
48.1204
 21
221.409
  0
LINE
  8
0
 10
48.1204
 20
221.409
 11
48.0886
 21
221.563
  0
LINE
  8
0
 10
48.0886
 20
221.563
 11
48.0616
 21
221.718
  0
LINE
  8
0
 10
48.0616
 20
221.718
 11
48.0394
 21
221.873
  0
LINE
  8
0
 10
48.0394
 20
221.873
 11
48.0222
 21
222.029
  0
LINE
  8
0
 10
48.0222
 20
222.029
 11
48.0099
 21
222.186
  0
LINE
  8
0
 10
48.0099
 20
222.186
 11
48.0025
 21
222.343
  0
LINE
  8
0
 10
48.0025
 20
222.343
 11
48
 21
222.5
  0
LINE
  8
0
 10
48
 20
222.5
 11
48
 21
239.5
  0
LINE
  8
0
 10
48
 20
239.5
 11
48.0025
 21
239.657
  0
LINE
  8
0
 10
48.0025
 20
239.657
 11
48.0099
 21
239.814
  0
LINE
  8
0
 10
48.0099
 20
239.814
 11
48.0222
 21
239.971
  0
LINE
  8
0
 10
48.0222
 20
239.971
 11
48.0394
 21
240.127
  0
LINE
  8
0
 10
48.0394
 20
240.127
 11
48.0616
 21
240.282
  0
LINE
  8
0
 10
48.0616
 20
240.282
 11
48.0886
 21
240.437
  0
LINE
  8
0
 10
48.0886
 20
240.437
 11
48.1204
 21
240.591
  0
LINE
  8
0
 10
48.1204
 20
240.591
 11
48.1571
 21
240.743
  0
LINE
  8
0
 10
48.1571
 20
240.743
 11
48.1985
 21
240.895
  0
LINE
  8
0
 10
48.1985
 20
240.895
 11
48.2447
 21
241.045
  0
LINE
  8
0
 10
48.2447
 20
241.045
 11
48.2956
 21
241.194
  0
LINE
  8
0
 10
48.2956
 20
241.194
 11
48.3511
 21
241.341
  0
LINE
  8
0
 10
48.3511
 20
241.341
 11
48.4112
 21
241.486
  0
LINE
  8
0
 10
48.4112
 20
241.486
 11
48.4759
 21
241.629
  0
LINE
  8
0
 10
48.4759
 20
241.629
 11
48.545
 21
241.77
  0
LINE
  8
0
 10
48.545
 20
241.77
 11
48.6185
 21
241.909
  0
LINE
  8
0
 10
48.6185
 20
241.909
 11
48.6963
 21
242.045
  0
LINE
  8
0
 10
48.6963
 20
242.045
 11
48.7784
 21
242.179
  0
LINE
  8
0
 10
48.7784
 20
242.179
 11
48.8646
 21
242.31
  0
LINE
  8
0
 10
48.8646
 20
242.31
 11
48.9549
 21
242.439
  0
LINE
  8
0
 10
48.9549
 20
242.439
 11
49.0492
 21
242.565
  0
LINE
  8
0
 10
49.0492
 20
242.565
 11
49.1474
 21
242.687
  0
LINE
  8
0
 10
49.1474
 20
242.687
 11
49.2494
 21
242.807
  0
LINE
  8
0
 10
49.2494
 20
242.807
 11
49.3551
 21
242.923
  0
LINE
  8
0
 10
49.3551
 20
242.923
 11
49.4645
 21
243.036
  0
LINE
  8
0
 10
49.4645
 20
243.036
 11
49.5773
 21
243.145
  0
LINE
  8
0
 10
49.5773
 20
243.145
 11
49.6934
 21
243.251
  0
LINE
  8
0
 10
49.6934
 20
243.251
 11
49.8129
 21
243.353
  0
LINE
  8
0
 10
49.8129
 20
243.353
 11
49.9355
 21
243.451
  0
LINE
  8
0
 10
49.9355
 20
243.451
 11
50.0611
 21
243.545
  0
LINE
  8
0
 10
50.0611
 20
243.545
 11
50.1896
 21
243.635
  0
LINE
  8
0
 10
50.1896
 20
243.635
 11
50.3209
 21
243.722
  0
LINE
  8
0
 10
50.3209
 20
243.722
 11
50.4548
 21
243.804
  0
LINE
  8
0
 10
50.4548
 20
243.804
 11
50.5912
 21
243.882
  0
LINE
  8
0
 10
50.5912
 20
243.882
 11
50.73
 21
243.955
  0
LINE
  8
0
 10
50.73
 20
243.955
 11
50.8711
 21
244.024
  0
LINE
  8
0
 10
50.8711
 20
244.024
 11
51.0143
 21
244.089
  0
LINE
  8
0
 10
51.0143
 20
244.089
 11
51.1594
 21
244.149
  0
LINE
  8
0
 10
51.1594
 20
244.149
 11
51.3063
 21
244.204
  0
LINE
  8
0
 10
51.3063
 20
244.204
 11
51.4549
 21
244.255
  0
LINE
  8
0
 10
51.4549
 20
244.255
 11
51.605
 21
244.301
  0
LINE
  8
0
 10
51.605
 20
244.301
 11
51.7565
 21
244.343
  0
LINE
  8
0
 10
51.7565
 20
244.343
 11
51.9093
 21
244.38
  0
LINE
  8
0
 10
51.9093
 20
244.38
 11
52.0631
 21
244.411
  0
LINE
  8
0
 10
52.0631
 20
244.411
 11
52.2178
 21
244.438
  0
LINE
  8
0
 10
52.2178
 20
244.438
 11
52.3733
 21
244.461
  0
LINE
  8
0
 10
52.3733
 20
244.461
 11
52.5294
 21
244.478
  0
LINE
  8
0
 10
52.5294
 20
244.478
 11
52.686
 21
244.49
  0
LINE
  8
0
 10
52.686
 20
244.49
 11
52.8429
 21
244.498
  0
LINE
  8
0
 10
52.8429
 20
244.498
 11
53
 21
244.5
  0
LINE
  8
0
 10
53
 20
244.5
 11
139
 21
244.5
  0
LINE
  8
0
 10
139
 20
244.5
 11
139.157
 21
244.498
  0
LINE
  8
0
 10
139.157
 20
244.498
 11
139.314
 21
244.49
  0
LINE
  8
0
 10
139.314
 20
244.49
 11
139.471
 21
244.478
  0
LINE
  8
0
 10
139.471
 20
244.478
 11
139.627
 21
244.461
  0
LINE
  8
0
 10
139.627
 20
244.461
 11
139.782
 21
244.438
  0
LINE
  8
0
 10
139.782
 20
244.438
 11
139.937
 21
244.411
  0
LINE
  8
0
 10
139.937
 20
244.411
 11
140.091
 21
244.38
  0
LINE
  8
0
 10
140.091
 20
244.38
 11
140.243
 21
244.343
  0
LINE
  8
0
 10
140.243
 20
244.343
 11
140.395
 21
244.301
  0
LINE
  8
0
 10
140.395
 20
244.301
 11
140.545
 21
244.255
  0
LINE
  8
0
 10
140.545
 20
244.255
 11
140.694
 21
244.204
  0
LINE
  8
0
 10
140.694
 20
244.204
 11
140.841
 21
244.149
  0
LINE
  8
0
 10
140.841
 20
244.149
 11
140.986
 21
244.089
  0
LINE
  8
0
 10
140.986
 20
244.089
 11
141.129
 21
244.024
  0
LINE
  8
0
 10
141.129
 20
244.024
 11
141.27
 21
243.955
  0
LINE
  8
0
 10
141.27
 20
243.955
 11
141.409
 21
243.882
  0
LINE
  8
0
 10
141.409
 20
243.882
 11
141.545
 21
243.804
  0
LINE
  8
0
 10
141.545
 20
243.804
 11
141.679
 21
243.722
  0
LINE
  8
0
 10
141.679
 20
243.722
 11
141.81
 21
243.635
  0
LINE
  8
0
 10
141.81
 20
243.635
 11
141.939
 21
243.545
  0
LINE
  8
0
 10
141.939
 20
243.545
 11
142.065
 21
243.451
  0
LINE
  8
0
 10
142.065
 20
243.451
 11
142.187
 21
243.353
  0
LINE
  8
0
 10
142.187
 20
243.353
 11
142.307
 21
243.251
  0
LINE
  8
0
 10
142.307
 20
243.251
 11
142.423
 21
243.145
  0
LINE
  8
0
 10
142.423
 20
243.145
 11
142.536
 21
243.036
  0
LINE
  8
0
 10
142.536
 20
243.036
 11
142.645
 21
242.923
  0
LINE
  8
0
 10
142.645
 20
242.923
 11
142.751
 21
242.807
  0
LINE
  8
0
 10
142.751
 20
242.807
 11
142.853
 21
242.687
  0
LINE
  8
0
 10
142.853
 20
242.687
 11
142.951
 21
242.565
  0
LINE
  8
0
 10
142.951
 20
242.565
 11
143.045
 21
242.439
  0
LINE
  8
0
 10
143.045
 20
242.439
 11
143.135
 21
242.31
  0
LINE
  8
0
 10
143.135
 20
242.31
 11
143.222
 21
242.179
  0
LINE
  8
0
 10
143.222
 20
242.179
 11
143.304
 21
242.045
  0
LINE
  8
0
 10
143.304
 20
242.045
 11
143.382
 21
241.909
  0
LINE
  8
0
 10
143.382
 20
241.909
 11
143.455
 21
241.77
  0
LINE
  8
0
 10
143.455
 20
241.77
 11
143.524
 21
241.629
  0
LINE
  8
0
 10
143.524
 20
241.629
 11
143.589
 21
241.486
  0
LINE
  8
0
 10
143.589
 20
241.486
 11
143.649
 21
241.341
  0
LINE
  8
0
 10
143.649
 20
241.341
 11
143.704
 21
241.194
  0
LINE
  8
0
 10
143.704
 20
241.194
 11
143.755
 21
241.045
  0
LINE
  8
0
 10
143.755
 20
241.045
 11
143.801
 21
240.895
  0
LINE
  8
0
 10
143.801
 20
240.895
 11
143.843
 21
240.743
  0
LINE
  8
0
 10
143.843
 20
240.743
 11
143.88
 21
240.591
  0
LINE
  8
0
 10
143.88
 20
240.591
 11
143.911
 21
240.437
  0
LINE
  8
0
 10
143.911
 20
240.437
 11
143.938
 21
240.282
  0
LINE
  8
0
 10
143.938
 20
240.282
 11
143.961
 21
240.127
  0
LINE
  8
0
 10
143.961
 20
240.127
 11
143.978
 21
239.971
  0
LINE
  8
0
 10
143.978
 20
239.971
 11
143.99
 21
239.814
  0
LINE
  8
0
 10
143.99
 20
239.814
 11
143.998
 21
239.657
  0
LINE
  8
0
 10
143.998
 20
239.657
 11
144
 21
239.5
  0
LINE
  8
0
 10
144
 20
239.5
 11
144
 21
222.5
  0
LINE
  8
0
 10
144
 20
222.5
 11
143.998
 21
222.343
  0
LINE
  8
0
 10
143.998
 20
222.343
 11
143.99
 21
222.186
  0
LINE
  8
0
 10
143.99
 20
222.186
 11
143.978
 21
222.029
  0
LINE
  8
0
 10
143.978
 20
222.029
 11
143.961
 21
221.873
  0
LINE
  8
0
 10
143.961
 20
221.873
 11
143.938
 21
221.718
  0
LINE
  8
0
 10
143.938
 20
221.718
 11
143.911
 21
221.563
  0
LINE
  8
0
 10
143.911
 20
221.563
 11
143.88
 21
221.409
  0
LINE
  8
0
 10
143.88
 20
221.409
 11
143.843
 21
221.257
  0
LINE
  8
0
 10
143.843
 20
221.257
 11
143.801
 21
221.105
  0
LINE
  8
0
 10
143.801
 20
221.105
 11
143.755
 21
220.955
  0
LINE
  8
0
 10
143.755
 20
220.955
 11
143.704
 21
220.806
  0
LINE
  8
0
 10
143.704
 20
220.806
 11
143.649
 21
220.659
  0
LINE
  8
0
 10
143.649
 20
220.659
 11
143.589
 21
220.514
  0
LINE
  8
0
 10
143.589
 20
220.514
 11
143.524
 21
220.371
  0
LINE
  8
0
 10
143.524
 20
220.371
 11
143.455
 21
220.23
  0
LINE
  8
0
 10
143.455
 20
220.23
 11
143.382
 21
220.091
  0
LINE
  8
0
 10
143.382
 20
220.091
 11
143.304
 21
219.955
  0
LINE
  8
0
 10
143.304
 20
219.955
 11
143.222
 21
219.821
  0
LINE
  8
0
 10
143.222
 20
219.821
 11
143.135
 21
219.69
  0
LINE
  8
0
 10
143.135
 20
219.69
 11
143.045
 21
219.561
  0
LINE
  8
0
 10
143.045
 20
219.561
 11
142.951
 21
219.435
  0
LINE
  8
0
 10
142.951
 20
219.435
 11
142.853
 21
219.313
  0
LINE
  8
0
 10
142.853
 20
219.313
 11
142.751
 21
219.193
  0
LINE
  8
0
 10
142.751
 20
219.193
 11
142.645
 21
219.077
  0
LINE
  8
0
 10
142.645
 20
219.077
 11
142.536
 21
218.964
  0
LINE
  8
0
 10
142.536
 20
218.964
 11
142.423
 21
218.855
  0
LINE
  8
0
 10
142.423
 20
218.855
 11
142.307
 21
218.749
  0
LINE
  8
0
 10
142.307
 20
218.749
 11
142.187
 21
218.647
  0
LINE
  8
0
 10
142.187
 20
218.647
 11
142.065
 21
218.549
  0
LINE
  8
0
 10
142.065
 20
218.549
 11
141.939
 21
218.455
  0
LINE
  8
0
 10
141.939
 20
218.455
 11
141.81
 21
218.365
  0
LINE
  8
0
 10
141.81
 20
218.365
 11
141.679
 21
218.278
  0
LINE
  8
0
 10
141.679
 20
218.278
 11
141.545
 21
218.196
  0
LINE
  8
0
 10
141.545
 20
218.196
 11
141.409
 21
218.118
  0
LINE
  8
0
 10
141.409
 20
218.118
 11
141.27
 21
218.045
  0
LINE
  8
0
 10
141.27
 20
218.045
 11
141.129
 21
217.976
  0
LINE
  8
0
 10
141.129
 20
217.976
 11
140.986
 21
217.911
  0
LINE
  8
0
 10
140.986
 20
217.911
 11
140.841
 21
217.851
  0
LINE
  8
0
 10
140.841
 20
217.851
 11
140.694
 21
217.796
  0
LINE
  8
0
 10
140.694
 20
217.796
 11
140.545
 21
217.745
  0
LINE
  8
0
 10
140.545
 20
217.745
 11
140.395
 21
217.699
  0
LINE
  8
0
 10
140.395
 20
217.699
 11
140.243
 21
217.657
  0
LINE
  8
0
 10
140.243
 20
217.657
 11
140.091
 21
217.62
  0
LINE
  8
0
 10
140.091
 20
217.62
 11
139.937
 21
217.589
  0
LINE
  8
0
 10
139.937
 20
217.589
 11
139.782
 21
217.562
  0
LINE
  8
0
 10
139.782
 20
217.562
 11
139.627
 21
217.539
  0
LINE
  8
0
 10
139.627
 20
217.539
 11
139.471
 21
217.522
  0
LINE
  8
0
 10
139.471
 20
217.522
 11
139.314
 21
217.51
  0
LINE
  8
0
 10
139.314
 20
217.51
 11
139.157
 21
217.502
  0
LINE
  8
0
 10
139.157
 20
217.502
 11
139
 21
217.5
  0
LINE
  8
0
 10
139
 20
217.5
 11
53
 21
217.5
  0
LINE
  8
0
 10
219.535
 20
0.0648804
 11
219.708
 21
0.0730286
  0
LINE
  8
0
 10
219.708
 20
0.0730286
 11
219.88
 21
0.0865784
  0
LINE
  8
0
 10
219.88
 20
0.0865784
 11
220.052
 21
0.105545
  0
LINE
  8
0
 10
220.052
 20
0.105545
 11
220.223
 21
0.129883
  0
LINE
  8
0
 10
220.223
 20
0.129883
 11
220.393
 21
0.159592
  0
LINE
  8
0
 10
220.393
 20
0.159592
 11
220.562
 21
0.194626
  0
LINE
  8
0
 10
220.562
 20
0.194626
 11
220.73
 21
0.234955
  0
LINE
  8
0
 10
220.73
 20
0.234955
 11
220.897
 21
0.280548
  0
LINE
  8
0
 10
220.897
 20
0.280548
 11
221.062
 21
0.33136
  0
LINE
  8
0
 10
221.062
 20
0.33136
 11
221.225
 21
0.387329
  0
LINE
  8
0
 10
221.225
 20
0.387329
 11
221.387
 21
0.448395
  0
LINE
  8
0
 10
221.387
 20
0.448395
 11
221.546
 21
0.514511
  0
LINE
  8
0
 10
221.546
 20
0.514511
 11
221.704
 21
0.585617
  0
LINE
  8
0
 10
221.704
 20
0.585617
 11
221.859
 21
0.661636
  0
LINE
  8
0
 10
221.859
 20
0.661636
 11
222.012
 21
0.742477
  0
LINE
  8
0
 10
222.012
 20
0.742477
 11
222.162
 21
0.828094
  0
LINE
  8
0
 10
222.162
 20
0.828094
 11
222.309
 21
0.918365
  0
LINE
  8
0
 10
222.309
 20
0.918365
 11
222.454
 21
1.01323
  0
LINE
  8
0
 10
222.454
 20
1.01323
 11
222.595
 21
1.11258
  0
LINE
  8
0
 10
222.595
 20
1.11258
 11
222.733
 21
1.21631
  0
LINE
  8
0
 10
222.733
 20
1.21631
 11
222.868
 21
1.32434
  0
LINE
  8
0
 10
222.868
 20
1.32434
 11
222.999
 21
1.43655
  0
LINE
  8
0
 10
222.999
 20
1.43655
 11
223.127
 21
1.55284
  0
LINE
  8
0
 10
223.127
 20
1.55284
 11
223.251
 21
1.67307
  0
LINE
  8
0
 10
223.251
 20
1.67307
 11
250.378
 21
28.8
  0
LINE
  8
0
 10
250.378
 20
28.8
 11
250.378
 21
28.8
  0
LINE
  8
0
 10
250.378
 20
28.8
 11
250.389
 21
28.8109
  0
LINE
  8
0
 10
250.389
 20
28.8109
 11
250.509
 21
28.935
  0
LINE
  8
0
 10
250.509
 20
28.935
 11
250.626
 21
29.0628
  0
LINE
  8
0
 10
250.626
 20
29.0628
 11
250.738
 21
29.1942
  0
LINE
  8
0
 10
250.738
 20
29.1942
 11
250.846
 21
29.329
  0
LINE
  8
0
 10
250.846
 20
29.329
 11
250.95
 21
29.4672
  0
LINE
  8
0
 10
250.95
 20
29.4672
 11
251.049
 21
29.6085
  0
LINE
  8
0
 10
251.049
 20
29.6085
 11
251.144
 21
29.7529
  0
LINE
  8
0
 10
251.144
 20
29.7529
 11
251.234
 21
29.9003
  0
LINE
  8
0
 10
251.234
 20
29.9003
 11
251.32
 21
30.0504
  0
LINE
  8
0
 10
251.32
 20
30.0504
 11
251.401
 21
30.203
  0
LINE
  8
0
 10
251.401
 20
30.203
 11
251.477
 21
30.3582
  0
LINE
  8
0
 10
251.477
 20
30.3582
 11
251.548
 21
30.5157
  0
LINE
  8
0
 10
251.548
 20
30.5157
 11
251.614
 21
30.6753
  0
LINE
  8
0
 10
251.614
 20
30.6753
 11
251.675
 21
30.8369
  0
LINE
  8
0
 10
251.675
 20
30.8369
 11
251.731
 21
31.0004
  0
LINE
  8
0
 10
251.731
 20
31.0004
 11
251.782
 21
31.1655
  0
LINE
  8
0
 10
251.782
 20
31.1655
 11
251.827
 21
31.3322
  0
LINE
  8
0
 10
251.827
 20
31.3322
 11
251.868
 21
31.5002
  0
LINE
  8
0
 10
251.868
 20
31.5002
 11
251.903
 21
31.6694
  0
LINE
  8
0
 10
251.903
 20
31.6694
 11
251.932
 21
31.8396
  0
LINE
  8
0
 10
251.932
 20
31.8396
 11
251.957
 21
32.0107
  0
LINE
  8
0
 10
251.957
 20
32.0107
 11
251.976
 21
32.1824
  0
LINE
  8
0
 10
251.976
 20
32.1824
 11
251.989
 21
32.3546
  0
LINE
  8
0
 10
251.989
 20
32.3546
 11
251.997
 21
32.5272
  0
LINE
  8
0
 10
251.997
 20
32.5272
 11
252
 21
32.7
  0
LINE
  8
0
 10
252
 20
32.7
 11
252
 21
60.2
  0
LINE
  8
0
 10
252
 20
60.2
 11
248
 21
60.2
  0
LINE
  8
0
 10
248
 20
60.2
 11
248
 21
80.2
  0
LINE
  8
0
 10
248
 20
80.2
 11
252
 21
80.2
  0
LINE
  8
0
 10
252
 20
80.2
 11
252
 21
100.2
  0
LINE
  8
0
 10
252
 20
100.2
 11
248
 21
100.2
  0
LINE
  8
0
 10
248
 20
100.2
 11
248
 21
120.2
  0
LINE
  8
0
 10
248
 20
120.2
 11
252
 21
120.2
  0
LINE
  8
0
 10
252
 20
120.2
 11
252
 21
140.2
  0
LINE
  8
0
 10
252
 20
140.2
 11
248
 21
140.2
  0
LINE
  8
0
 10
248
 20
140.2
 11
248
 21
160.2
  0
LINE
  8
0
 10
248
 20
160.2
 11
252
 21
160.2
  0
LINE
  8
0
 10
252
 20
160.2
 11
252
 21
180.2
  0
LINE
  8
0
 10
252
 20
180.2
 11
248
 21
180.2
  0
LINE
  8
0
 10
248
 20
180.2
 11
248
 21
200.2
  0
LINE
  8
0
 10
248
 20
200.2
 11
252
 21
200.2
  0
LINE
  8
0
 10
252
 20
200.2
 11
252
 21
220.2
  0
LINE
  8
0
 10
252
 20
220.2
 11
248
 21
220.2
  0
LINE
  8
0
 10
248
 20
220.2
 11
248
 21
240.2
  0
LINE
  8
0
 10
248
 20
240.2
 11
235
 21
240.2
  0
LINE
  8
0
 10
235
 20
240.2
 11
235
 21
236.2
  0
LINE
  8
0
 10
235
 20
236.2
 11
215
 21
236.2
  0
LINE
  8
0
 10
215
 20
236.2
 11
215
 21
240.2
  0
LINE
  8
0
 10
215
 20
240.2
 11
202
 21
240.2
  0
LINE
  8
0
 10
202
 20
240.2
 11
202
 21
34.2
  0
LINE
  8
0
 10
202
 20
34.2
 11
202.023
 21
32.7551
  0
LINE
  8
0
 10
202.023
 20
32.7551
 11
202.091
 21
31.3116
  0
LINE
  8
0
 10
202.091
 20
31.3116
 11
202.204
 21
29.871
  0
LINE
  8
0
 10
202.204
 20
29.871
 11
202.363
 21
28.4347
  0
LINE
  8
0
 10
202.363
 20
28.4347
 11
202.566
 21
27.004
  0
LINE
  8
0
 10
202.566
 20
27.004
 11
202.815
 21
25.5805
  0
LINE
  8
0
 10
202.815
 20
25.5805
 11
203.108
 21
24.1654
  0
LINE
  8
0
 10
203.108
 20
24.1654
 11
203.445
 21
22.7603
  0
LINE
  8
0
 10
203.445
 20
22.7603
 11
203.826
 21
21.3664
  0
LINE
  8
0
 10
203.826
 20
21.3664
 11
204.251
 21
19.9852
  0
LINE
  8
0
 10
204.251
 20
19.9852
 11
204.719
 21
18.6181
  0
LINE
  8
0
 10
204.719
 20
18.6181
 11
205.23
 21
17.2663
  0
LINE
  8
0
 10
205.23
 20
17.2663
 11
205.783
 21
15.9312
  0
LINE
  8
0
 10
205.783
 20
15.9312
 11
206.378
 21
14.6142
  0
LINE
  8
0
 10
206.378
 20
14.6142
 11
207.014
 21
13.3164
  0
LINE
  8
0
 10
207.014
 20
13.3164
 11
207.69
 21
12.0393
  0
LINE
  8
0
 10
207.69
 20
12.0393
 11
208.406
 21
10.7841
  0
LINE
  8
0
 10
208.406
 20
10.7841
 11
209.161
 21
9.55197
  0
LINE
  8
0
 10
209.161
 20
9.55197
 11
209.954
 21
8.34416
  0
LINE
  8
0
 10
209.954
 20
8.34416
 11
210.785
 21
7.16188
  0
LINE
  8
0
 10
210.785
 20
7.16188
 11
211.653
 21
6.00629
  0
LINE
  8
0
 10
211.653
 20
6.00629
 11
212.556
 21
4.87849
  0
LINE
  8
0
 10
212.556
 20
4.87849
 11
213.495
 21
3.77966
  0
LINE
  8
0
 10
213.495
 20
3.77966
 11
214.467
 21
2.71083
  0
LINE
  8
0
 10
214.467
 20
2.71083
 11
215.473
 21
1.67307
  0
LINE
  8
0
 10
215.473
 20
1.67307
 11
215.597
 21
1.55284
  0
LINE
  8
0
 10
215.597
 20
1.55284
 11
215.725
 21
1.43655
  0
LINE
  8
0
 10
215.725
 20
1.43655
 11
215.856
 21
1.32434
  0
LINE
  8
0
 10
215.856
 20
1.32434
 11
215.991
 21
1.21631
  0
LINE
  8
0
 10
215.991
 20
1.21631
 11
216.129
 21
1.11258
  0
LINE
  8
0
 10
216.129
 20
1.11258
 11
216.271
 21
1.01323
  0
LINE
  8
0
 10
216.271
 20
1.01323
 11
216.415
 21
0.918365
  0
LINE
  8
0
 10
216.415
 20
0.918365
 11
216.562
 21
0.828094
  0
LINE
  8
0
 10
216.562
 20
0.828094
 11
216.713
 21
0.742477
  0
LINE
  8
0
 10
216.713
 20
0.742477
 11
216.865
 21
0.661636
  0
LINE
  8
0
 10
216.865
 20
0.661636
 11
217.02
 21
0.585617
  0
LINE
  8
0
 10
217.02
 20
0.585617
 11
217.178
 21
0.514511
  0
LINE
  8
0
 10
217.178
 20
0.514511
 11
217.337
 21
0.448395
  0
LINE
  8
0
 10
217.337
 20
0.448395
 11
217.499
 21
0.387329
  0
LINE
  8
0
 10
217.499
 20
0.387329
 11
217.663
 21
0.33136
  0
LINE
  8
0
 10
217.663
 20
0.33136
 11
217.828
 21
0.280548
  0
LINE
  8
0
 10
217.828
 20
0.280548
 11
217.994
 21
0.234955
  0
LINE
  8
0
 10
217.994
 20
0.234955
 11
218.162
 21
0.194626
  0
LINE
  8
0
 10
218.162
 20
0.194626
 11
218.332
 21
0.159592
  0
LINE
  8
0
 10
218.332
 20
0.159592
 11
218.502
 21
0.129883
  0
LINE
  8
0
 10
218.502
 20
0.129883
 11
218.673
 21
0.105545
  0
LINE
  8
0
 10
218.673
 20
0.105545
 11
218.845
 21
0.0865784
  0
LINE
  8
0
 10
218.845
 20
0.0865784
 11
219.017
 21
0.0730286
  0
LINE
  8
0
 10
219.017
 20
0.0730286
 11
219.189
 21
0.0648804
  0
LINE
  8
0
 10
219.189
 20
0.0648804
 11
219.362
 21
0.0621643
  0
LINE
  8
0
 10
219.362
 20
0.0621643
 11
219.535
 21
0.0648804
  0
LINE
  8
0
 10
247.953
 20
32.7007
 11
247.906
 21
32.703
  0
LINE
  8
0
 10
247.906
 20
32.703
 11
247.859
 21
32.7066
  0
LINE
  8
0
 10
247.859
 20
32.7066
 11
247.812
 21
32.7118
  0
LINE
  8
0
 10
247.812
 20
32.7118
 11
247.765
 21
32.7185
  0
LINE
  8
0
 10
247.765
 20
32.7185
 11
247.719
 21
32.7266
  0
LINE
  8
0
 10
247.719
 20
32.7266
 11
247.673
 21
32.7361
  0
LINE
  8
0
 10
247.673
 20
32.7361
 11
247.627
 21
32.7471
  0
LINE
  8
0
 10
247.627
 20
32.7471
 11
247.582
 21
32.7596
  0
LINE
  8
0
 10
247.582
 20
32.7596
 11
247.536
 21
32.7734
  0
LINE
  8
0
 10
247.536
 20
32.7734
 11
247.492
 21
32.7887
  0
LINE
  8
0
 10
247.492
 20
32.7887
 11
247.448
 21
32.8053
  0
LINE
  8
0
 10
247.448
 20
32.8053
 11
247.404
 21
32.8234
  0
LINE
  8
0
 10
247.404
 20
32.8234
 11
247.361
 21
32.8428
  0
LINE
  8
0
 10
247.361
 20
32.8428
 11
247.319
 21
32.8635
  0
LINE
  8
0
 10
247.319
 20
32.8635
 11
247.277
 21
32.8855
  0
LINE
  8
0
 10
247.277
 20
32.8855
 11
247.236
 21
32.9089
  0
LINE
  8
0
 10
247.236
 20
32.9089
 11
247.196
 21
32.9335
  0
LINE
  8
0
 10
247.196
 20
32.9335
 11
247.157
 21
32.9594
  0
LINE
  8
0
 10
247.157
 20
32.9594
 11
247.118
 21
32.9865
  0
LINE
  8
0
 10
247.118
 20
32.9865
 11
247.081
 21
33.0148
  0
LINE
  8
0
 10
247.081
 20
33.0148
 11
247.044
 21
33.0442
  0
LINE
  8
0
 10
247.044
 20
33.0442
 11
247.008
 21
33.0748
  0
LINE
  8
0
 10
247.008
 20
33.0748
 11
246.973
 21
33.1065
  0
LINE
  8
0
 10
246.973
 20
33.1065
 11
246.939
 21
33.1393
  0
LINE
  8
0
 10
246.939
 20
33.1393
 11
246.907
 21
33.1732
  0
LINE
  8
0
 10
246.907
 20
33.1732
 11
246.875
 21
33.208
  0
LINE
  8
0
 10
246.875
 20
33.208
 11
246.844
 21
33.2439
  0
LINE
  8
0
 10
246.844
 20
33.2439
 11
246.815
 21
33.2806
  0
LINE
  8
0
 10
246.815
 20
33.2806
 11
246.786
 21
33.3183
  0
LINE
  8
0
 10
246.786
 20
33.3183
 11
246.759
 21
33.3569
  0
LINE
  8
0
 10
246.759
 20
33.3569
 11
246.734
 21
33.3963
  0
LINE
  8
0
 10
246.734
 20
33.3963
 11
246.709
 21
33.4364
  0
LINE
  8
0
 10
246.709
 20
33.4364
 11
246.686
 21
33.4774
  0
LINE
  8
0
 10
246.686
 20
33.4774
 11
246.663
 21
33.519
  0
LINE
  8
0
 10
246.663
 20
33.519
 11
246.643
 21
33.5613
  0
LINE
  8
0
 10
246.643
 20
33.5613
 11
246.623
 21
33.6043
  0
LINE
  8
0
 10
246.623
 20
33.6043
 11
246.605
 21
33.6478
  0
LINE
  8
0
 10
246.605
 20
33.6478
 11
246.589
 21
33.6919
  0
LINE
  8
0
 10
246.589
 20
33.6919
 11
246.573
 21
33.7365
  0
LINE
  8
0
 10
246.573
 20
33.7365
 11
246.56
 21
33.7815
  0
LINE
  8
0
 10
246.56
 20
33.7815
 11
246.547
 21
33.827
  0
LINE
  8
0
 10
246.547
 20
33.827
 11
246.536
 21
33.8728
  0
LINE
  8
0
 10
246.536
 20
33.8728
 11
246.527
 21
33.9189
  0
LINE
  8
0
 10
246.527
 20
33.9189
 11
246.518
 21
33.9653
  0
LINE
  8
0
 10
246.518
 20
33.9653
 11
246.512
 21
34.012
  0
LINE
  8
0
 10
246.512
 20
34.012
 11
246.507
 21
34.0588
  0
LINE
  8
0
 10
246.507
 20
34.0588
 11
246.503
 21
34.1058
  0
LINE
  8
0
 10
246.503
 20
34.1058
 11
246.501
 21
34.1529
  0
LINE
  8
0
 10
246.501
 20
34.1529
 11
246.5
 21
34.2
  0
LINE
  8
0
 10
246.5
 20
34.2
 11
246.501
 21
34.2471
  0
LINE
  8
0
 10
246.501
 20
34.2471
 11
246.503
 21
34.2942
  0
LINE
  8
0
 10
246.503
 20
34.2942
 11
246.507
 21
34.3412
  0
LINE
  8
0
 10
246.507
 20
34.3412
 11
246.512
 21
34.388
  0
LINE
  8
0
 10
246.512
 20
34.388
 11
246.518
 21
34.4346
  0
LINE
  8
0
 10
246.518
 20
34.4346
 11
246.527
 21
34.4811
  0
LINE
  8
0
 10
246.527
 20
34.4811
 11
246.536
 21
34.5272
  0
LINE
  8
0
 10
246.536
 20
34.5272
 11
246.547
 21
34.573
  0
LINE
  8
0
 10
246.547
 20
34.573
 11
246.56
 21
34.6185
  0
LINE
  8
0
 10
246.56
 20
34.6185
 11
246.573
 21
34.6635
  0
LINE
  8
0
 10
246.573
 20
34.6635
 11
246.589
 21
34.7081
  0
LINE
  8
0
 10
246.589
 20
34.7081
 11
246.605
 21
34.7522
  0
LINE
  8
0
 10
246.605
 20
34.7522
 11
246.623
 21
34.7957
  0
LINE
  8
0
 10
246.623
 20
34.7957
 11
246.643
 21
34.8387
  0
LINE
  8
0
 10
246.643
 20
34.8387
 11
246.663
 21
34.881
  0
LINE
  8
0
 10
246.663
 20
34.881
 11
246.686
 21
34.9226
  0
LINE
  8
0
 10
246.686
 20
34.9226
 11
246.709
 21
34.9636
  0
LINE
  8
0
 10
246.709
 20
34.9636
 11
246.734
 21
35.0037
  0
LINE
  8
0
 10
246.734
 20
35.0037
 11
246.759
 21
35.0431
  0
LINE
  8
0
 10
246.759
 20
35.0431
 11
246.786
 21
35.0817
  0
LINE
  8
0
 10
246.786
 20
35.0817
 11
246.815
 21
35.1194
  0
LINE
  8
0
 10
246.815
 20
35.1194
 11
246.844
 21
35.1561
  0
LINE
  8
0
 10
246.844
 20
35.1561
 11
246.875
 21
35.192
  0
LINE
  8
0
 10
246.875
 20
35.192
 11
246.907
 21
35.2268
  0
LINE
  8
0
 10
246.907
 20
35.2268
 11
246.939
 21
35.2607
  0
LINE
  8
0
 10
246.939
 20
35.2607
 11
246.973
 21
35.2934
  0
LINE
  8
0
 10
246.973
 20
35.2934
 11
247.008
 21
35.3252
  0
LINE
  8
0
 10
247.008
 20
35.3252
 11
247.044
 21
35.3558
  0
LINE
  8
0
 10
247.044
 20
35.3558
 11
247.081
 21
35.3852
  0
LINE
  8
0
 10
247.081
 20
35.3852
 11
247.118
 21
35.4135
  0
LINE
  8
0
 10
247.118
 20
35.4135
 11
247.157
 21
35.4406
  0
LINE
  8
0
 10
247.157
 20
35.4406
 11
247.196
 21
35.4665
  0
LINE
  8
0
 10
247.196
 20
35.4665
 11
247.236
 21
35.4911
  0
LINE
  8
0
 10
247.236
 20
35.4911
 11
247.277
 21
35.5145
  0
LINE
  8
0
 10
247.277
 20
35.5145
 11
247.319
 21
35.5365
  0
LINE
  8
0
 10
247.319
 20
35.5365
 11
247.361
 21
35.5572
  0
LINE
  8
0
 10
247.361
 20
35.5572
 11
247.404
 21
35.5766
  0
LINE
  8
0
 10
247.404
 20
35.5766
 11
247.448
 21
35.5947
  0
LINE
  8
0
 10
247.448
 20
35.5947
 11
247.492
 21
35.6113
  0
LINE
  8
0
 10
247.492
 20
35.6113
 11
247.536
 21
35.6266
  0
LINE
  8
0
 10
247.536
 20
35.6266
 11
247.582
 21
35.6404
  0
LINE
  8
0
 10
247.582
 20
35.6404
 11
247.627
 21
35.6529
  0
LINE
  8
0
 10
247.627
 20
35.6529
 11
247.673
 21
35.6639
  0
LINE
  8
0
 10
247.673
 20
35.6639
 11
247.719
 21
35.6734
  0
LINE
  8
0
 10
247.719
 20
35.6734
 11
247.765
 21
35.6815
  0
LINE
  8
0
 10
247.765
 20
35.6815
 11
247.812
 21
35.6882
  0
LINE
  8
0
 10
247.812
 20
35.6882
 11
247.859
 21
35.6933
  0
LINE
  8
0
 10
247.859
 20
35.6933
 11
247.906
 21
35.697
  0
LINE
  8
0
 10
247.906
 20
35.697
 11
247.953
 21
35.6992
  0
LINE
  8
0
 10
247.953
 20
35.6992
 11
248
 21
35.7
  0
LINE
  8
0
 10
248
 20
35.7
 11
248.047
 21
35.6992
  0
LINE
  8
0
 10
248.047
 20
35.6992
 11
248.094
 21
35.697
  0
LINE
  8
0
 10
248.094
 20
35.697
 11
248.141
 21
35.6933
  0
LINE
  8
0
 10
248.141
 20
35.6933
 11
248.188
 21
35.6882
  0
LINE
  8
0
 10
248.188
 20
35.6882
 11
248.235
 21
35.6815
  0
LINE
  8
0
 10
248.235
 20
35.6815
 11
248.281
 21
35.6734
  0
LINE
  8
0
 10
248.281
 20
35.6734
 11
248.327
 21
35.6639
  0
LINE
  8
0
 10
248.327
 20
35.6639
 11
248.373
 21
35.6529
  0
LINE
  8
0
 10
248.373
 20
35.6529
 11
248.418
 21
35.6404
  0
LINE
  8
0
 10
248.418
 20
35.6404
 11
248.464
 21
35.6266
  0
LINE
  8
0
 10
248.464
 20
35.6266
 11
248.508
 21
35.6113
  0
LINE
  8
0
 10
248.508
 20
35.6113
 11
248.552
 21
35.5947
  0
LINE
  8
0
 10
248.552
 20
35.5947
 11
248.596
 21
35.5766
  0
LINE
  8
0
 10
248.596
 20
35.5766
 11
248.639
 21
35.5572
  0
LINE
  8
0
 10
248.639
 20
35.5572
 11
248.681
 21
35.5365
  0
LINE
  8
0
 10
248.681
 20
35.5365
 11
248.723
 21
35.5145
  0
LINE
  8
0
 10
248.723
 20
35.5145
 11
248.764
 21
35.4911
  0
LINE
  8
0
 10
248.764
 20
35.4911
 11
248.804
 21
35.4665
  0
LINE
  8
0
 10
248.804
 20
35.4665
 11
248.843
 21
35.4406
  0
LINE
  8
0
 10
248.843
 20
35.4406
 11
248.882
 21
35.4135
  0
LINE
  8
0
 10
248.882
 20
35.4135
 11
248.919
 21
35.3852
  0
LINE
  8
0
 10
248.919
 20
35.3852
 11
248.956
 21
35.3558
  0
LINE
  8
0
 10
248.956
 20
35.3558
 11
248.992
 21
35.3252
  0
LINE
  8
0
 10
248.992
 20
35.3252
 11
249.027
 21
35.2934
  0
LINE
  8
0
 10
249.027
 20
35.2934
 11
249.061
 21
35.2607
  0
LINE
  8
0
 10
249.061
 20
35.2607
 11
249.093
 21
35.2268
  0
LINE
  8
0
 10
249.093
 20
35.2268
 11
249.125
 21
35.192
  0
LINE
  8
0
 10
249.125
 20
35.192
 11
249.156
 21
35.1561
  0
LINE
  8
0
 10
249.156
 20
35.1561
 11
249.185
 21
35.1194
  0
LINE
  8
0
 10
249.185
 20
35.1194
 11
249.214
 21
35.0817
  0
LINE
  8
0
 10
249.214
 20
35.0817
 11
249.241
 21
35.0431
  0
LINE
  8
0
 10
249.241
 20
35.0431
 11
249.266
 21
35.0037
  0
LINE
  8
0
 10
249.266
 20
35.0037
 11
249.291
 21
34.9636
  0
LINE
  8
0
 10
249.291
 20
34.9636
 11
249.314
 21
34.9226
  0
LINE
  8
0
 10
249.314
 20
34.9226
 11
249.337
 21
34.881
  0
LINE
  8
0
 10
249.337
 20
34.881
 11
249.357
 21
34.8387
  0
LINE
  8
0
 10
249.357
 20
34.8387
 11
249.377
 21
34.7957
  0
LINE
  8
0
 10
249.377
 20
34.7957
 11
249.395
 21
34.7522
  0
LINE
  8
0
 10
249.395
 20
34.7522
 11
249.411
 21
34.7081
  0
LINE
  8
0
 10
249.411
 20
34.7081
 11
249.427
 21
34.6635
  0
LINE
  8
0
 10
249.427
 20
34.6635
 11
249.44
 21
34.6185
  0
LINE
  8
0
 10
249.44
 20
34.6185
 11
249.453
 21
34.573
  0
LINE
  8
0
 10
249.453
 20
34.573
 11
249.464
 21
34.5272
  0
LINE
  8
0
 10
249.464
 20
34.5272
 11
249.473
 21
34.4811
  0
LINE
  8
0
 10
249.473
 20
34.4811
 11
249.482
 21
34.4346
  0
LINE
  8
0
 10
249.482
 20
34.4346
 11
249.488
 21
34.388
  0
LINE
  8
0
 10
249.488
 20
34.388
 11
249.493
 21
34.3412
  0
LINE
  8
0
 10
249.493
 20
34.3412
 11
249.497
 21
34.2942
  0
LINE
  8
0
 10
249.497
 20
34.2942
 11
249.499
 21
34.2471
  0
LINE
  8
0
 10
249.499
 20
34.2471
 11
249.5
 21
34.2
  0
LINE
  8
0
 10
249.5
 20
34.2
 11
249.499
 21
34.1529
  0
LINE
  8
0
 10
249.499
 20
34.1529
 11
249.497
 21
34.1058
  0
LINE
  8
0
 10
249.497
 20
34.1058
 11
249.493
 21
34.0588
  0
LINE
  8
0
 10
249.493
 20
34.0588
 11
249.488
 21
34.012
  0
LINE
  8
0
 10
249.488
 20
34.012
 11
249.482
 21
33.9653
  0
LINE
  8
0
 10
249.482
 20
33.9653
 11
249.473
 21
33.9189
  0
LINE
  8
0
 10
249.473
 20
33.9189
 11
249.464
 21
33.8728
  0
LINE
  8
0
 10
249.464
 20
33.8728
 11
249.453
 21
33.827
  0
LINE
  8
0
 10
249.453
 20
33.827
 11
249.44
 21
33.7815
  0
LINE
  8
0
 10
249.44
 20
33.7815
 11
249.427
 21
33.7365
  0
LINE
  8
0
 10
249.427
 20
33.7365
 11
249.411
 21
33.6919
  0
LINE
  8
0
 10
249.411
 20
33.6919
 11
249.395
 21
33.6478
  0
LINE
  8
0
 10
249.395
 20
33.6478
 11
249.377
 21
33.6043
  0
LINE
  8
0
 10
249.377
 20
33.6043
 11
249.357
 21
33.5613
  0
LINE
  8
0
 10
249.357
 20
33.5613
 11
249.337
 21
33.519
  0
LINE
  8
0
 10
249.337
 20
33.519
 11
249.314
 21
33.4774
  0
LINE
  8
0
 10
249.314
 20
33.4774
 11
249.291
 21
33.4364
  0
LINE
  8
0
 10
249.291
 20
33.4364
 11
249.266
 21
33.3963
  0
LINE
  8
0
 10
249.266
 20
33.3963
 11
249.241
 21
33.3569
  0
LINE
  8
0
 10
249.241
 20
33.3569
 11
249.214
 21
33.3183
  0
LINE
  8
0
 10
249.214
 20
33.3183
 11
249.185
 21
33.2806
  0
LINE
  8
0
 10
249.185
 20
33.2806
 11
249.156
 21
33.2439
  0
LINE
  8
0
 10
249.156
 20
33.2439
 11
249.125
 21
33.208
  0
LINE
  8
0
 10
249.125
 20
33.208
 11
249.093
 21
33.1732
  0
LINE
  8
0
 10
249.093
 20
33.1732
 11
249.061
 21
33.1393
  0
LINE
  8
0
 10
249.061
 20
33.1393
 11
249.027
 21
33.1065
  0
LINE
  8
0
 10
249.027
 20
33.1065
 11
248.992
 21
33.0748
  0
LINE
  8
0
 10
248.992
 20
33.0748
 11
248.956
 21
33.0442
  0
LINE
  8
0
 10
248.956
 20
33.0442
 11
248.919
 21
33.0148
  0
LINE
  8
0
 10
248.919
 20
33.0148
 11
248.882
 21
32.9865
  0
LINE
  8
0
 10
248.882
 20
32.9865
 11
248.843
 21
32.9594
  0
LINE
  8
0
 10
248.843
 20
32.9594
 11
248.804
 21
32.9335
  0
LINE
  8
0
 10
248.804
 20
32.9335
 11
248.764
 21
32.9089
  0
LINE
  8
0
 10
248.764
 20
32.9089
 11
248.723
 21
32.8855
  0
LINE
  8
0
 10
248.723
 20
32.8855
 11
248.681
 21
32.8635
  0
LINE
  8
0
 10
248.681
 20
32.8635
 11
248.639
 21
32.8428
  0
LINE
  8
0
 10
248.639
 20
32.8428
 11
248.596
 21
32.8234
  0
LINE
  8
0
 10
248.596
 20
32.8234
 11
248.552
 21
32.8053
  0
LINE
  8
0
 10
248.552
 20
32.8053
 11
248.508
 21
32.7887
  0
LINE
  8
0
 10
248.508
 20
32.7887
 11
248.464
 21
32.7734
  0
LINE
  8
0
 10
248.464
 20
32.7734
 11
248.418
 21
32.7596
  0
LINE
  8
0
 10
248.418
 20
32.7596
 11
248.373
 21
32.7471
  0
LINE
  8
0
 10
248.373
 20
32.7471
 11
248.327
 21
32.7361
  0
LINE
  8
0
 10
248.327
 20
32.7361
 11
248.281
 21
32.7266
  0
LINE
  8
0
 10
248.281
 20
32.7266
 11
248.235
 21
32.7185
  0
LINE
  8
0
 10
248.235
 20
32.7185
 11
248.188
 21
32.7118
  0
LINE
  8
0
 10
248.188
 20
32.7118
 11
248.141
 21
32.7066
  0
LINE
  8
0
 10
248.141
 20
32.7066
 11
248.094
 21
32.703
  0
LINE
  8
0
 10
248.094
 20
32.703
 11
248.047
 21
32.7007
  0
LINE
  8
0
 10
248.047
 20
32.7007
 11
248
 21
32.7
  0
LINE
  8
0
 10
248
 20
32.7
 11
247.953
 21
32.7007
  0
LINE
  8
0
 10
219.315
 20
4.06291
 11
219.268
 21
4.06512
  0
LINE
  8
0
 10
219.268
 20
4.06512
 11
219.221
 21
4.06883
  0
LINE
  8
0
 10
219.221
 20
4.06883
 11
219.174
 21
4.07399
  0
LINE
  8
0
 10
219.174
 20
4.07399
 11
219.128
 21
4.08064
  0
LINE
  8
0
 10
219.128
 20
4.08064
 11
219.081
 21
4.08875
  0
LINE
  8
0
 10
219.081
 20
4.08875
 11
219.035
 21
4.0983
  0
LINE
  8
0
 10
219.035
 20
4.0983
 11
218.989
 21
4.1093
  0
LINE
  8
0
 10
218.989
 20
4.1093
 11
218.944
 21
4.12173
  0
LINE
  8
0
 10
218.944
 20
4.12173
 11
218.899
 21
4.13559
  0
LINE
  8
0
 10
218.899
 20
4.13559
 11
218.854
 21
4.15085
  0
LINE
  8
0
 10
218.854
 20
4.15085
 11
218.81
 21
4.16751
  0
LINE
  8
0
 10
218.81
 20
4.16751
 11
218.766
 21
4.18553
  0
LINE
  8
0
 10
218.766
 20
4.18553
 11
218.724
 21
4.20493
  0
LINE
  8
0
 10
218.724
 20
4.20493
 11
218.681
 21
4.22566
  0
LINE
  8
0
 10
218.681
 20
4.22566
 11
218.64
 21
4.24771
  0
LINE
  8
0
 10
218.64
 20
4.24771
 11
218.599
 21
4.27106
  0
LINE
  8
0
 10
218.599
 20
4.27106
 11
218.558
 21
4.29567
  0
LINE
  8
0
 10
218.558
 20
4.29567
 11
218.519
 21
4.32155
  0
LINE
  8
0
 10
218.519
 20
4.32155
 11
218.48
 21
4.34865
  0
LINE
  8
0
 10
218.48
 20
4.34865
 11
218.443
 21
4.37694
  0
LINE
  8
0
 10
218.443
 20
4.37694
 11
218.406
 21
4.4064
  0
LINE
  8
0
 10
218.406
 20
4.4064
 11
218.37
 21
4.437
  0
LINE
  8
0
 10
218.37
 20
4.437
 11
218.335
 21
4.46872
  0
LINE
  8
0
 10
218.335
 20
4.46872
 11
218.302
 21
4.50151
  0
LINE
  8
0
 10
218.302
 20
4.50151
 11
217.383
 21
5.44902
  0
LINE
  8
0
 10
217.383
 20
5.44902
 11
216.495
 21
6.42491
  0
LINE
  8
0
 10
216.495
 20
6.42491
 11
215.638
 21
7.42819
  0
LINE
  8
0
 10
215.638
 20
7.42819
 11
214.813
 21
8.4579
  0
LINE
  8
0
 10
214.813
 20
8.4579
 11
214.021
 21
9.51303
  0
LINE
  8
0
 10
214.021
 20
9.51303
 11
213.263
 21
10.5925
  0
LINE
  8
0
 10
213.263
 20
10.5925
 11
212.538
 21
11.6953
  0
LINE
  8
0
 10
212.538
 20
11.6953
 11
211.849
 21
12.8203
  0
LINE
  8
0
 10
211.849
 20
12.8203
 11
211.195
 21
13.9664
  0
LINE
  8
0
 10
211.195
 20
13.9664
 11
210.578
 21
15.1324
  0
LINE
  8
0
 10
210.578
 20
15.1324
 11
209.997
 21
16.3173
  0
LINE
  8
0
 10
209.997
 20
16.3173
 11
209.454
 21
17.5198
  0
LINE
  8
0
 10
209.454
 20
17.5198
 11
208.949
 21
18.7388
  0
LINE
  8
0
 10
208.949
 20
18.7388
 11
208.483
 21
19.973
  0
LINE
  8
0
 10
208.483
 20
19.973
 11
208.056
 21
21.2213
  0
LINE
  8
0
 10
208.056
 20
21.2213
 11
207.668
 21
22.4824
  0
LINE
  8
0
 10
207.668
 20
22.4824
 11
207.32
 21
23.755
  0
LINE
  8
0
 10
207.32
 20
23.755
 11
207.012
 21
25.038
  0
LINE
  8
0
 10
207.012
 20
25.038
 11
206.744
 21
26.33
  0
LINE
  8
0
 10
206.744
 20
26.33
 11
206.517
 21
27.6298
  0
LINE
  8
0
 10
206.517
 20
27.6298
 11
206.331
 21
28.936
  0
LINE
  8
0
 10
206.331
 20
28.936
 11
206.186
 21
30.2475
  0
LINE
  8
0
 10
206.186
 20
30.2475
 11
206.083
 21
31.5628
  0
LINE
  8
0
 10
206.083
 20
31.5628
 11
206.021
 21
32.8808
  0
LINE
  8
0
 10
206.021
 20
32.8808
 11
206
 21
34.2
  0
LINE
  8
0
 10
206
 20
34.2
 11
206.001
 21
34.2471
  0
LINE
  8
0
 10
206.001
 20
34.2471
 11
206.003
 21
34.2942
  0
LINE
  8
0
 10
206.003
 20
34.2942
 11
206.007
 21
34.3412
  0
LINE
  8
0
 10
206.007
 20
34.3412
 11
206.012
 21
34.388
  0
LINE
  8
0
 10
206.012
 20
34.388
 11
206.018
 21
34.4346
  0
LINE
  8
0
 10
206.018
 20
34.4346
 11
206.027
 21
34.4811
  0
LINE
  8
0
 10
206.027
 20
34.4811
 11
206.036
 21
34.5272
  0
LINE
  8
0
 10
206.036
 20
34.5272
 11
206.047
 21
34.573
  0
LINE
  8
0
 10
206.047
 20
34.573
 11
206.06
 21
34.6185
  0
LINE
  8
0
 10
206.06
 20
34.6185
 11
206.073
 21
34.6635
  0
LINE
  8
0
 10
206.073
 20
34.6635
 11
206.089
 21
34.7081
  0
LINE
  8
0
 10
206.089
 20
34.7081
 11
206.105
 21
34.7522
  0
LINE
  8
0
 10
206.105
 20
34.7522
 11
206.123
 21
34.7957
  0
LINE
  8
0
 10
206.123
 20
34.7957
 11
206.143
 21
34.8387
  0
LINE
  8
0
 10
206.143
 20
34.8387
 11
206.163
 21
34.881
  0
LINE
  8
0
 10
206.163
 20
34.881
 11
206.186
 21
34.9226
  0
LINE
  8
0
 10
206.186
 20
34.9226
 11
206.209
 21
34.9636
  0
LINE
  8
0
 10
206.209
 20
34.9636
 11
206.234
 21
35.0037
  0
LINE
  8
0
 10
206.234
 20
35.0037
 11
206.259
 21
35.0431
  0
LINE
  8
0
 10
206.259
 20
35.0431
 11
206.286
 21
35.0817
  0
LINE
  8
0
 10
206.286
 20
35.0817
 11
206.315
 21
35.1194
  0
LINE
  8
0
 10
206.315
 20
35.1194
 11
206.344
 21
35.1561
  0
LINE
  8
0
 10
206.344
 20
35.1561
 11
206.375
 21
35.192
  0
LINE
  8
0
 10
206.375
 20
35.192
 11
206.407
 21
35.2268
  0
LINE
  8
0
 10
206.407
 20
35.2268
 11
206.439
 21
35.2607
  0
LINE
  8
0
 10
206.439
 20
35.2607
 11
206.473
 21
35.2934
  0
LINE
  8
0
 10
206.473
 20
35.2934
 11
206.508
 21
35.3252
  0
LINE
  8
0
 10
206.508
 20
35.3252
 11
206.544
 21
35.3558
  0
LINE
  8
0
 10
206.544
 20
35.3558
 11
206.581
 21
35.3852
  0
LINE
  8
0
 10
206.581
 20
35.3852
 11
206.618
 21
35.4135
  0
LINE
  8
0
 10
206.618
 20
35.4135
 11
206.657
 21
35.4406
  0
LINE
  8
0
 10
206.657
 20
35.4406
 11
206.696
 21
35.4665
  0
LINE
  8
0
 10
206.696
 20
35.4665
 11
206.736
 21
35.4911
  0
LINE
  8
0
 10
206.736
 20
35.4911
 11
206.777
 21
35.5145
  0
LINE
  8
0
 10
206.777
 20
35.5145
 11
206.819
 21
35.5365
  0
LINE
  8
0
 10
206.819
 20
35.5365
 11
206.861
 21
35.5572
  0
LINE
  8
0
 10
206.861
 20
35.5572
 11
206.904
 21
35.5766
  0
LINE
  8
0
 10
206.904
 20
35.5766
 11
206.948
 21
35.5947
  0
LINE
  8
0
 10
206.948
 20
35.5947
 11
206.992
 21
35.6113
  0
LINE
  8
0
 10
206.992
 20
35.6113
 11
207.036
 21
35.6266
  0
LINE
  8
0
 10
207.036
 20
35.6266
 11
207.082
 21
35.6404
  0
LINE
  8
0
 10
207.082
 20
35.6404
 11
207.127
 21
35.6529
  0
LINE
  8
0
 10
207.127
 20
35.6529
 11
207.173
 21
35.6639
  0
LINE
  8
0
 10
207.173
 20
35.6639
 11
207.219
 21
35.6734
  0
LINE
  8
0
 10
207.219
 20
35.6734
 11
207.265
 21
35.6815
  0
LINE
  8
0
 10
207.265
 20
35.6815
 11
207.312
 21
35.6882
  0
LINE
  8
0
 10
207.312
 20
35.6882
 11
207.359
 21
35.6933
  0
LINE
  8
0
 10
207.359
 20
35.6933
 11
207.406
 21
35.697
  0
LINE
  8
0
 10
207.406
 20
35.697
 11
207.453
 21
35.6992
  0
LINE
  8
0
 10
207.453
 20
35.6992
 11
207.5
 21
35.7
  0
LINE
  8
0
 10
207.5
 20
35.7
 11
207.547
 21
35.6992
  0
LINE
  8
0
 10
207.547
 20
35.6992
 11
207.594
 21
35.697
  0
LINE
  8
0
 10
207.594
 20
35.697
 11
207.641
 21
35.6933
  0
LINE
  8
0
 10
207.641
 20
35.6933
 11
207.688
 21
35.6882
  0
LINE
  8
0
 10
207.688
 20
35.6882
 11
207.735
 21
35.6815
  0
LINE
  8
0
 10
207.735
 20
35.6815
 11
207.781
 21
35.6734
  0
LINE
  8
0
 10
207.781
 20
35.6734
 11
207.827
 21
35.6639
  0
LINE
  8
0
 10
207.827
 20
35.6639
 11
207.873
 21
35.6529
  0
LINE
  8
0
 10
207.873
 20
35.6529
 11
207.918
 21
35.6404
  0
LINE
  8
0
 10
207.918
 20
35.6404
 11
207.964
 21
35.6266
  0
LINE
  8
0
 10
207.964
 20
35.6266
 11
208.008
 21
35.6113
  0
LINE
  8
0
 10
208.008
 20
35.6113
 11
208.052
 21
35.5947
  0
LINE
  8
0
 10
208.052
 20
35.5947
 11
208.096
 21
35.5766
  0
LINE
  8
0
 10
208.096
 20
35.5766
 11
208.139
 21
35.5572
  0
LINE
  8
0
 10
208.139
 20
35.5572
 11
208.181
 21
35.5365
  0
LINE
  8
0
 10
208.181
 20
35.5365
 11
208.223
 21
35.5145
  0
LINE
  8
0
 10
208.223
 20
35.5145
 11
208.264
 21
35.4911
  0
LINE
  8
0
 10
208.264
 20
35.4911
 11
208.304
 21
35.4665
  0
LINE
  8
0
 10
208.304
 20
35.4665
 11
208.343
 21
35.4406
  0
LINE
  8
0
 10
208.343
 20
35.4406
 11
208.382
 21
35.4135
  0
LINE
  8
0
 10
208.382
 20
35.4135
 11
208.419
 21
35.3852
  0
LINE
  8
0
 10
208.419
 20
35.3852
 11
208.456
 21
35.3558
  0
LINE
  8
0
 10
208.456
 20
35.3558
 11
208.492
 21
35.3252
  0
LINE
  8
0
 10
208.492
 20
35.3252
 11
208.527
 21
35.2934
  0
LINE
  8
0
 10
208.527
 20
35.2934
 11
208.561
 21
35.2607
  0
LINE
  8
0
 10
208.561
 20
35.2607
 11
208.593
 21
35.2268
  0
LINE
  8
0
 10
208.593
 20
35.2268
 11
208.625
 21
35.192
  0
LINE
  8
0
 10
208.625
 20
35.192
 11
208.656
 21
35.1561
  0
LINE
  8
0
 10
208.656
 20
35.1561
 11
208.685
 21
35.1194
  0
LINE
  8
0
 10
208.685
 20
35.1194
 11
208.714
 21
35.0817
  0
LINE
  8
0
 10
208.714
 20
35.0817
 11
208.741
 21
35.0431
  0
LINE
  8
0
 10
208.741
 20
35.0431
 11
208.766
 21
35.0037
  0
LINE
  8
0
 10
208.766
 20
35.0037
 11
208.791
 21
34.9636
  0
LINE
  8
0
 10
208.791
 20
34.9636
 11
208.814
 21
34.9226
  0
LINE
  8
0
 10
208.814
 20
34.9226
 11
208.837
 21
34.881
  0
LINE
  8
0
 10
208.837
 20
34.881
 11
208.857
 21
34.8387
  0
LINE
  8
0
 10
208.857
 20
34.8387
 11
208.877
 21
34.7957
  0
LINE
  8
0
 10
208.877
 20
34.7957
 11
208.895
 21
34.7522
  0
LINE
  8
0
 10
208.895
 20
34.7522
 11
208.911
 21
34.7081
  0
LINE
  8
0
 10
208.911
 20
34.7081
 11
208.927
 21
34.6635
  0
LINE
  8
0
 10
208.927
 20
34.6635
 11
208.94
 21
34.6185
  0
LINE
  8
0
 10
208.94
 20
34.6185
 11
208.953
 21
34.573
  0
LINE
  8
0
 10
208.953
 20
34.573
 11
208.964
 21
34.5272
  0
LINE
  8
0
 10
208.964
 20
34.5272
 11
208.973
 21
34.4811
  0
LINE
  8
0
 10
208.973
 20
34.4811
 11
208.982
 21
34.4346
  0
LINE
  8
0
 10
208.982
 20
34.4346
 11
208.988
 21
34.388
  0
LINE
  8
0
 10
208.988
 20
34.388
 11
208.993
 21
34.3412
  0
LINE
  8
0
 10
208.993
 20
34.3412
 11
208.997
 21
34.2942
  0
LINE
  8
0
 10
208.997
 20
34.2942
 11
208.999
 21
34.2471
  0
LINE
  8
0
 10
208.999
 20
34.2471
 11
209.019
 21
32.975
  0
LINE
  8
0
 10
209.019
 20
32.975
 11
209.077
 21
31.7512
  0
LINE
  8
0
 10
209.077
 20
31.7512
 11
209.173
 21
30.5298
  0
LINE
  8
0
 10
209.173
 20
30.5298
 11
209.308
 21
29.312
  0
LINE
  8
0
 10
209.308
 20
29.312
 11
209.48
 21
28.0991
  0
LINE
  8
0
 10
209.48
 20
28.0991
 11
209.691
 21
26.8921
  0
LINE
  8
0
 10
209.691
 20
26.8921
 11
209.939
 21
25.6924
  0
LINE
  8
0
 10
209.939
 20
25.6924
 11
210.225
 21
24.5011
  0
LINE
  8
0
 10
210.225
 20
24.5011
 11
210.549
 21
23.3194
  0
LINE
  8
0
 10
210.549
 20
23.3194
 11
210.909
 21
22.1483
  0
LINE
  8
0
 10
210.909
 20
22.1483
 11
211.306
 21
20.9892
  0
LINE
  8
0
 10
211.306
 20
20.9892
 11
211.739
 21
19.8431
  0
LINE
  8
0
 10
211.739
 20
19.8431
 11
212.208
 21
18.7112
  0
LINE
  8
0
 10
212.208
 20
18.7112
 11
212.712
 21
17.5946
  0
LINE
  8
0
 10
212.712
 20
17.5946
 11
213.251
 21
16.4944
  0
LINE
  8
0
 10
213.251
 20
16.4944
 11
213.824
 21
15.4116
  0
LINE
  8
0
 10
213.824
 20
15.4116
 11
214.431
 21
14.3474
  0
LINE
  8
0
 10
214.431
 20
14.3474
 11
215.071
 21
13.3028
  0
LINE
  8
0
 10
215.071
 20
13.3028
 11
215.744
 21
12.2787
  0
LINE
  8
0
 10
215.744
 20
12.2787
 11
216.448
 21
11.2764
  0
LINE
  8
0
 10
216.448
 20
11.2764
 11
217.184
 21
10.2966
  0
LINE
  8
0
 10
217.184
 20
10.2966
 11
217.95
 21
9.34047
  0
LINE
  8
0
 10
217.95
 20
9.34047
 11
218.746
 21
8.40884
  0
LINE
  8
0
 10
218.746
 20
8.40884
 11
219.57
 21
7.50267
  0
LINE
  8
0
 10
219.57
 20
7.50267
 11
220.456
 21
6.58899
  0
LINE
  8
0
 10
220.456
 20
6.58899
 11
220.487
 21
6.55414
  0
LINE
  8
0
 10
220.487
 20
6.55414
 11
220.518
 21
6.51831
  0
LINE
  8
0
 10
220.518
 20
6.51831
 11
220.547
 21
6.48152
  0
LINE
  8
0
 10
220.547
 20
6.48152
 11
220.576
 21
6.44385
  0
LINE
  8
0
 10
220.576
 20
6.44385
 11
220.603
 21
6.40529
  0
LINE
  8
0
 10
220.603
 20
6.40529
 11
220.629
 21
6.36591
  0
LINE
  8
0
 10
220.629
 20
6.36591
 11
220.653
 21
6.32573
  0
LINE
  8
0
 10
220.653
 20
6.32573
 11
220.677
 21
6.28481
  0
LINE
  8
0
 10
220.677
 20
6.28481
 11
220.699
 21
6.24315
  0
LINE
  8
0
 10
220.699
 20
6.24315
 11
220.719
 21
6.20084
  0
LINE
  8
0
 10
220.719
 20
6.20084
 11
220.739
 21
6.1579
  0
LINE
  8
0
 10
220.739
 20
6.1579
 11
220.757
 21
6.11435
  0
LINE
  8
0
 10
220.757
 20
6.11435
 11
220.773
 21
6.07028
  0
LINE
  8
0
 10
220.773
 20
6.07028
 11
220.789
 21
6.0257
  0
LINE
  8
0
 10
220.789
 20
6.0257
 11
220.803
 21
5.98065
  0
LINE
  8
0
 10
220.803
 20
5.98065
 11
220.815
 21
5.9352
  0
LINE
  8
0
 10
220.815
 20
5.9352
 11
220.826
 21
5.88939
  0
LINE
  8
0
 10
220.826
 20
5.88939
 11
220.836
 21
5.84325
  0
LINE
  8
0
 10
220.836
 20
5.84325
 11
220.844
 21
5.79681
  0
LINE
  8
0
 10
220.844
 20
5.79681
 11
220.85
 21
5.75017
  0
LINE
  8
0
 10
220.85
 20
5.75017
 11
220.856
 21
5.70332
  0
LINE
  8
0
 10
220.856
 20
5.70332
 11
220.859
 21
5.65636
  0
LINE
  8
0
 10
220.859
 20
5.65636
 11
220.861
 21
5.60928
  0
LINE
  8
0
 10
220.861
 20
5.60928
 11
220.862
 21
5.56216
  0
LINE
  8
0
 10
220.862
 20
5.56216
 11
220.861
 21
5.51505
  0
LINE
  8
0
 10
220.861
 20
5.51505
 11
220.859
 21
5.46799
  0
LINE
  8
0
 10
220.859
 20
5.46799
 11
220.856
 21
5.42101
  0
LINE
  8
0
 10
220.856
 20
5.42101
 11
220.85
 21
5.37418
  0
LINE
  8
0
 10
220.85
 20
5.37418
 11
220.844
 21
5.32751
  0
LINE
  8
0
 10
220.844
 20
5.32751
 11
220.836
 21
5.2811
  0
LINE
  8
0
 10
220.836
 20
5.2811
 11
220.826
 21
5.23495
  0
LINE
  8
0
 10
220.826
 20
5.23495
 11
220.815
 21
5.18913
  0
LINE
  8
0
 10
220.815
 20
5.18913
 11
220.803
 21
5.14368
  0
LINE
  8
0
 10
220.803
 20
5.14368
 11
220.789
 21
5.09865
  0
LINE
  8
0
 10
220.789
 20
5.09865
 11
220.773
 21
5.05406
  0
LINE
  8
0
 10
220.773
 20
5.05406
 11
220.757
 21
5.00998
  0
LINE
  8
0
 10
220.757
 20
5.00998
 11
220.739
 21
4.96645
  0
LINE
  8
0
 10
220.739
 20
4.96645
 11
220.719
 21
4.92349
  0
LINE
  8
0
 10
220.719
 20
4.92349
 11
220.699
 21
4.88118
  0
LINE
  8
0
 10
220.699
 20
4.88118
 11
220.677
 21
4.83954
  0
LINE
  8
0
 10
220.677
 20
4.83954
 11
220.653
 21
4.7986
  0
LINE
  8
0
 10
220.653
 20
4.7986
 11
220.629
 21
4.75842
  0
LINE
  8
0
 10
220.629
 20
4.75842
 11
220.603
 21
4.71904
  0
LINE
  8
0
 10
220.603
 20
4.71904
 11
220.576
 21
4.6805
  0
LINE
  8
0
 10
220.576
 20
4.6805
 11
220.547
 21
4.64281
  0
LINE
  8
0
 10
220.547
 20
4.64281
 11
220.518
 21
4.60603
  0
LINE
  8
0
 10
220.518
 20
4.60603
 11
220.487
 21
4.57021
  0
LINE
  8
0
 10
220.487
 20
4.57021
 11
220.456
 21
4.53535
  0
LINE
  8
0
 10
220.456
 20
4.53535
 11
220.423
 21
4.50151
  0
LINE
  8
0
 10
220.423
 20
4.50151
 11
220.389
 21
4.46872
  0
LINE
  8
0
 10
220.389
 20
4.46872
 11
220.354
 21
4.437
  0
LINE
  8
0
 10
220.354
 20
4.437
 11
220.318
 21
4.4064
  0
LINE
  8
0
 10
220.318
 20
4.4064
 11
220.282
 21
4.37694
  0
LINE
  8
0
 10
220.282
 20
4.37694
 11
220.244
 21
4.34865
  0
LINE
  8
0
 10
220.244
 20
4.34865
 11
220.205
 21
4.32155
  0
LINE
  8
0
 10
220.205
 20
4.32155
 11
220.166
 21
4.29567
  0
LINE
  8
0
 10
220.166
 20
4.29567
 11
220.126
 21
4.27106
  0
LINE
  8
0
 10
220.126
 20
4.27106
 11
220.085
 21
4.24771
  0
LINE
  8
0
 10
220.085
 20
4.24771
 11
220.043
 21
4.22566
  0
LINE
  8
0
 10
220.043
 20
4.22566
 11
220.001
 21
4.20493
  0
LINE
  8
0
 10
220.001
 20
4.20493
 11
219.958
 21
4.18553
  0
LINE
  8
0
 10
219.958
 20
4.18553
 11
219.914
 21
4.16751
  0
LINE
  8
0
 10
219.914
 20
4.16751
 11
219.87
 21
4.15085
  0
LINE
  8
0
 10
219.87
 20
4.15085
 11
219.826
 21
4.13559
  0
LINE
  8
0
 10
219.826
 20
4.13559
 11
219.781
 21
4.12173
  0
LINE
  8
0
 10
219.781
 20
4.12173
 11
219.735
 21
4.1093
  0
LINE
  8
0
 10
219.735
 20
4.1093
 11
219.689
 21
4.0983
  0
LINE
  8
0
 10
219.689
 20
4.0983
 11
219.643
 21
4.08875
  0
LINE
  8
0
 10
219.643
 20
4.08875
 11
219.597
 21
4.08064
  0
LINE
  8
0
 10
219.597
 20
4.08064
 11
219.55
 21
4.07399
  0
LINE
  8
0
 10
219.55
 20
4.07399
 11
219.503
 21
4.06883
  0
LINE
  8
0
 10
219.503
 20
4.06883
 11
219.456
 21
4.06512
  0
LINE
  8
0
 10
219.456
 20
4.06512
 11
219.409
 21
4.06291
  0
LINE
  8
0
 10
219.409
 20
4.06291
 11
219.362
 21
4.06216
  0
LINE
  8
0
 10
219.362
 20
4.06216
 11
219.315
 21
4.06291
  0
LINE
  8
0
 10
271.535
 20
0.0648804
 11
271.708
 21
0.0730286
  0
LINE
  8
0
 10
271.708
 20
0.0730286
 11
271.88
 21
0.0865784
  0
LINE
  8
0
 10
271.88
 20
0.0865784
 11
272.052
 21
0.105545
  0
LINE
  8
0
 10
272.052
 20
0.105545
 11
272.223
 21
0.129883
  0
LINE
  8
0
 10
272.223
 20
0.129883
 11
272.393
 21
0.159592
  0
LINE
  8
0
 10
272.393
 20
0.159592
 11
272.562
 21
0.194626
  0
LINE
  8
0
 10
272.562
 20
0.194626
 11
272.73
 21
0.234955
  0
LINE
  8
0
 10
272.73
 20
0.234955
 11
272.897
 21
0.280548
  0
LINE
  8
0
 10
272.897
 20
0.280548
 11
273.062
 21
0.33136
  0
LINE
  8
0
 10
273.062
 20
0.33136
 11
273.225
 21
0.387329
  0
LINE
  8
0
 10
273.225
 20
0.387329
 11
273.387
 21
0.448395
  0
LINE
  8
0
 10
273.387
 20
0.448395
 11
273.546
 21
0.514511
  0
LINE
  8
0
 10
273.546
 20
0.514511
 11
273.704
 21
0.585617
  0
LINE
  8
0
 10
273.704
 20
0.585617
 11
273.859
 21
0.661636
  0
LINE
  8
0
 10
273.859
 20
0.661636
 11
274.012
 21
0.742477
  0
LINE
  8
0
 10
274.012
 20
0.742477
 11
274.162
 21
0.828094
  0
LINE
  8
0
 10
274.162
 20
0.828094
 11
274.309
 21
0.918365
  0
LINE
  8
0
 10
274.309
 20
0.918365
 11
274.454
 21
1.01323
  0
LINE
  8
0
 10
274.454
 20
1.01323
 11
274.595
 21
1.11258
  0
LINE
  8
0
 10
274.595
 20
1.11258
 11
274.733
 21
1.21631
  0
LINE
  8
0
 10
274.733
 20
1.21631
 11
274.868
 21
1.32434
  0
LINE
  8
0
 10
274.868
 20
1.32434
 11
274.999
 21
1.43655
  0
LINE
  8
0
 10
274.999
 20
1.43655
 11
275.127
 21
1.55284
  0
LINE
  8
0
 10
275.127
 20
1.55284
 11
275.251
 21
1.67307
  0
LINE
  8
0
 10
275.251
 20
1.67307
 11
302.378
 21
28.8
  0
LINE
  8
0
 10
302.378
 20
28.8
 11
302.378
 21
28.8
  0
LINE
  8
0
 10
302.378
 20
28.8
 11
302.389
 21
28.8109
  0
LINE
  8
0
 10
302.389
 20
28.8109
 11
302.509
 21
28.935
  0
LINE
  8
0
 10
302.509
 20
28.935
 11
302.626
 21
29.0628
  0
LINE
  8
0
 10
302.626
 20
29.0628
 11
302.738
 21
29.1942
  0
LINE
  8
0
 10
302.738
 20
29.1942
 11
302.846
 21
29.329
  0
LINE
  8
0
 10
302.846
 20
29.329
 11
302.95
 21
29.4672
  0
LINE
  8
0
 10
302.95
 20
29.4672
 11
303.049
 21
29.6085
  0
LINE
  8
0
 10
303.049
 20
29.6085
 11
303.144
 21
29.7529
  0
LINE
  8
0
 10
303.144
 20
29.7529
 11
303.234
 21
29.9003
  0
LINE
  8
0
 10
303.234
 20
29.9003
 11
303.32
 21
30.0504
  0
LINE
  8
0
 10
303.32
 20
30.0504
 11
303.401
 21
30.203
  0
LINE
  8
0
 10
303.401
 20
30.203
 11
303.477
 21
30.3582
  0
LINE
  8
0
 10
303.477
 20
30.3582
 11
303.548
 21
30.5157
  0
LINE
  8
0
 10
303.548
 20
30.5157
 11
303.614
 21
30.6753
  0
LINE
  8
0
 10
303.614
 20
30.6753
 11
303.675
 21
30.8369
  0
LINE
  8
0
 10
303.675
 20
30.8369
 11
303.731
 21
31.0004
  0
LINE
  8
0
 10
303.731
 20
31.0004
 11
303.782
 21
31.1655
  0
LINE
  8
0
 10
303.782
 20
31.1655
 11
303.827
 21
31.3322
  0
LINE
  8
0
 10
303.827
 20
31.3322
 11
303.868
 21
31.5002
  0
LINE
  8
0
 10
303.868
 20
31.5002
 11
303.903
 21
31.6694
  0
LINE
  8
0
 10
303.903
 20
31.6694
 11
303.932
 21
31.8396
  0
LINE
  8
0
 10
303.932
 20
31.8396
 11
303.957
 21
32.0107
  0
LINE
  8
0
 10
303.957
 20
32.0107
 11
303.976
 21
32.1824
  0
LINE
  8
0
 10
303.976
 20
32.1824
 11
303.989
 21
32.3546
  0
LINE
  8
0
 10
303.989
 20
32.3546
 11
303.997
 21
32.5272
  0
LINE
  8
0
 10
303.997
 20
32.5272
 11
304
 21
32.7
  0
LINE
  8
0
 10
304
 20
32.7
 11
304
 21
60.2
  0
LINE
  8
0
 10
304
 20
60.2
 11
300
 21
60.2
  0
LINE
  8
0
 10
300
 20
60.2
 11
300
 21
80.2
  0
LINE
  8
0
 10
300
 20
80.2
 11
304
 21
80.2
  0
LINE
  8
0
 10
304
 20
80.2
 11
304
 21
100.2
  0
LINE
  8
0
 10
304
 20
100.2
 11
300
 21
100.2
  0
LINE
  8
0
 10
300
 20
100.2
 11
300
 21
120.2
  0
LINE
  8
0
 10
300
 20
120.2
 11
304
 21
120.2
  0
LINE
  8
0
 10
304
 20
120.2
 11
304
 21
140.2
  0
LINE
  8
0
 10
304
 20
140.2
 11
300
 21
140.2
  0
LINE
  8
0
 10
300
 20
140.2
 11
300
 21
160.2
  0
LINE
  8
0
 10
300
 20
160.2
 11
304
 21
160.2
  0
LINE
  8
0
 10
304
 20
160.2
 11
304
 21
180.2
  0
LINE
  8
0
 10
304
 20
180.2
 11
300
 21
180.2
  0
LINE
  8
0
 10
300
 20
180.2
 11
300
 21
200.2
  0
LINE
  8
0
 10
300
 20
200.2
 11
304
 21
200.2
  0
LINE
  8
0
 10
304
 20
200.2
 11
304
 21
220.2
  0
LINE
  8
0
 10
304
 20
220.2
 11
300
 21
220.2
  0
LINE
  8
0
 10
300
 20
220.2
 11
300
 21
240.2
  0
LINE
  8
0
 10
300
 20
240.2
 11
287
 21
240.2
  0
LINE
  8
0
 10
287
 20
240.2
 11
287
 21
236.2
  0
LINE
  8
0
 10
287
 20
236.2
 11
267
 21
236.2
  0
LINE
  8
0
 10
267
 20
236.2
 11
267
 21
240.2
  0
LINE
  8
0
 10
267
 20
240.2
 11
254
 21
240.2
  0
LINE
  8
0
 10
254
 20
240.2
 11
254
 21
34.2
  0
LINE
  8
0
 10
254
 20
34.2
 11
254.023
 21
32.7551
  0
LINE
  8
0
 10
254.023
 20
32.7551
 11
254.091
 21
31.3116
  0
LINE
  8
0
 10
254.091
 20
31.3116
 11
254.204
 21
29.871
  0
LINE
  8
0
 10
254.204
 20
29.871
 11
254.363
 21
28.4347
  0
LINE
  8
0
 10
254.363
 20
28.4347
 11
254.566
 21
27.004
  0
LINE
  8
0
 10
254.566
 20
27.004
 11
254.815
 21
25.5805
  0
LINE
  8
0
 10
254.815
 20
25.5805
 11
255.108
 21
24.1654
  0
LINE
  8
0
 10
255.108
 20
24.1654
 11
255.445
 21
22.7603
  0
LINE
  8
0
 10
255.445
 20
22.7603
 11
255.826
 21
21.3664
  0
LINE
  8
0
 10
255.826
 20
21.3664
 11
256.251
 21
19.9852
  0
LINE
  8
0
 10
256.251
 20
19.9852
 11
256.719
 21
18.6181
  0
LINE
  8
0
 10
256.719
 20
18.6181
 11
257.23
 21
17.2663
  0
LINE
  8
0
 10
257.23
 20
17.2663
 11
257.783
 21
15.9312
  0
LINE
  8
0
 10
257.783
 20
15.9312
 11
258.378
 21
14.6142
  0
LINE
  8
0
 10
258.378
 20
14.6142
 11
259.014
 21
13.3164
  0
LINE
  8
0
 10
259.014
 20
13.3164
 11
259.69
 21
12.0393
  0
LINE
  8
0
 10
259.69
 20
12.0393
 11
260.406
 21
10.7841
  0
LINE
  8
0
 10
260.406
 20
10.7841
 11
261.161
 21
9.55197
  0
LINE
  8
0
 10
261.161
 20
9.55197
 11
261.954
 21
8.34416
  0
LINE
  8
0
 10
261.954
 20
8.34416
 11
262.785
 21
7.16188
  0
LINE
  8
0
 10
262.785
 20
7.16188
 11
263.653
 21
6.00629
  0
LINE
  8
0
 10
263.653
 20
6.00629
 11
264.556
 21
4.87849
  0
LINE
  8
0
 10
264.556
 20
4.87849
 11
265.495
 21
3.77966
  0
LINE
  8
0
 10
265.495
 20
3.77966
 11
266.467
 21
2.71083
  0
LINE
  8
0
 10
266.467
 20
2.71083
 11
267.473
 21
1.67307
  0
LINE
  8
0
 10
267.473
 20
1.67307
 11
267.597
 21
1.55284
  0
LINE
  8
0
 10
267.597
 20
1.55284
 11
267.725
 21
1.43655
  0
LINE
  8
0
 10
267.725
 20
1.43655
 11
267.856
 21
1.32434
  0
LINE
  8
0
 10
267.856
 20
1.32434
 11
267.991
 21
1.21631
  0
LINE
  8
0
 10
267.991
 20
1.21631
 11
268.129
 21
1.11258
  0
LINE
  8
0
 10
268.129
 20
1.11258
 11
268.271
 21
1.01323
  0
LINE
  8
0
 10
268.271
 20
1.01323
 11
268.415
 21
0.918365
  0
LINE
  8
0
 10
268.415
 20
0.918365
 11
268.562
 21
0.828094
  0
LINE
  8
0
 10
268.562
 20
0.828094
 11
268.713
 21
0.742477
  0
LINE
  8
0
 10
268.713
 20
0.742477
 11
268.865
 21
0.661636
  0
LINE
  8
0
 10
268.865
 20
0.661636
 11
269.02
 21
0.585617
  0
LINE
  8
0
 10
269.02
 20
0.585617
 11
269.178
 21
0.514511
  0
LINE
  8
0
 10
269.178
 20
0.514511
 11
269.337
 21
0.448395
  0
LINE
  8
0
 10
269.337
 20
0.448395
 11
269.499
 21
0.387329
  0
LINE
  8
0
 10
269.499
 20
0.387329
 11
269.663
 21
0.33136
  0
LINE
  8
0
 10
269.663
 20
0.33136
 11
269.828
 21
0.280548
  0
LINE
  8
0
 10
269.828
 20
0.280548
 11
269.994
 21
0.234955
  0
LINE
  8
0
 10
269.994
 20
0.234955
 11
270.162
 21
0.194626
  0
LINE
  8
0
 10
270.162
 20
0.194626
 11
270.332
 21
0.159592
  0
LINE
  8
0
 10
270.332
 20
0.159592
 11
270.502
 21
0.129883
  0
LINE
  8
0
 10
270.502
 20
0.129883
 11
270.673
 21
0.105545
  0
LINE
  8
0
 10
270.673
 20
0.105545
 11
270.845
 21
0.0865784
  0
LINE
  8
0
 10
270.845
 20
0.0865784
 11
271.017
 21
0.0730286
  0
LINE
  8
0
 10
271.017
 20
0.0730286
 11
271.189
 21
0.0648804
  0
LINE
  8
0
 10
271.189
 20
0.0648804
 11
271.362
 21
0.0621643
  0
LINE
  8
0
 10
271.362
 20
0.0621643
 11
271.535
 21
0.0648804
  0
LINE
  8
0
 10
299.953
 20
32.7007
 11
299.906
 21
32.703
  0
LINE
  8
0
 10
299.906
 20
32.703
 11
299.859
 21
32.7066
  0
LINE
  8
0
 10
299.859
 20
32.7066
 11
299.812
 21
32.7118
  0
LINE
  8
0
 10
299.812
 20
32.7118
 11
299.765
 21
32.7185
  0
LINE
  8
0
 10
299.765
 20
32.7185
 11
299.719
 21
32.7266
  0
LINE
  8
0
 10
299.719
 20
32.7266
 11
299.673
 21
32.7361
  0
LINE
  8
0
 10
299.673
 20
32.7361
 11
299.627
 21
32.7471
  0
LINE
  8
0
 10
299.627
 20
32.7471
 11
299.582
 21
32.7596
  0
LINE
  8
0
 10
299.582
 20
32.7596
 11
299.536
 21
32.7734
  0
LINE
  8
0
 10
299.536
 20
32.7734
 11
299.492
 21
32.7887
  0
LINE
  8
0
 10
299.492
 20
32.7887
 11
299.448
 21
32.8053
  0
LINE
  8
0
 10
299.448
 20
32.8053
 11
299.404
 21
32.8234
  0
LINE
  8
0
 10
299.404
 20
32.8234
 11
299.361
 21
32.8428
  0
LINE
  8
0
 10
299.361
 20
32.8428
 11
299.319
 21
32.8635
  0
LINE
  8
0
 10
299.319
 20
32.8635
 11
299.277
 21
32.8855
  0
LINE
  8
0
 10
299.277
 20
32.8855
 11
299.236
 21
32.9089
  0
LINE
  8
0
 10
299.236
 20
32.9089
 11
299.196
 21
32.9335
  0
LINE
  8
0
 10
299.196
 20
32.9335
 11
299.157
 21
32.9594
  0
LINE
  8
0
 10
299.157
 20
32.9594
 11
299.118
 21
32.9865
  0
LINE
  8
0
 10
299.118
 20
32.9865
 11
299.081
 21
33.0148
  0
LINE
  8
0
 10
299.081
 20
33.0148
 11
299.044
 21
33.0442
  0
LINE
  8
0
 10
299.044
 20
33.0442
 11
299.008
 21
33.0748
  0
LINE
  8
0
 10
299.008
 20
33.0748
 11
298.973
 21
33.1065
  0
LINE
  8
0
 10
298.973
 20
33.1065
 11
298.939
 21
33.1393
  0
LINE
  8
0
 10
298.939
 20
33.1393
 11
298.907
 21
33.1732
  0
LINE
  8
0
 10
298.907
 20
33.1732
 11
298.875
 21
33.208
  0
LINE
  8
0
 10
298.875
 20
33.208
 11
298.844
 21
33.2439
  0
LINE
  8
0
 10
298.844
 20
33.2439
 11
298.815
 21
33.2806
  0
LINE
  8
0
 10
298.815
 20
33.2806
 11
298.786
 21
33.3183
  0
LINE
  8
0
 10
298.786
 20
33.3183
 11
298.759
 21
33.3569
  0
LINE
  8
0
 10
298.759
 20
33.3569
 11
298.734
 21
33.3963
  0
LINE
  8
0
 10
298.734
 20
33.3963
 11
298.709
 21
33.4364
  0
LINE
  8
0
 10
298.709
 20
33.4364
 11
298.686
 21
33.4774
  0
LINE
  8
0
 10
298.686
 20
33.4774
 11
298.663
 21
33.519
  0
LINE
  8
0
 10
298.663
 20
33.519
 11
298.643
 21
33.5613
  0
LINE
  8
0
 10
298.643
 20
33.5613
 11
298.623
 21
33.6043
  0
LINE
  8
0
 10
298.623
 20
33.6043
 11
298.605
 21
33.6478
  0
LINE
  8
0
 10
298.605
 20
33.6478
 11
298.589
 21
33.6919
  0
LINE
  8
0
 10
298.589
 20
33.6919
 11
298.573
 21
33.7365
  0
LINE
  8
0
 10
298.573
 20
33.7365
 11
298.56
 21
33.7815
  0
LINE
  8
0
 10
298.56
 20
33.7815
 11
298.547
 21
33.827
  0
LINE
  8
0
 10
298.547
 20
33.827
 11
298.536
 21
33.8728
  0
LINE
  8
0
 10
298.536
 20
33.8728
 11
298.527
 21
33.9189
  0
LINE
  8
0
 10
298.527
 20
33.9189
 11
298.518
 21
33.9653
  0
LINE
  8
0
 10
298.518
 20
33.9653
 11
298.512
 21
34.012
  0
LINE
  8
0
 10
298.512
 20
34.012
 11
298.507
 21
34.0588
  0
LINE
  8
0
 10
298.507
 20
34.0588
 11
298.503
 21
34.1058
  0
LINE
  8
0
 10
298.503
 20
34.1058
 11
298.501
 21
34.1529
  0
LINE
  8
0
 10
298.501
 20
34.1529
 11
298.5
 21
34.2
  0
LINE
  8
0
 10
298.5
 20
34.2
 11
298.501
 21
34.2471
  0
LINE
  8
0
 10
298.501
 20
34.2471
 11
298.503
 21
34.2942
  0
LINE
  8
0
 10
298.503
 20
34.2942
 11
298.507
 21
34.3412
  0
LINE
  8
0
 10
298.507
 20
34.3412
 11
298.512
 21
34.388
  0
LINE
  8
0
 10
298.512
 20
34.388
 11
298.518
 21
34.4346
  0
LINE
  8
0
 10
298.518
 20
34.4346
 11
298.527
 21
34.4811
  0
LINE
  8
0
 10
298.527
 20
34.4811
 11
298.536
 21
34.5272
  0
LINE
  8
0
 10
298.536
 20
34.5272
 11
298.547
 21
34.573
  0
LINE
  8
0
 10
298.547
 20
34.573
 11
298.56
 21
34.6185
  0
LINE
  8
0
 10
298.56
 20
34.6185
 11
298.573
 21
34.6635
  0
LINE
  8
0
 10
298.573
 20
34.6635
 11
298.589
 21
34.7081
  0
LINE
  8
0
 10
298.589
 20
34.7081
 11
298.605
 21
34.7522
  0
LINE
  8
0
 10
298.605
 20
34.7522
 11
298.623
 21
34.7957
  0
LINE
  8
0
 10
298.623
 20
34.7957
 11
298.643
 21
34.8387
  0
LINE
  8
0
 10
298.643
 20
34.8387
 11
298.663
 21
34.881
  0
LINE
  8
0
 10
298.663
 20
34.881
 11
298.686
 21
34.9226
  0
LINE
  8
0
 10
298.686
 20
34.9226
 11
298.709
 21
34.9636
  0
LINE
  8
0
 10
298.709
 20
34.9636
 11
298.734
 21
35.0037
  0
LINE
  8
0
 10
298.734
 20
35.0037
 11
298.759
 21
35.0431
  0
LINE
  8
0
 10
298.759
 20
35.0431
 11
298.786
 21
35.0817
  0
LINE
  8
0
 10
298.786
 20
35.0817
 11
298.815
 21
35.1194
  0
LINE
  8
0
 10
298.815
 20
35.1194
 11
298.844
 21
35.1561
  0
LINE
  8
0
 10
298.844
 20
35.1561
 11
298.875
 21
35.192
  0
LINE
  8
0
 10
298.875
 20
35.192
 11
298.907
 21
35.2268
  0
LINE
  8
0
 10
298.907
 20
35.2268
 11
298.939
 21
35.2607
  0
LINE
  8
0
 10
298.939
 20
35.2607
 11
298.973
 21
35.2934
  0
LINE
  8
0
 10
298.973
 20
35.2934
 11
299.008
 21
35.3252
  0
LINE
  8
0
 10
299.008
 20
35.3252
 11
299.044
 21
35.3558
  0
LINE
  8
0
 10
299.044
 20
35.3558
 11
299.081
 21
35.3852
  0
LINE
  8
0
 10
299.081
 20
35.3852
 11
299.118
 21
35.4135
  0
LINE
  8
0
 10
299.118
 20
35.4135
 11
299.157
 21
35.4406
  0
LINE
  8
0
 10
299.157
 20
35.4406
 11
299.196
 21
35.4665
  0
LINE
  8
0
 10
299.196
 20
35.4665
 11
299.236
 21
35.4911
  0
LINE
  8
0
 10
299.236
 20
35.4911
 11
299.277
 21
35.5145
  0
LINE
  8
0
 10
299.277
 20
35.5145
 11
299.319
 21
35.5365
  0
LINE
  8
0
 10
299.319
 20
35.5365
 11
299.361
 21
35.5572
  0
LINE
  8
0
 10
299.361
 20
35.5572
 11
299.404
 21
35.5766
  0
LINE
  8
0
 10
299.404
 20
35.5766
 11
299.448
 21
35.5947
  0
LINE
  8
0
 10
299.448
 20
35.5947
 11
299.492
 21
35.6113
  0
LINE
  8
0
 10
299.492
 20
35.6113
 11
299.536
 21
35.6266
  0
LINE
  8
0
 10
299.536
 20
35.6266
 11
299.582
 21
35.6404
  0
LINE
  8
0
 10
299.582
 20
35.6404
 11
299.627
 21
35.6529
  0
LINE
  8
0
 10
299.627
 20
35.6529
 11
299.673
 21
35.6639
  0
LINE
  8
0
 10
299.673
 20
35.6639
 11
299.719
 21
35.6734
  0
LINE
  8
0
 10
299.719
 20
35.6734
 11
299.765
 21
35.6815
  0
LINE
  8
0
 10
299.765
 20
35.6815
 11
299.812
 21
35.6882
  0
LINE
  8
0
 10
299.812
 20
35.6882
 11
299.859
 21
35.6933
  0
LINE
  8
0
 10
299.859
 20
35.6933
 11
299.906
 21
35.697
  0
LINE
  8
0
 10
299.906
 20
35.697
 11
299.953
 21
35.6992
  0
LINE
  8
0
 10
299.953
 20
35.6992
 11
300
 21
35.7
  0
LINE
  8
0
 10
300
 20
35.7
 11
300.047
 21
35.6992
  0
LINE
  8
0
 10
300.047
 20
35.6992
 11
300.094
 21
35.697
  0
LINE
  8
0
 10
300.094
 20
35.697
 11
300.141
 21
35.6933
  0
LINE
  8
0
 10
300.141
 20
35.6933
 11
300.188
 21
35.6882
  0
LINE
  8
0
 10
300.188
 20
35.6882
 11
300.235
 21
35.6815
  0
LINE
  8
0
 10
300.235
 20
35.6815
 11
300.281
 21
35.6734
  0
LINE
  8
0
 10
300.281
 20
35.6734
 11
300.327
 21
35.6639
  0
LINE
  8
0
 10
300.327
 20
35.6639
 11
300.373
 21
35.6529
  0
LINE
  8
0
 10
300.373
 20
35.6529
 11
300.418
 21
35.6404
  0
LINE
  8
0
 10
300.418
 20
35.6404
 11
300.464
 21
35.6266
  0
LINE
  8
0
 10
300.464
 20
35.6266
 11
300.508
 21
35.6113
  0
LINE
  8
0
 10
300.508
 20
35.6113
 11
300.552
 21
35.5947
  0
LINE
  8
0
 10
300.552
 20
35.5947
 11
300.596
 21
35.5766
  0
LINE
  8
0
 10
300.596
 20
35.5766
 11
300.639
 21
35.5572
  0
LINE
  8
0
 10
300.639
 20
35.5572
 11
300.681
 21
35.5365
  0
LINE
  8
0
 10
300.681
 20
35.5365
 11
300.723
 21
35.5145
  0
LINE
  8
0
 10
300.723
 20
35.5145
 11
300.764
 21
35.4911
  0
LINE
  8
0
 10
300.764
 20
35.4911
 11
300.804
 21
35.4665
  0
LINE
  8
0
 10
300.804
 20
35.4665
 11
300.843
 21
35.4406
  0
LINE
  8
0
 10
300.843
 20
35.4406
 11
300.882
 21
35.4135
  0
LINE
  8
0
 10
300.882
 20
35.4135
 11
300.919
 21
35.3852
  0
LINE
  8
0
 10
300.919
 20
35.3852
 11
300.956
 21
35.3558
  0
LINE
  8
0
 10
300.956
 20
35.3558
 11
300.992
 21
35.3252
  0
LINE
  8
0
 10
300.992
 20
35.3252
 11
301.027
 21
35.2934
  0
LINE
  8
0
 10
301.027
 20
35.2934
 11
301.061
 21
35.2607
  0
LINE
  8
0
 10
301.061
 20
35.2607
 11
301.093
 21
35.2268
  0
LINE
  8
0
 10
301.093
 20
35.2268
 11
301.125
 21
35.192
  0
LINE
  8
0
 10
301.125
 20
35.192
 11
301.156
 21
35.1561
  0
LINE
  8
0
 10
301.156
 20
35.1561
 11
301.185
 21
35.1194
  0
LINE
  8
0
 10
301.185
 20
35.1194
 11
301.214
 21
35.0817
  0
LINE
  8
0
 10
301.214
 20
35.0817
 11
301.241
 21
35.0431
  0
LINE
  8
0
 10
301.241
 20
35.0431
 11
301.266
 21
35.0037
  0
LINE
  8
0
 10
301.266
 20
35.0037
 11
301.291
 21
34.9636
  0
LINE
  8
0
 10
301.291
 20
34.9636
 11
301.314
 21
34.9226
  0
LINE
  8
0
 10
301.314
 20
34.9226
 11
301.337
 21
34.881
  0
LINE
  8
0
 10
301.337
 20
34.881
 11
301.357
 21
34.8387
  0
LINE
  8
0
 10
301.357
 20
34.8387
 11
301.377
 21
34.7957
  0
LINE
  8
0
 10
301.377
 20
34.7957
 11
301.395
 21
34.7522
  0
LINE
  8
0
 10
301.395
 20
34.7522
 11
301.411
 21
34.7081
  0
LINE
  8
0
 10
301.411
 20
34.7081
 11
301.427
 21
34.6635
  0
LINE
  8
0
 10
301.427
 20
34.6635
 11
301.44
 21
34.6185
  0
LINE
  8
0
 10
301.44
 20
34.6185
 11
301.453
 21
34.573
  0
LINE
  8
0
 10
301.453
 20
34.573
 11
301.464
 21
34.5272
  0
LINE
  8
0
 10
301.464
 20
34.5272
 11
301.473
 21
34.4811
  0
LINE
  8
0
 10
301.473
 20
34.4811
 11
301.482
 21
34.4346
  0
LINE
  8
0
 10
301.482
 20
34.4346
 11
301.488
 21
34.388
  0
LINE
  8
0
 10
301.488
 20
34.388
 11
301.493
 21
34.3412
  0
LINE
  8
0
 10
301.493
 20
34.3412
 11
301.497
 21
34.2942
  0
LINE
  8
0
 10
301.497
 20
34.2942
 11
301.499
 21
34.2471
  0
LINE
  8
0
 10
301.499
 20
34.2471
 11
301.5
 21
34.2
  0
LINE
  8
0
 10
301.5
 20
34.2
 11
301.499
 21
34.1529
  0
LINE
  8
0
 10
301.499
 20
34.1529
 11
301.497
 21
34.1058
  0
LINE
  8
0
 10
301.497
 20
34.1058
 11
301.493
 21
34.0588
  0
LINE
  8
0
 10
301.493
 20
34.0588
 11
301.488
 21
34.012
  0
LINE
  8
0
 10
301.488
 20
34.012
 11
301.482
 21
33.9653
  0
LINE
  8
0
 10
301.482
 20
33.9653
 11
301.473
 21
33.9189
  0
LINE
  8
0
 10
301.473
 20
33.9189
 11
301.464
 21
33.8728
  0
LINE
  8
0
 10
301.464
 20
33.8728
 11
301.453
 21
33.827
  0
LINE
  8
0
 10
301.453
 20
33.827
 11
301.44
 21
33.7815
  0
LINE
  8
0
 10
301.44
 20
33.7815
 11
301.427
 21
33.7365
  0
LINE
  8
0
 10
301.427
 20
33.7365
 11
301.411
 21
33.6919
  0
LINE
  8
0
 10
301.411
 20
33.6919
 11
301.395
 21
33.6478
  0
LINE
  8
0
 10
301.395
 20
33.6478
 11
301.377
 21
33.6043
  0
LINE
  8
0
 10
301.377
 20
33.6043
 11
301.357
 21
33.5613
  0
LINE
  8
0
 10
301.357
 20
33.5613
 11
301.337
 21
33.519
  0
LINE
  8
0
 10
301.337
 20
33.519
 11
301.314
 21
33.4774
  0
LINE
  8
0
 10
301.314
 20
33.4774
 11
301.291
 21
33.4364
  0
LINE
  8
0
 10
301.291
 20
33.4364
 11
301.266
 21
33.3963
  0
LINE
  8
0
 10
301.266
 20
33.3963
 11
301.241
 21
33.3569
  0
LINE
  8
0
 10
301.241
 20
33.3569
 11
301.214
 21
33.3183
  0
LINE
  8
0
 10
301.214
 20
33.3183
 11
301.185
 21
33.2806
  0
LINE
  8
0
 10
301.185
 20
33.2806
 11
301.156
 21
33.2439
  0
LINE
  8
0
 10
301.156
 20
33.2439
 11
301.125
 21
33.208
  0
LINE
  8
0
 10
301.125
 20
33.208
 11
301.093
 21
33.1732
  0
LINE
  8
0
 10
301.093
 20
33.1732
 11
301.061
 21
33.1393
  0
LINE
  8
0
 10
301.061
 20
33.1393
 11
301.027
 21
33.1065
  0
LINE
  8
0
 10
301.027
 20
33.1065
 11
300.992
 21
33.0748
  0
LINE
  8
0
 10
300.992
 20
33.0748
 11
300.956
 21
33.0442
  0
LINE
  8
0
 10
300.956
 20
33.0442
 11
300.919
 21
33.0148
  0
LINE
  8
0
 10
300.919
 20
33.0148
 11
300.882
 21
32.9865
  0
LINE
  8
0
 10
300.882
 20
32.9865
 11
300.843
 21
32.9594
  0
LINE
  8
0
 10
300.843
 20
32.9594
 11
300.804
 21
32.9335
  0
LINE
  8
0
 10
300.804
 20
32.9335
 11
300.764
 21
32.9089
  0
LINE
  8
0
 10
300.764
 20
32.9089
 11
300.723
 21
32.8855
  0
LINE
  8
0
 10
300.723
 20
32.8855
 11
300.681
 21
32.8635
  0
LINE
  8
0
 10
300.681
 20
32.8635
 11
300.639
 21
32.8428
  0
LINE
  8
0
 10
300.639
 20
32.8428
 11
300.596
 21
32.8234
  0
LINE
  8
0
 10
300.596
 20
32.8234
 11
300.552
 21
32.8053
  0
LINE
  8
0
 10
300.552
 20
32.8053
 11
300.508
 21
32.7887
  0
LINE
  8
0
 10
300.508
 20
32.7887
 11
300.464
 21
32.7734
  0
LINE
  8
0
 10
300.464
 20
32.7734
 11
300.418
 21
32.7596
  0
LINE
  8
0
 10
300.418
 20
32.7596
 11
300.373
 21
32.7471
  0
LINE
  8
0
 10
300.373
 20
32.7471
 11
300.327
 21
32.7361
  0
LINE
  8
0
 10
300.327
 20
32.7361
 11
300.281
 21
32.7266
  0
LINE
  8
0
 10
300.281
 20
32.7266
 11
300.235
 21
32.7185
  0
LINE
  8
0
 10
300.235
 20
32.7185
 11
300.188
 21
32.7118
  0
LINE
  8
0
 10
300.188
 20
32.7118
 11
300.141
 21
32.7066
  0
LINE
  8
0
 10
300.141
 20
32.7066
 11
300.094
 21
32.703
  0
LINE
  8
0
 10
300.094
 20
32.703
 11
300.047
 21
32.7007
  0
LINE
  8
0
 10
300.047
 20
32.7007
 11
300
 21
32.7
  0
LINE
  8
0
 10
300
 20
32.7
 11
299.953
 21
32.7007
  0
LINE
  8
0
 10
271.315
 20
4.06291
 11
271.268
 21
4.06512
  0
LINE
  8
0
 10
271.268
 20
4.06512
 11
271.221
 21
4.06883
  0
LINE
  8
0
 10
271.221
 20
4.06883
 11
271.174
 21
4.07399
  0
LINE
  8
0
 10
271.174
 20
4.07399
 11
271.128
 21
4.08064
  0
LINE
  8
0
 10
271.128
 20
4.08064
 11
271.081
 21
4.08875
  0
LINE
  8
0
 10
271.081
 20
4.08875
 11
271.035
 21
4.0983
  0
LINE
  8
0
 10
271.035
 20
4.0983
 11
270.989
 21
4.1093
  0
LINE
  8
0
 10
270.989
 20
4.1093
 11
270.944
 21
4.12173
  0
LINE
  8
0
 10
270.944
 20
4.12173
 11
270.899
 21
4.13559
  0
LINE
  8
0
 10
270.899
 20
4.13559
 11
270.854
 21
4.15085
  0
LINE
  8
0
 10
270.854
 20
4.15085
 11
270.81
 21
4.16751
  0
LINE
  8
0
 10
270.81
 20
4.16751
 11
270.766
 21
4.18553
  0
LINE
  8
0
 10
270.766
 20
4.18553
 11
270.724
 21
4.20493
  0
LINE
  8
0
 10
270.724
 20
4.20493
 11
270.681
 21
4.22566
  0
LINE
  8
0
 10
270.681
 20
4.22566
 11
270.64
 21
4.24771
  0
LINE
  8
0
 10
270.64
 20
4.24771
 11
270.599
 21
4.27106
  0
LINE
  8
0
 10
270.599
 20
4.27106
 11
270.558
 21
4.29567
  0
LINE
  8
0
 10
270.558
 20
4.29567
 11
270.519
 21
4.32155
  0
LINE
  8
0
 10
270.519
 20
4.32155
 11
270.48
 21
4.34865
  0
LINE
  8
0
 10
270.48
 20
4.34865
 11
270.443
 21
4.37694
  0
LINE
  8
0
 10
270.443
 20
4.37694
 11
270.406
 21
4.4064
  0
LINE
  8
0
 10
270.406
 20
4.4064
 11
270.37
 21
4.437
  0
LINE
  8
0
 10
270.37
 20
4.437
 11
270.335
 21
4.46872
  0
LINE
  8
0
 10
270.335
 20
4.46872
 11
270.302
 21
4.50151
  0
LINE
  8
0
 10
270.302
 20
4.50151
 11
269.383
 21
5.44902
  0
LINE
  8
0
 10
269.383
 20
5.44902
 11
268.495
 21
6.42491
  0
LINE
  8
0
 10
268.495
 20
6.42491
 11
267.638
 21
7.42819
  0
LINE
  8
0
 10
267.638
 20
7.42819
 11
266.813
 21
8.4579
  0
LINE
  8
0
 10
266.813
 20
8.4579
 11
266.021
 21
9.51303
  0
LINE
  8
0
 10
266.021
 20
9.51303
 11
265.263
 21
10.5925
  0
LINE
  8
0
 10
265.263
 20
10.5925
 11
264.538
 21
11.6953
  0
LINE
  8
0
 10
264.538
 20
11.6953
 11
263.849
 21
12.8203
  0
LINE
  8
0
 10
263.849
 20
12.8203
 11
263.195
 21
13.9664
  0
LINE
  8
0
 10
263.195
 20
13.9664
 11
262.578
 21
15.1324
  0
LINE
  8
0
 10
262.578
 20
15.1324
 11
261.997
 21
16.3173
  0
LINE
  8
0
 10
261.997
 20
16.3173
 11
261.454
 21
17.5198
  0
LINE
  8
0
 10
261.454
 20
17.5198
 11
260.949
 21
18.7388
  0
LINE
  8
0
 10
260.949
 20
18.7388
 11
260.483
 21
19.973
  0
LINE
  8
0
 10
260.483
 20
19.973
 11
260.056
 21
21.2213
  0
LINE
  8
0
 10
260.056
 20
21.2213
 11
259.668
 21
22.4824
  0
LINE
  8
0
 10
259.668
 20
22.4824
 11
259.32
 21
23.755
  0
LINE
  8
0
 10
259.32
 20
23.755
 11
259.012
 21
25.038
  0
LINE
  8
0
 10
259.012
 20
25.038
 11
258.744
 21
26.33
  0
LINE
  8
0
 10
258.744
 20
26.33
 11
258.517
 21
27.6298
  0
LINE
  8
0
 10
258.517
 20
27.6298
 11
258.331
 21
28.936
  0
LINE
  8
0
 10
258.331
 20
28.936
 11
258.186
 21
30.2475
  0
LINE
  8
0
 10
258.186
 20
30.2475
 11
258.083
 21
31.5628
  0
LINE
  8
0
 10
258.083
 20
31.5628
 11
258.021
 21
32.8808
  0
LINE
  8
0
 10
258.021
 20
32.8808
 11
258
 21
34.2
  0
LINE
  8
0
 10
258
 20
34.2
 11
258.001
 21
34.2471
  0
LINE
  8
0
 10
258.001
 20
34.2471
 11
258.003
 21
34.2942
  0
LINE
  8
0
 10
258.003
 20
34.2942
 11
258.007
 21
34.3412
  0
LINE
  8
0
 10
258.007
 20
34.3412
 11
258.012
 21
34.388
  0
LINE
  8
0
 10
258.012
 20
34.388
 11
258.018
 21
34.4346
  0
LINE
  8
0
 10
258.018
 20
34.4346
 11
258.027
 21
34.4811
  0
LINE
  8
0
 10
258.027
 20
34.4811
 11
258.036
 21
34.5272
  0
LINE
  8
0
 10
258.036
 20
34.5272
 11
258.047
 21
34.573
  0
LINE
  8
0
 10
258.047
 20
34.573
 11
258.06
 21
34.6185
  0
LINE
  8
0
 10
258.06
 20
34.6185
 11
258.073
 21
34.6635
  0
LINE
  8
0
 10
258.073
 20
34.6635
 11
258.089
 21
34.7081
  0
LINE
  8
0
 10
258.089
 20
34.7081
 11
258.105
 21
34.7522
  0
LINE
  8
0
 10
258.105
 20
34.7522
 11
258.123
 21
34.7957
  0
LINE
  8
0
 10
258.123
 20
34.7957
 11
258.143
 21
34.8387
  0
LINE
  8
0
 10
258.143
 20
34.8387
 11
258.163
 21
34.881
  0
LINE
  8
0
 10
258.163
 20
34.881
 11
258.186
 21
34.9226
  0
LINE
  8
0
 10
258.186
 20
34.9226
 11
258.209
 21
34.9636
  0
LINE
  8
0
 10
258.209
 20
34.9636
 11
258.234
 21
35.0037
  0
LINE
  8
0
 10
258.234
 20
35.0037
 11
258.259
 21
35.0431
  0
LINE
  8
0
 10
258.259
 20
35.0431
 11
258.286
 21
35.0817
  0
LINE
  8
0
 10
258.286
 20
35.0817
 11
258.315
 21
35.1194
  0
LINE
  8
0
 10
258.315
 20
35.1194
 11
258.344
 21
35.1561
  0
LINE
  8
0
 10
258.344
 20
35.1561
 11
258.375
 21
35.192
  0
LINE
  8
0
 10
258.375
 20
35.192
 11
258.407
 21
35.2268
  0
LINE
  8
0
 10
258.407
 20
35.2268
 11
258.439
 21
35.2607
  0
LINE
  8
0
 10
258.439
 20
35.2607
 11
258.473
 21
35.2934
  0
LINE
  8
0
 10
258.473
 20
35.2934
 11
258.508
 21
35.3252
  0
LINE
  8
0
 10
258.508
 20
35.3252
 11
258.544
 21
35.3558
  0
LINE
  8
0
 10
258.544
 20
35.3558
 11
258.581
 21
35.3852
  0
LINE
  8
0
 10
258.581
 20
35.3852
 11
258.618
 21
35.4135
  0
LINE
  8
0
 10
258.618
 20
35.4135
 11
258.657
 21
35.4406
  0
LINE
  8
0
 10
258.657
 20
35.4406
 11
258.696
 21
35.4665
  0
LINE
  8
0
 10
258.696
 20
35.4665
 11
258.736
 21
35.4911
  0
LINE
  8
0
 10
258.736
 20
35.4911
 11
258.777
 21
35.5145
  0
LINE
  8
0
 10
258.777
 20
35.5145
 11
258.819
 21
35.5365
  0
LINE
  8
0
 10
258.819
 20
35.5365
 11
258.861
 21
35.5572
  0
LINE
  8
0
 10
258.861
 20
35.5572
 11
258.904
 21
35.5766
  0
LINE
  8
0
 10
258.904
 20
35.5766
 11
258.948
 21
35.5947
  0
LINE
  8
0
 10
258.948
 20
35.5947
 11
258.992
 21
35.6113
  0
LINE
  8
0
 10
258.992
 20
35.6113
 11
259.036
 21
35.6266
  0
LINE
  8
0
 10
259.036
 20
35.6266
 11
259.082
 21
35.6404
  0
LINE
  8
0
 10
259.082
 20
35.6404
 11
259.127
 21
35.6529
  0
LINE
  8
0
 10
259.127
 20
35.6529
 11
259.173
 21
35.6639
  0
LINE
  8
0
 10
259.173
 20
35.6639
 11
259.219
 21
35.6734
  0
LINE
  8
0
 10
259.219
 20
35.6734
 11
259.265
 21
35.6815
  0
LINE
  8
0
 10
259.265
 20
35.6815
 11
259.312
 21
35.6882
  0
LINE
  8
0
 10
259.312
 20
35.6882
 11
259.359
 21
35.6933
  0
LINE
  8
0
 10
259.359
 20
35.6933
 11
259.406
 21
35.697
  0
LINE
  8
0
 10
259.406
 20
35.697
 11
259.453
 21
35.6992
  0
LINE
  8
0
 10
259.453
 20
35.6992
 11
259.5
 21
35.7
  0
LINE
  8
0
 10
259.5
 20
35.7
 11
259.547
 21
35.6992
  0
LINE
  8
0
 10
259.547
 20
35.6992
 11
259.594
 21
35.697
  0
LINE
  8
0
 10
259.594
 20
35.697
 11
259.641
 21
35.6933
  0
LINE
  8
0
 10
259.641
 20
35.6933
 11
259.688
 21
35.6882
  0
LINE
  8
0
 10
259.688
 20
35.6882
 11
259.735
 21
35.6815
  0
LINE
  8
0
 10
259.735
 20
35.6815
 11
259.781
 21
35.6734
  0
LINE
  8
0
 10
259.781
 20
35.6734
 11
259.827
 21
35.6639
  0
LINE
  8
0
 10
259.827
 20
35.6639
 11
259.873
 21
35.6529
  0
LINE
  8
0
 10
259.873
 20
35.6529
 11
259.918
 21
35.6404
  0
LINE
  8
0
 10
259.918
 20
35.6404
 11
259.964
 21
35.6266
  0
LINE
  8
0
 10
259.964
 20
35.6266
 11
260.008
 21
35.6113
  0
LINE
  8
0
 10
260.008
 20
35.6113
 11
260.052
 21
35.5947
  0
LINE
  8
0
 10
260.052
 20
35.5947
 11
260.096
 21
35.5766
  0
LINE
  8
0
 10
260.096
 20
35.5766
 11
260.139
 21
35.5572
  0
LINE
  8
0
 10
260.139
 20
35.5572
 11
260.181
 21
35.5365
  0
LINE
  8
0
 10
260.181
 20
35.5365
 11
260.223
 21
35.5145
  0
LINE
  8
0
 10
260.223
 20
35.5145
 11
260.264
 21
35.4911
  0
LINE
  8
0
 10
260.264
 20
35.4911
 11
260.304
 21
35.4665
  0
LINE
  8
0
 10
260.304
 20
35.4665
 11
260.343
 21
35.4406
  0
LINE
  8
0
 10
260.343
 20
35.4406
 11
260.382
 21
35.4135
  0
LINE
  8
0
 10
260.382
 20
35.4135
 11
260.419
 21
35.3852
  0
LINE
  8
0
 10
260.419
 20
35.3852
 11
260.456
 21
35.3558
  0
LINE
  8
0
 10
260.456
 20
35.3558
 11
260.492
 21
35.3252
  0
LINE
  8
0
 10
260.492
 20
35.3252
 11
260.527
 21
35.2934
  0
LINE
  8
0
 10
260.527
 20
35.2934
 11
260.561
 21
35.2607
  0
LINE
  8
0
 10
260.561
 20
35.2607
 11
260.593
 21
35.2268
  0
LINE
  8
0
 10
260.593
 20
35.2268
 11
260.625
 21
35.192
  0
LINE
  8
0
 10
260.625
 20
35.192
 11
260.656
 21
35.1561
  0
LINE
  8
0
 10
260.656
 20
35.1561
 11
260.685
 21
35.1194
  0
LINE
  8
0
 10
260.685
 20
35.1194
 11
260.714
 21
35.0817
  0
LINE
  8
0
 10
260.714
 20
35.0817
 11
260.741
 21
35.0431
  0
LINE
  8
0
 10
260.741
 20
35.0431
 11
260.766
 21
35.0037
  0
LINE
  8
0
 10
260.766
 20
35.0037
 11
260.791
 21
34.9636
  0
LINE
  8
0
 10
260.791
 20
34.9636
 11
260.814
 21
34.9226
  0
LINE
  8
0
 10
260.814
 20
34.9226
 11
260.837
 21
34.881
  0
LINE
  8
0
 10
260.837
 20
34.881
 11
260.857
 21
34.8387
  0
LINE
  8
0
 10
260.857
 20
34.8387
 11
260.877
 21
34.7957
  0
LINE
  8
0
 10
260.877
 20
34.7957
 11
260.895
 21
34.7522
  0
LINE
  8
0
 10
260.895
 20
34.7522
 11
260.911
 21
34.7081
  0
LINE
  8
0
 10
260.911
 20
34.7081
 11
260.927
 21
34.6635
  0
LINE
  8
0
 10
260.927
 20
34.6635
 11
260.94
 21
34.6185
  0
LINE
  8
0
 10
260.94
 20
34.6185
 11
260.953
 21
34.573
  0
LINE
  8
0
 10
260.953
 20
34.573
 11
260.964
 21
34.5272
  0
LINE
  8
0
 10
260.964
 20
34.5272
 11
260.973
 21
34.4811
  0
LINE
  8
0
 10
260.973
 20
34.4811
 11
260.982
 21
34.4346
  0
LINE
  8
0
 10
260.982
 20
34.4346
 11
260.988
 21
34.388
  0
LINE
  8
0
 10
260.988
 20
34.388
 11
260.993
 21
34.3412
  0
LINE
  8
0
 10
260.993
 20
34.3412
 11
260.997
 21
34.2942
  0
LINE
  8
0
 10
260.997
 20
34.2942
 11
260.999
 21
34.2471
  0
LINE
  8
0
 10
260.999
 20
34.2471
 11
261.019
 21
32.975
  0
LINE
  8
0
 10
261.019
 20
32.975
 11
261.077
 21
31.7512
  0
LINE
  8
0
 10
261.077
 20
31.7512
 11
261.173
 21
30.5298
  0
LINE
  8
0
 10
261.173
 20
30.5298
 11
261.308
 21
29.312
  0
LINE
  8
0
 10
261.308
 20
29.312
 11
261.48
 21
28.0991
  0
LINE
  8
0
 10
261.48
 20
28.0991
 11
261.691
 21
26.8921
  0
LINE
  8
0
 10
261.691
 20
26.8921
 11
261.939
 21
25.6924
  0
LINE
  8
0
 10
261.939
 20
25.6924
 11
262.225
 21
24.5011
  0
LINE
  8
0
 10
262.225
 20
24.5011
 11
262.549
 21
23.3194
  0
LINE
  8
0
 10
262.549
 20
23.3194
 11
262.909
 21
22.1483
  0
LINE
  8
0
 10
262.909
 20
22.1483
 11
263.306
 21
20.9892
  0
LINE
  8
0
 10
263.306
 20
20.9892
 11
263.739
 21
19.8431
  0
LINE
  8
0
 10
263.739
 20
19.8431
 11
264.208
 21
18.7112
  0
LINE
  8
0
 10
264.208
 20
18.7112
 11
264.712
 21
17.5946
  0
LINE
  8
0
 10
264.712
 20
17.5946
 11
265.251
 21
16.4944
  0
LINE
  8
0
 10
265.251
 20
16.4944
 11
265.824
 21
15.4116
  0
LINE
  8
0
 10
265.824
 20
15.4116
 11
266.431
 21
14.3474
  0
LINE
  8
0
 10
266.431
 20
14.3474
 11
267.071
 21
13.3028
  0
LINE
  8
0
 10
267.071
 20
13.3028
 11
267.744
 21
12.2787
  0
LINE
  8
0
 10
267.744
 20
12.2787
 11
268.448
 21
11.2764
  0
LINE
  8
0
 10
268.448
 20
11.2764
 11
269.184
 21
10.2966
  0
LINE
  8
0
 10
269.184
 20
10.2966
 11
269.95
 21
9.34047
  0
LINE
  8
0
 10
269.95
 20
9.34047
 11
270.746
 21
8.40884
  0
LINE
  8
0
 10
270.746
 20
8.40884
 11
271.57
 21
7.50267
  0
LINE
  8
0
 10
271.57
 20
7.50267
 11
272.456
 21
6.58899
  0
LINE
  8
0
 10
272.456
 20
6.58899
 11
272.487
 21
6.55414
  0
LINE
  8
0
 10
272.487
 20
6.55414
 11
272.518
 21
6.51831
  0
LINE
  8
0
 10
272.518
 20
6.51831
 11
272.547
 21
6.48152
  0
LINE
  8
0
 10
272.547
 20
6.48152
 11
272.576
 21
6.44385
  0
LINE
  8
0
 10
272.576
 20
6.44385
 11
272.603
 21
6.40529
  0
LINE
  8
0
 10
272.603
 20
6.40529
 11
272.629
 21
6.36591
  0
LINE
  8
0
 10
272.629
 20
6.36591
 11
272.653
 21
6.32573
  0
LINE
  8
0
 10
272.653
 20
6.32573
 11
272.677
 21
6.28481
  0
LINE
  8
0
 10
272.677
 20
6.28481
 11
272.699
 21
6.24315
  0
LINE
  8
0
 10
272.699
 20
6.24315
 11
272.719
 21
6.20084
  0
LINE
  8
0
 10
272.719
 20
6.20084
 11
272.739
 21
6.1579
  0
LINE
  8
0
 10
272.739
 20
6.1579
 11
272.757
 21
6.11435
  0
LINE
  8
0
 10
272.757
 20
6.11435
 11
272.773
 21
6.07028
  0
LINE
  8
0
 10
272.773
 20
6.07028
 11
272.789
 21
6.0257
  0
LINE
  8
0
 10
272.789
 20
6.0257
 11
272.803
 21
5.98065
  0
LINE
  8
0
 10
272.803
 20
5.98065
 11
272.815
 21
5.9352
  0
LINE
  8
0
 10
272.815
 20
5.9352
 11
272.826
 21
5.88939
  0
LINE
  8
0
 10
272.826
 20
5.88939
 11
272.836
 21
5.84325
  0
LINE
  8
0
 10
272.836
 20
5.84325
 11
272.844
 21
5.79681
  0
LINE
  8
0
 10
272.844
 20
5.79681
 11
272.85
 21
5.75017
  0
LINE
  8
0
 10
272.85
 20
5.75017
 11
272.856
 21
5.70332
  0
LINE
  8
0
 10
272.856
 20
5.70332
 11
272.859
 21
5.65636
  0
LINE
  8
0
 10
272.859
 20
5.65636
 11
272.861
 21
5.60928
  0
LINE
  8
0
 10
272.861
 20
5.60928
 11
272.862
 21
5.56216
  0
LINE
  8
0
 10
272.862
 20
5.56216
 11
272.861
 21
5.51505
  0
LINE
  8
0
 10
272.861
 20
5.51505
 11
272.859
 21
5.46799
  0
LINE
  8
0
 10
272.859
 20
5.46799
 11
272.856
 21
5.42101
  0
LINE
  8
0
 10
272.856
 20
5.42101
 11
272.85
 21
5.37418
  0
LINE
  8
0
 10
272.85
 20
5.37418
 11
272.844
 21
5.32751
  0
LINE
  8
0
 10
272.844
 20
5.32751
 11
272.836
 21
5.2811
  0
LINE
  8
0
 10
272.836
 20
5.2811
 11
272.826
 21
5.23495
  0
LINE
  8
0
 10
272.826
 20
5.23495
 11
272.815
 21
5.18913
  0
LINE
  8
0
 10
272.815
 20
5.18913
 11
272.803
 21
5.14368
  0
LINE
  8
0
 10
272.803
 20
5.14368
 11
272.789
 21
5.09865
  0
LINE
  8
0
 10
272.789
 20
5.09865
 11
272.773
 21
5.05406
  0
LINE
  8
0
 10
272.773
 20
5.05406
 11
272.757
 21
5.00998
  0
LINE
  8
0
 10
272.757
 20
5.00998
 11
272.739
 21
4.96645
  0
LINE
  8
0
 10
272.739
 20
4.96645
 11
272.719
 21
4.92349
  0
LINE
  8
0
 10
272.719
 20
4.92349
 11
272.699
 21
4.88118
  0
LINE
  8
0
 10
272.699
 20
4.88118
 11
272.677
 21
4.83954
  0
LINE
  8
0
 10
272.677
 20
4.83954
 11
272.653
 21
4.7986
  0
LINE
  8
0
 10
272.653
 20
4.7986
 11
272.629
 21
4.75842
  0
LINE
  8
0
 10
272.629
 20
4.75842
 11
272.603
 21
4.71904
  0
LINE
  8
0
 10
272.603
 20
4.71904
 11
272.576
 21
4.6805
  0
LINE
  8
0
 10
272.576
 20
4.6805
 11
272.547
 21
4.64281
  0
LINE
  8
0
 10
272.547
 20
4.64281
 11
272.518
 21
4.60603
  0
LINE
  8
0
 10
272.518
 20
4.60603
 11
272.487
 21
4.57021
  0
LINE
  8
0
 10
272.487
 20
4.57021
 11
272.456
 21
4.53535
  0
LINE
  8
0
 10
272.456
 20
4.53535
 11
272.423
 21
4.50151
  0
LINE
  8
0
 10
272.423
 20
4.50151
 11
272.389
 21
4.46872
  0
LINE
  8
0
 10
272.389
 20
4.46872
 11
272.354
 21
4.437
  0
LINE
  8
0
 10
272.354
 20
4.437
 11
272.318
 21
4.4064
  0
LINE
  8
0
 10
272.318
 20
4.4064
 11
272.282
 21
4.37694
  0
LINE
  8
0
 10
272.282
 20
4.37694
 11
272.244
 21
4.34865
  0
LINE
  8
0
 10
272.244
 20
4.34865
 11
272.205
 21
4.32155
  0
LINE
  8
0
 10
272.205
 20
4.32155
 11
272.166
 21
4.29567
  0
LINE
  8
0
 10
272.166
 20
4.29567
 11
272.126
 21
4.27106
  0
LINE
  8
0
 10
272.126
 20
4.27106
 11
272.085
 21
4.24771
  0
LINE
  8
0
 10
272.085
 20
4.24771
 11
272.043
 21
4.22566
  0
LINE
  8
0
 10
272.043
 20
4.22566
 11
272.001
 21
4.20493
  0
LINE
  8
0
 10
272.001
 20
4.20493
 11
271.958
 21
4.18553
  0
LINE
  8
0
 10
271.958
 20
4.18553
 11
271.914
 21
4.16751
  0
LINE
  8
0
 10
271.914
 20
4.16751
 11
271.87
 21
4.15085
  0
LINE
  8
0
 10
271.87
 20
4.15085
 11
271.826
 21
4.13559
  0
LINE
  8
0
 10
271.826
 20
4.13559
 11
271.781
 21
4.12173
  0
LINE
  8
0
 10
271.781
 20
4.12173
 11
271.735
 21
4.1093
  0
LINE
  8
0
 10
271.735
 20
4.1093
 11
271.689
 21
4.0983
  0
LINE
  8
0
 10
271.689
 20
4.0983
 11
271.643
 21
4.08875
  0
LINE
  8
0
 10
271.643
 20
4.08875
 11
271.597
 21
4.08064
  0
LINE
  8
0
 10
271.597
 20
4.08064
 11
271.55
 21
4.07399
  0
LINE
  8
0
 10
271.55
 20
4.07399
 11
271.503
 21
4.06883
  0
LINE
  8
0
 10
271.503
 20
4.06883
 11
271.456
 21
4.06512
  0
LINE
  8
0
 10
271.456
 20
4.06512
 11
271.409
 21
4.06291
  0
LINE
  8
0
 10
271.409
 20
4.06291
 11
271.362
 21
4.06216
  0
LINE
  8
0
 10
271.362
 20
4.06216
 11
271.315
 21
4.06291
  0
LINE
  8
0
 10
196
 20
20
 11
200
 21
20
  0
LINE
  8
0
 10
200
 20
20
 11
200
 21
40
  0
LINE
  8
0
 10
200
 20
40
 11
196
 21
40
  0
LINE
  8
0
 10
196
 20
40
 11
196
 21
60
  0
LINE
  8
0
 10
196
 20
60
 11
200
 21
60
  0
LINE
  8
0
 10
200
 20
60
 11
200
 21
80
  0
LINE
  8
0
 10
200
 20
80
 11
196
 21
80
  0
LINE
  8
0
 10
196
 20
80
 11
196
 21
100
  0
LINE
  8
0
 10
196
 20
100
 11
200
 21
100
  0
LINE
  8
0
 10
200
 20
100
 11
200
 21
120
  0
LINE
  8
0
 10
200
 20
120
 11
196
 21
120
  0
LINE
  8
0
 10
196
 20
120
 11
196
 21
140
  0
LINE
  8
0
 10
196
 20
140
 11
200
 21
140
  0
LINE
  8
0
 10
200
 20
140
 11
200
 21
160
  0
LINE
  8
0
 10
200
 20
160
 11
196
 21
160
  0
LINE
  8
0
 10
196
 20
160
 11
196
 21
180
  0
LINE
  8
0
 10
196
 20
180
 11
200
 21
180
  0
LINE
  8
0
 10
200
 20
180
 11
200
 21
200
  0
LINE
  8
0
 10
200
 20
200
 11
160
 21
200
  0
LINE
  8
0
 10
160
 20
200
 11
160
 21
196
  0
LINE
  8
0
 10
160
 20
196
 11
120
 21
196
  0
LINE
  8
0
 10
120
 20
196
 11
120
 21
200
  0
LINE
  8
0
 10
120
 20
200
 11
80
 21
200
  0
LINE
  8
0
 10
80
 20
200
 11
80
 21
196
  0
LINE
  8
0
 10
80
 20
196
 11
40
 21
196
  0
LINE
  8
0
 10
40
 20
196
 11
40
 21
200
  0
LINE
  8
0
 10
40
 20
200
 11
0
 21
200
  0
LINE
  8
0
 10
0
 20
200
 11
0
 21
180
  0
LINE
  8
0
 10
0
 20
180
 11
4
 21
180
  0
LINE
  8
0
 10
4
 20
180
 11
4
 21
160
  0
LINE
  8
0
 10
4
 20
160
 11
0
 21
160
  0
LINE
  8
0
 10
0
 20
160
 11
0
 21
140
  0
LINE
  8
0
 10
0
 20
140
 11
4
 21
140
  0
LINE
  8
0
 10
4
 20
140
 11
4
 21
120
  0
LINE
  8
0
 10
4
 20
120
 11
0
 21
120
  0
LINE
  8
0
 10
0
 20
120
 11
0
 21
100
  0
LINE
  8
0
 10
0
 20
100
 11
4
 21
100
  0
LINE
  8
0
 10
4
 20
100
 11
4
 21
80
  0
LINE
  8
0
 10
4
 20
80
 11
0
 21
80
  0
LINE
  8
0
 10
0
 20
80
 11
0
 21
60
  0
LINE
  8
0
 10
0
 20
60
 11
4
 21
60
  0
LINE
  8
0
 10
4
 20
60
 11
4
 21
40
  0
LINE
  8
0
 10
4
 20
40
 11
0
 21
40
  0
LINE
  8
0
 10
0
 20
40
 11
0
 21
20
  0
LINE
  8
0
 10
0
 20
20
 11
4
 21
20
  0
LINE
  8
0
 10
4
 20
20
 11
4
 21
0
  0
LINE
  8
0
 10
4
 20
0
 11
196
 21
0
  0
LINE
  8
0
 10
196
 20
0
 11
196
 21
20
  0
LINE
  8
0
 10
99.8429
 20
95.0025
 11
99.6861
 21
95.0099
  0
LINE
  8
0
 10
99.6861
 20
95.0099
 11
99.5294
 21
95.0222
  0
LINE
  8
0
 10
99.5294
 20
95.0222
 11
99.3733
 21
95.0394
  0
LINE
  8
0
 10
99.3733
 20
95.0394
 11
99.2178
 21
95.0616
  0
LINE
  8
0
 10
99.2178
 20
95.0616
 11
99.0631
 21
95.0886
  0
LINE
  8
0
 10
99.0631
 20
95.0886
 11
98.9093
 21
95.1204
  0
LINE
  8
0
 10
98.9093
 20
95.1204
 11
98.7565
 21
95.1571
  0
LINE
  8
0
 10
98.7565
 20
95.1571
 11
98.605
 21
95.1985
  0
LINE
  8
0
 10
98.605
 20
95.1985
 11
98.4549
 21
95.2447
  0
LINE
  8
0
 10
98.4549
 20
95.2447
 11
98.3063
 21
95.2956
  0
LINE
  8
0
 10
98.3063
 20
95.2956
 11
98.1594
 21
95.3511
  0
LINE
  8
0
 10
98.1594
 20
95.3511
 11
98.0143
 21
95.4112
  0
LINE
  8
0
 10
98.0143
 20
95.4112
 11
97.8711
 21
95.4759
  0
LINE
  8
0
 10
97.8711
 20
95.4759
 11
97.73
 21
95.545
  0
LINE
  8
0
 10
97.73
 20
95.545
 11
97.5912
 21
95.6185
  0
LINE
  8
0
 10
97.5912
 20
95.6185
 11
97.4548
 21
95.6963
  0
LINE
  8
0
 10
97.4548
 20
95.6963
 11
97.3209
 21
95.7784
  0
LINE
  8
0
 10
97.3209
 20
95.7784
 11
97.1896
 21
95.8646
  0
LINE
  8
0
 10
97.1896
 20
95.8646
 11
97.0611
 21
95.9549
  0
LINE
  8
0
 10
97.0611
 20
95.9549
 11
96.9355
 21
96.0492
  0
LINE
  8
0
 10
96.9355
 20
96.0492
 11
96.8129
 21
96.1474
  0
LINE
  8
0
 10
96.8129
 20
96.1474
 11
96.6934
 21
96.2494
  0
LINE
  8
0
 10
96.6934
 20
96.2494
 11
96.5773
 21
96.3551
  0
LINE
  8
0
 10
96.5773
 20
96.3551
 11
96.4645
 21
96.4645
  0
LINE
  8
0
 10
96.4645
 20
96.4645
 11
96.3551
 21
96.5773
  0
LINE
  8
0
 10
96.3551
 20
96.5773
 11
96.2494
 21
96.6934
  0
LINE
  8
0
 10
96.2494
 20
96.6934
 11
96.1474
 21
96.8129
  0
LINE
  8
0
 10
96.1474
 20
96.8129
 11
96.0492
 21
96.9355
  0
LINE
  8
0
 10
96.0492
 20
96.9355
 11
95.9549
 21
97.0611
  0
LINE
  8
0
 10
95.9549
 20
97.0611
 11
95.8646
 21
97.1896
  0
LINE
  8
0
 10
95.8646
 20
97.1896
 11
95.7784
 21
97.3209
  0
LINE
  8
0
 10
95.7784
 20
97.3209
 11
95.6963
 21
97.4548
  0
LINE
  8
0
 10
95.6963
 20
97.4548
 11
95.6185
 21
97.5912
  0
LINE
  8
0
 10
95.6185
 20
97.5912
 11
95.545
 21
97.73
  0
LINE
  8
0
 10
95.545
 20
97.73
 11
95.4759
 21
97.8711
  0
LINE
  8
0
 10
95.4759
 20
97.8711
 11
95.4112
 21
98.0143
  0
LINE
  8
0
 10
95.4112
 20
98.0143
 11
95.3511
 21
98.1594
  0
LINE
  8
0
 10
95.3511
 20
98.1594
 11
95.2956
 21
98.3063
  0
LINE
  8
0
 10
95.2956
 20
98.3063
 11
95.2447
 21
98.4549
  0
LINE
  8
0
 10
95.2447
 20
98.4549
 11
95.1985
 21
98.605
  0
LINE
  8
0
 10
95.1985
 20
98.605
 11
95.1571
 21
98.7565
  0
LINE
  8
0
 10
95.1571
 20
98.7565
 11
95.1204
 21
98.9093
  0
LINE
  8
0
 10
95.1204
 20
98.9093
 11
95.0886
 21
99.0631
  0
LINE
  8
0
 10
95.0886
 20
99.0631
 11
95.0616
 21
99.2178
  0
LINE
  8
0
 10
95.0616
 20
99.2178
 11
95.0394
 21
99.3733
  0
LINE
  8
0
 10
95.0394
 20
99.3733
 11
95.0222
 21
99.5294
  0
LINE
  8
0
 10
95.0222
 20
99.5294
 11
95.0099
 21
99.6861
  0
LINE
  8
0
 10
95.0099
 20
99.6861
 11
95.0025
 21
99.8429
  0
LINE
  8
0
 10
95.0025
 20
99.8429
 11
95
 21
100
  0
LINE
  8
0
 10
95
 20
100
 11
95.0025
 21
100.157
  0
LINE
  8
0
 10
95.0025
 20
100.157
 11
95.0099
 21
100.314
  0
LINE
  8
0
 10
95.0099
 20
100.314
 11
95.0222
 21
100.471
  0
LINE
  8
0
 10
95.0222
 20
100.471
 11
95.0394
 21
100.627
  0
LINE
  8
0
 10
95.0394
 20
100.627
 11
95.0616
 21
100.782
  0
LINE
  8
0
 10
95.0616
 20
100.782
 11
95.0886
 21
100.937
  0
LINE
  8
0
 10
95.0886
 20
100.937
 11
95.1204
 21
101.091
  0
LINE
  8
0
 10
95.1204
 20
101.091
 11
95.1571
 21
101.243
  0
LINE
  8
0
 10
95.1571
 20
101.243
 11
95.1985
 21
101.395
  0
LINE
  8
0
 10
95.1985
 20
101.395
 11
95.2447
 21
101.545
  0
LINE
  8
0
 10
95.2447
 20
101.545
 11
95.2956
 21
101.694
  0
LINE
  8
0
 10
95.2956
 20
101.694
 11
95.3511
 21
101.841
  0
LINE
  8
0
 10
95.3511
 20
101.841
 11
95.4112
 21
101.986
  0
LINE
  8
0
 10
95.4112
 20
101.986
 11
95.4759
 21
102.129
  0
LINE
  8
0
 10
95.4759
 20
102.129
 11
95.545
 21
102.27
  0
LINE
  8
0
 10
95.545
 20
102.27
 11
95.6185
 21
102.409
  0
LINE
  8
0
 10
95.6185
 20
102.409
 11
95.6963
 21
102.545
  0
LINE
  8
0
 10
95.6963
 20
102.545
 11
95.7784
 21
102.679
  0
LINE
  8
0
 10
95.7784
 20
102.679
 11
95.8646
 21
102.81
  0
LINE
  8
0
 10
95.8646
 20
102.81
 11
95.9549
 21
102.939
  0
LINE
  8
0
 10
95.9549
 20
102.939
 11
96.0492
 21
103.065
  0
LINE
  8
0
 10
96.0492
 20
103.065
 11
96.1474
 21
103.187
  0
LINE
  8
0
 10
96.1474
 20
103.187
 11
96.2494
 21
103.307
  0
LINE
  8
0
 10
96.2494
 20
103.307
 11
96.3551
 21
103.423
  0
LINE
  8
0
 10
96.3551
 20
103.423
 11
96.4645
 21
103.536
  0
LINE
  8
0
 10
96.4645
 20
103.536
 11
96.5773
 21
103.645
  0
LINE
  8
0
 10
96.5773
 20
103.645
 11
96.6934
 21
103.751
  0
LINE
  8
0
 10
96.6934
 20
103.751
 11
96.8129
 21
103.853
  0
LINE
  8
0
 10
96.8129
 20
103.853
 11
96.9355
 21
103.951
  0
LINE
  8
0
 10
96.9355
 20
103.951
 11
97.0611
 21
104.045
  0
LINE
  8
0
 10
97.0611
 20
104.045
 11
97.1896
 21
104.135
  0
LINE
  8
0
 10
97.1896
 20
104.135
 11
97.3209
 21
104.222
  0
LINE
  8
0
 10
97.3209
 20
104.222
 11
97.4548
 21
104.304
  0
LINE
  8
0
 10
97.4548
 20
104.304
 11
97.5912
 21
104.382
  0
LINE
  8
0
 10
97.5912
 20
104.382
 11
97.73
 21
104.455
  0
LINE
  8
0
 10
97.73
 20
104.455
 11
97.8711
 21
104.524
  0
LINE
  8
0
 10
97.8711
 20
104.524
 11
98.0143
 21
104.589
  0
LINE
  8
0
 10
98.0143
 20
104.589
 11
98.1594
 21
104.649
  0
LINE
  8
0
 10
98.1594
 20
104.649
 11
98.3063
 21
104.704
  0
LINE
  8
0
 10
98.3063
 20
104.704
 11
98.4549
 21
104.755
  0
LINE
  8
0
 10
98.4549
 20
104.755
 11
98.605
 21
104.801
  0
LINE
  8
0
 10
98.605
 20
104.801
 11
98.7565
 21
104.843
  0
LINE
  8
0
 10
98.7565
 20
104.843
 11
98.9093
 21
104.88
  0
LINE
  8
0
 10
98.9093
 20
104.88
 11
99.0631
 21
104.911
  0
LINE
  8
0
 10
99.0631
 20
104.911
 11
99.2178
 21
104.938
  0
LINE
  8
0
 10
99.2178
 20
104.938
 11
99.3733
 21
104.961
  0
LINE
  8
0
 10
99.3733
 20
104.961
 11
99.5294
 21
104.978
  0
LINE
  8
0
 10
99.5294
 20
104.978
 11
99.6861
 21
104.99
  0
LINE
  8
0
 10
99.6861
 20
104.99
 11
99.8429
 21
104.998
  0
LINE
  8
0
 10
99.8429
 20
104.998
 11
100
 21
105
  0
LINE
  8
0
 10
100
 20
105
 11
100.157
 21
104.998
  0
LINE
  8
0
 10
100.157
 20
104.998
 11
100.314
 21
104.99
  0
LINE
  8
0
 10
100.314
 20
104.99
 11
100.471
 21
104.978
  0
LINE
  8
0
 10
100.471
 20
104.978
 11
100.627
 21
104.961
  0
LINE
  8
0
 10
100.627
 20
104.961
 11
100.782
 21
104.938
  0
LINE
  8
0
 10
100.782
 20
104.938
 11
100.937
 21
104.911
  0
LINE
  8
0
 10
100.937
 20
104.911
 11
101.091
 21
104.88
  0
LINE
  8
0
 10
101.091
 20
104.88
 11
101.243
 21
104.843
  0
LINE
  8
0
 10
101.243
 20
104.843
 11
101.395
 21
104.801
  0
LINE
  8
0
 10
101.395
 20
104.801
 11
101.545
 21
104.755
  0
LINE
  8
0
 10
101.545
 20
104.755
 11
101.694
 21
104.704
  0
LINE
  8
0
 10
101.694
 20
104.704
 11
101.841
 21
104.649
  0
LINE
  8
0
 10
101.841
 20
104.649
 11
101.986
 21
104.589
  0
LINE
  8
0
 10
101.986
 20
104.589
 11
102.129
 21
104.524
  0
LINE
  8
0
 10
102.129
 20
104.524
 11
102.27
 21
104.455
  0
LINE
  8
0
 10
102.27
 20
104.455
 11
102.409
 21
104.382
  0
LINE
  8
0
 10
102.409
 20
104.382
 11
102.545
 21
104.304
  0
LINE
  8
0
 10
102.545
 20
104.304
 11
102.679
 21
104.222
  0
LINE
  8
0
 10
102.679
 20
104.222
 11
102.81
 21
104.135
  0
LINE
  8
0
 10
102.81
 20
104.135
 11
102.939
 21
104.045
  0
LINE
  8
0
 10
102.939
 20
104.045
 11
103.065
 21
103.951
  0
LINE
  8
0
 10
103.065
 20
103.951
 11
103.187
 21
103.853
  0
LINE
  8
0
 10
103.187
 20
103.853
 11
103.307
 21
103.751
  0
LINE
  8
0
 10
103.307
 20
103.751
 11
103.423
 21
103.645
  0
LINE
  8
0
 10
103.423
 20
103.645
 11
103.536
 21
103.536
  0
LINE
  8
0
 10
103.536
 20
103.536
 11
103.645
 21
103.423
  0
LINE
  8
0
 10
103.645
 20
103.423
 11
103.751
 21
103.307
  0
LINE
  8
0
 10
103.751
 20
103.307
 11
103.853
 21
103.187
  0
LINE
  8
0
 10
103.853
 20
103.187
 11
103.951
 21
103.065
  0
LINE
  8
0
 10
103.951
 20
103.065
 11
104.045
 21
102.939
  0
LINE
  8
0
 10
104.045
 20
102.939
 11
104.135
 21
102.81
  0
LINE
  8
0
 10
104.135
 20
102.81
 11
104.222
 21
102.679
  0
LINE
  8
0
 10
104.222
 20
102.679
 11
104.304
 21
102.545
  0
LINE
  8
0
 10
104.304
 20
102.545
 11
104.382
 21
102.409
  0
LINE
  8
0
 10
104.382
 20
102.409
 11
104.455
 21
102.27
  0
LINE
  8
0
 10
104.455
 20
102.27
 11
104.524
 21
102.129
  0
LINE
  8
0
 10
104.524
 20
102.129
 11
104.589
 21
101.986
  0
LINE
  8
0
 10
104.589
 20
101.986
 11
104.649
 21
101.841
  0
LINE
  8
0
 10
104.649
 20
101.841
 11
104.704
 21
101.694
  0
LINE
  8
0
 10
104.704
 20
101.694
 11
104.755
 21
101.545
  0
LINE
  8
0
 10
104.755
 20
101.545
 11
104.801
 21
101.395
  0
LINE
  8
0
 10
104.801
 20
101.395
 11
104.843
 21
101.243
  0
LINE
  8
0
 10
104.843
 20
101.243
 11
104.88
 21
101.091
  0
LINE
  8
0
 10
104.88
 20
101.091
 11
104.911
 21
100.937
  0
LINE
  8
0
 10
104.911
 20
100.937
 11
104.938
 21
100.782
  0
LINE
  8
0
 10
104.938
 20
100.782
 11
104.961
 21
100.627
  0
LINE
  8
0
 10
104.961
 20
100.627
 11
104.978
 21
100.471
  0
LINE
  8
0
 10
104.978
 20
100.471
 11
104.99
 21
100.314
  0
LINE
  8
0
 10
104.99
 20
100.314
 11
104.998
 21
100.157
  0
LINE
  8
0
 10
104.998
 20
100.157
 11
105
 21
100
  0
LINE
  8
0
 10
105
 20
100
 11
104.998
 21
99.8429
  0
LINE
  8
0
 10
104.998
 20
99.8429
 11
104.99
 21
99.6861
  0
LINE
  8
0
 10
104.99
 20
99.6861
 11
104.978
 21
99.5294
  0
LINE
  8
0
 10
104.978
 20
99.5294
 11
104.961
 21
99.3733
  0
LINE
  8
0
 10
104.961
 20
99.3733
 11
104.938
 21
99.2178
  0
LINE
  8
0
 10
104.938
 20
99.2178
 11
104.911
 21
99.0631
  0
LINE
  8
0
 10
104.911
 20
99.0631
 11
104.88
 21
98.9093
  0
LINE
  8
0
 10
104.88
 20
98.9093
 11
104.843
 21
98.7565
  0
LINE
  8
0
 10
104.843
 20
98.7565
 11
104.801
 21
98.605
  0
LINE
  8
0
 10
104.801
 20
98.605
 11
104.755
 21
98.4549
  0
LINE
  8
0
 10
104.755
 20
98.4549
 11
104.704
 21
98.3063
  0
LINE
  8
0
 10
104.704
 20
98.3063
 11
104.649
 21
98.1594
  0
LINE
  8
0
 10
104.649
 20
98.1594
 11
104.589
 21
98.0143
  0
LINE
  8
0
 10
104.589
 20
98.0143
 11
104.524
 21
97.8711
  0
LINE
  8
0
 10
104.524
 20
97.8711
 11
104.455
 21
97.73
  0
LINE
  8
0
 10
104.455
 20
97.73
 11
104.382
 21
97.5912
  0
LINE
  8
0
 10
104.382
 20
97.5912
 11
104.304
 21
97.4548
  0
LINE
  8
0
 10
104.304
 20
97.4548
 11
104.222
 21
97.3209
  0
LINE
  8
0
 10
104.222
 20
97.3209
 11
104.135
 21
97.1896
  0
LINE
  8
0
 10
104.135
 20
97.1896
 11
104.045
 21
97.0611
  0
LINE
  8
0
 10
104.045
 20
97.0611
 11
103.951
 21
96.9355
  0
LINE
  8
0
 10
103.951
 20
96.9355
 11
103.853
 21
96.8129
  0
LINE
  8
0
 10
103.853
 20
96.8129
 11
103.751
 21
96.6934
  0
LINE
  8
0
 10
103.751
 20
96.6934
 11
103.645
 21
96.5773
  0
LINE
  8
0
 10
103.645
 20
96.5773
 11
103.536
 21
96.4645
  0
LINE
  8
0
 10
103.536
 20
96.4645
 11
103.423
 21
96.3551
  0
LINE
  8
0
 10
103.423
 20
96.3551
 11
103.307
 21
96.2494
  0
LINE
  8
0
 10
103.307
 20
96.2494
 11
103.187
 21
96.1474
  0
LINE
  8
0
 10
103.187
 20
96.1474
 11
103.065
 21
96.0492
  0
LINE
  8
0
 10
103.065
 20
96.0492
 11
102.939
 21
95.9549
  0
LINE
  8
0
 10
102.939
 20
95.9549
 11
102.81
 21
95.8646
  0
LINE
  8
0
 10
102.81
 20
95.8646
 11
102.679
 21
95.7784
  0
LINE
  8
0
 10
102.679
 20
95.7784
 11
102.545
 21
95.6963
  0
LINE
  8
0
 10
102.545
 20
95.6963
 11
102.409
 21
95.6185
  0
LINE
  8
0
 10
102.409
 20
95.6185
 11
102.27
 21
95.545
  0
LINE
  8
0
 10
102.27
 20
95.545
 11
102.129
 21
95.4759
  0
LINE
  8
0
 10
102.129
 20
95.4759
 11
101.986
 21
95.4112
  0
LINE
  8
0
 10
101.986
 20
95.4112
 11
101.841
 21
95.3511
  0
LINE
  8
0
 10
101.841
 20
95.3511
 11
101.694
 21
95.2956
  0
LINE
  8
0
 10
101.694
 20
95.2956
 11
101.545
 21
95.2447
  0
LINE
  8
0
 10
101.545
 20
95.2447
 11
101.395
 21
95.1985
  0
LINE
  8
0
 10
101.395
 20
95.1985
 11
101.243
 21
95.1571
  0
LINE
  8
0
 10
101.243
 20
95.1571
 11
101.091
 21
95.1204
  0
LINE
  8
0
 10
101.091
 20
95.1204
 11
100.937
 21
95.0886
  0
LINE
  8
0
 10
100.937
 20
95.0886
 11
100.782
 21
95.0616
  0
LINE
  8
0
 10
100.782
 20
95.0616
 11
100.627
 21
95.0394
  0
LINE
  8
0
 10
100.627
 20
95.0394
 11
100.471
 21
95.0222
  0
LINE
  8
0
 10
100.471
 20
95.0222
 11
100.314
 21
95.0099
  0
LINE
  8
0
 10
100.314
 20
95.0099
 11
100.157
 21
95.0025
  0
LINE
  8
0
 10
100.157
 20
95.0025
 11
100
 21
95
  0
LINE
  8
0
 10
100
 20
95
 11
99.8429
 21
95.0025
  0
ENDSEC
  0
SECTION
  2
OBJECTS
  0
DICTIONARY
  0
ENDSEC
  0
EOF
